M48
;Layer_Color=9474304
;FILE_FORMAT=2:5
INCH,TZ
;TYPE=PLATED
T1F00S00C0.02953
T2F00S00C0.03937
T3F00S00C0.12992
%
T01
X74502Y71933
X84469Y71969
X94468
Y101969
X84469
X74468Y91969
X188819
X198819Y101969
X208819
Y71969
X198819
X188852Y71933
X304659
X314626Y71969
X324626
X316929Y62992
Y32992
X304626Y91969
X314626Y101969
X324626
T02
X34331Y49213
X44331
X54331
X64331
X74331
X84331
X94331
X104331
X114331
X104646Y37402
X94646
X84646
X74646
X64646
X72835Y111969
X90551
Y137559
X94331Y149213
X84331
X74331
X64331
X54331
X44331
X34331
X72835Y137559
X104331Y149213
X114331
X124331
X134331
X144331
X154331
X164331
X174331
X184331
X194331
X204331
X214331
X205709Y137559
X187992
Y111969
X205709
X243150
X253150
X263150
X273150
Y151969
X263150
X253150
X243150
X214331Y49213
X204331
X194331
X184331
X174331
X164331
X154331
X144331
X134331
X124331
X317087Y21811
X327087Y11811
X307087
X342520Y31496
X382520
X320866Y111969
X303150
X293150
X283150
Y151969
X293150
X303150Y137559
X320866
X279272Y176437
Y186437
X269272
X259272
X249272
X239272
Y176437
X249272
X259272
X269272
X154272
Y186437
X144272
X134272
X124272
Y176437
X134272
X144272
X114272
Y186437
T03
X19685Y19685
X374016Y82677
Y174213
X19685
M30
