G04*
G04 #@! TF.GenerationSoftware,Altium Limited,Altium Designer,20.0.13 (296)*
G04*
G04 Layer_Physical_Order=3*
G04 Layer_Color=16440176*
%FSLAX25Y25*%
%MOIN*%
G70*
G01*
G75*
%ADD18C,0.04921*%
%ADD21C,0.06142*%
%ADD22R,0.06142X0.06142*%
%ADD23R,0.06142X0.06142*%
%ADD24C,0.03937*%
G36*
X391286Y2415D02*
X2415D01*
Y194436D01*
X391286D01*
Y2415D01*
D02*
G37*
%LPC*%
G36*
X279272Y189938D02*
X278366Y189819D01*
X277521Y189469D01*
X276796Y188912D01*
X276240Y188187D01*
X275890Y187343D01*
X275771Y186437D01*
X275890Y185531D01*
X276240Y184687D01*
X276796Y183962D01*
X277521Y183405D01*
X278366Y183055D01*
X279272Y182936D01*
X280178Y183055D01*
X281022Y183405D01*
X281747Y183962D01*
X282304Y184687D01*
X282653Y185531D01*
X282772Y186437D01*
X282653Y187343D01*
X282304Y188187D01*
X281747Y188912D01*
X281022Y189469D01*
X280178Y189819D01*
X279272Y189938D01*
D02*
G37*
G36*
X269272D02*
X268366Y189819D01*
X267521Y189469D01*
X266796Y188912D01*
X266240Y188187D01*
X265890Y187343D01*
X265771Y186437D01*
X265890Y185531D01*
X266240Y184687D01*
X266796Y183962D01*
X267521Y183405D01*
X268366Y183055D01*
X269272Y182936D01*
X270178Y183055D01*
X271022Y183405D01*
X271747Y183962D01*
X272304Y184687D01*
X272653Y185531D01*
X272773Y186437D01*
X272653Y187343D01*
X272304Y188187D01*
X271747Y188912D01*
X271022Y189469D01*
X270178Y189819D01*
X269272Y189938D01*
D02*
G37*
G36*
X259272D02*
X258366Y189819D01*
X257521Y189469D01*
X256796Y188912D01*
X256240Y188187D01*
X255890Y187343D01*
X255771Y186437D01*
X255890Y185531D01*
X256240Y184687D01*
X256796Y183962D01*
X257521Y183405D01*
X258366Y183055D01*
X259272Y182936D01*
X260178Y183055D01*
X261022Y183405D01*
X261747Y183962D01*
X262303Y184687D01*
X262653Y185531D01*
X262772Y186437D01*
X262653Y187343D01*
X262303Y188187D01*
X261747Y188912D01*
X261022Y189469D01*
X260178Y189819D01*
X259272Y189938D01*
D02*
G37*
G36*
X249272D02*
X248366Y189819D01*
X247521Y189469D01*
X246796Y188912D01*
X246240Y188187D01*
X245890Y187343D01*
X245771Y186437D01*
X245890Y185531D01*
X246240Y184687D01*
X246796Y183962D01*
X247521Y183405D01*
X248366Y183055D01*
X249272Y182936D01*
X250178Y183055D01*
X251022Y183405D01*
X251747Y183962D01*
X252304Y184687D01*
X252653Y185531D01*
X252772Y186437D01*
X252653Y187343D01*
X252304Y188187D01*
X251747Y188912D01*
X251022Y189469D01*
X250178Y189819D01*
X249272Y189938D01*
D02*
G37*
G36*
X239272D02*
X238366Y189819D01*
X237521Y189469D01*
X236796Y188912D01*
X236240Y188187D01*
X235890Y187343D01*
X235771Y186437D01*
X235890Y185531D01*
X236240Y184687D01*
X236796Y183962D01*
X237521Y183405D01*
X238366Y183055D01*
X239272Y182936D01*
X240178Y183055D01*
X241022Y183405D01*
X241747Y183962D01*
X242303Y184687D01*
X242653Y185531D01*
X242773Y186437D01*
X242653Y187343D01*
X242303Y188187D01*
X241747Y188912D01*
X241022Y189469D01*
X240178Y189819D01*
X239272Y189938D01*
D02*
G37*
G36*
X154272D02*
X153366Y189819D01*
X152521Y189469D01*
X151796Y188912D01*
X151240Y188187D01*
X150890Y187343D01*
X150771Y186437D01*
X150890Y185531D01*
X151240Y184687D01*
X151796Y183962D01*
X152521Y183405D01*
X153366Y183055D01*
X154272Y182936D01*
X155178Y183055D01*
X156022Y183405D01*
X156747Y183962D01*
X157303Y184687D01*
X157653Y185531D01*
X157773Y186437D01*
X157653Y187343D01*
X157303Y188187D01*
X156747Y188912D01*
X156022Y189469D01*
X155178Y189819D01*
X154272Y189938D01*
D02*
G37*
G36*
X144272D02*
X143366Y189819D01*
X142521Y189469D01*
X141796Y188912D01*
X141240Y188187D01*
X140890Y187343D01*
X140771Y186437D01*
X140890Y185531D01*
X141240Y184687D01*
X141796Y183962D01*
X142521Y183405D01*
X143366Y183055D01*
X144272Y182936D01*
X145178Y183055D01*
X146022Y183405D01*
X146747Y183962D01*
X147303Y184687D01*
X147653Y185531D01*
X147773Y186437D01*
X147653Y187343D01*
X147303Y188187D01*
X146747Y188912D01*
X146022Y189469D01*
X145178Y189819D01*
X144272Y189938D01*
D02*
G37*
G36*
X134272D02*
X133366Y189819D01*
X132521Y189469D01*
X131796Y188912D01*
X131240Y188187D01*
X130890Y187343D01*
X130771Y186437D01*
X130890Y185531D01*
X131240Y184687D01*
X131796Y183962D01*
X132521Y183405D01*
X133366Y183055D01*
X134272Y182936D01*
X135178Y183055D01*
X136022Y183405D01*
X136747Y183962D01*
X137303Y184687D01*
X137653Y185531D01*
X137773Y186437D01*
X137653Y187343D01*
X137303Y188187D01*
X136747Y188912D01*
X136022Y189469D01*
X135178Y189819D01*
X134272Y189938D01*
D02*
G37*
G36*
X124272D02*
X123366Y189819D01*
X122521Y189469D01*
X121796Y188912D01*
X121240Y188187D01*
X120890Y187343D01*
X120771Y186437D01*
X120890Y185531D01*
X121240Y184687D01*
X121796Y183962D01*
X122521Y183405D01*
X123366Y183055D01*
X124272Y182936D01*
X125178Y183055D01*
X126022Y183405D01*
X126747Y183962D01*
X127303Y184687D01*
X127653Y185531D01*
X127772Y186437D01*
X127653Y187343D01*
X127303Y188187D01*
X126747Y188912D01*
X126022Y189469D01*
X125178Y189819D01*
X124272Y189938D01*
D02*
G37*
G36*
X114272D02*
X113366Y189819D01*
X112521Y189469D01*
X111796Y188912D01*
X111240Y188187D01*
X110890Y187343D01*
X110771Y186437D01*
X110890Y185531D01*
X111240Y184687D01*
X111796Y183962D01*
X112521Y183405D01*
X113366Y183055D01*
X114272Y182936D01*
X115178Y183055D01*
X116022Y183405D01*
X116747Y183962D01*
X117303Y184687D01*
X117653Y185531D01*
X117772Y186437D01*
X117653Y187343D01*
X117303Y188187D01*
X116747Y188912D01*
X116022Y189469D01*
X115178Y189819D01*
X114272Y189938D01*
D02*
G37*
G36*
X249272Y179938D02*
X248366Y179818D01*
X247521Y179469D01*
X246796Y178912D01*
X246750Y178852D01*
X242742D01*
Y179908D01*
X235801D01*
Y178852D01*
X156794D01*
X156747Y178912D01*
X156022Y179469D01*
X155178Y179818D01*
X154272Y179938D01*
X153366Y179818D01*
X152521Y179469D01*
X151796Y178912D01*
X151750Y178852D01*
X146794D01*
X146747Y178912D01*
X146022Y179469D01*
X145178Y179818D01*
X144272Y179938D01*
X143366Y179818D01*
X142521Y179469D01*
X141796Y178912D01*
X141750Y178852D01*
X136794D01*
X136747Y178912D01*
X136022Y179469D01*
X135178Y179818D01*
X134272Y179938D01*
X133366Y179818D01*
X132521Y179469D01*
X131796Y178912D01*
X131750Y178852D01*
X126794D01*
X126747Y178912D01*
X126022Y179469D01*
X125178Y179818D01*
X124272Y179938D01*
X123366Y179818D01*
X122521Y179469D01*
X121796Y178912D01*
X121750Y178852D01*
X117743D01*
Y179908D01*
X110801D01*
Y172966D01*
X117743D01*
Y174022D01*
X121750D01*
X121796Y173962D01*
X122521Y173405D01*
X123366Y173056D01*
X124272Y172936D01*
X125178Y173056D01*
X126022Y173405D01*
X126747Y173962D01*
X126794Y174022D01*
X131750D01*
X131796Y173962D01*
X132521Y173405D01*
X133366Y173056D01*
X134272Y172936D01*
X135178Y173056D01*
X136022Y173405D01*
X136747Y173962D01*
X136794Y174022D01*
X141750D01*
X141796Y173962D01*
X142521Y173405D01*
X143366Y173056D01*
X144272Y172936D01*
X145178Y173056D01*
X146022Y173405D01*
X146747Y173962D01*
X146794Y174022D01*
X151750D01*
X151796Y173962D01*
X152521Y173405D01*
X153366Y173056D01*
X154272Y172936D01*
X155178Y173056D01*
X156022Y173405D01*
X156747Y173962D01*
X156794Y174022D01*
X235801D01*
Y172966D01*
X242742D01*
Y174022D01*
X246750D01*
X246796Y173962D01*
X247521Y173405D01*
X248366Y173056D01*
X249030Y172968D01*
X269418Y152580D01*
X269404Y151638D01*
X259656Y141890D01*
X259656Y141890D01*
X230576Y112810D01*
X230052Y112027D01*
X229869Y111102D01*
Y68166D01*
X214406Y52703D01*
X214331Y52713D01*
X213425Y52594D01*
X212580Y52244D01*
X211855Y51688D01*
X211299Y50963D01*
X210949Y50119D01*
X210830Y49213D01*
X210949Y48307D01*
X211299Y47462D01*
X211855Y46737D01*
X212580Y46181D01*
X213425Y45831D01*
X214331Y45712D01*
X215237Y45831D01*
X216081Y46181D01*
X216806Y46737D01*
X217362Y47462D01*
X217712Y48307D01*
X217831Y49213D01*
X217822Y49288D01*
X233991Y65458D01*
X234514Y66241D01*
X234698Y67165D01*
Y110102D01*
X263071Y138475D01*
X263071Y138475D01*
X273074Y148478D01*
X273150Y148468D01*
X274056Y148587D01*
X274900Y148937D01*
X275625Y149493D01*
X276181Y150218D01*
X276531Y151062D01*
X276650Y151969D01*
X276531Y152875D01*
X276181Y153719D01*
X275625Y154444D01*
X274900Y155000D01*
X274056Y155350D01*
X273391Y155438D01*
X252728Y176100D01*
X252772Y176437D01*
X252653Y177343D01*
X252304Y178187D01*
X251747Y178912D01*
X251022Y179469D01*
X250178Y179818D01*
X249272Y179938D01*
D02*
G37*
G36*
X279272D02*
X278366Y179818D01*
X277521Y179469D01*
X276796Y178912D01*
X276240Y178187D01*
X275890Y177343D01*
X275771Y176437D01*
X275890Y175531D01*
X276240Y174687D01*
X276796Y173962D01*
X277521Y173405D01*
X278366Y173056D01*
X279272Y172936D01*
X280178Y173056D01*
X281022Y173405D01*
X281747Y173962D01*
X282304Y174687D01*
X282653Y175531D01*
X282772Y176437D01*
X282653Y177343D01*
X282304Y178187D01*
X281747Y178912D01*
X281022Y179469D01*
X280178Y179818D01*
X279272Y179938D01*
D02*
G37*
G36*
X269272D02*
X268366Y179818D01*
X267521Y179469D01*
X266796Y178912D01*
X266240Y178187D01*
X265890Y177343D01*
X265771Y176437D01*
X265890Y175531D01*
X266240Y174687D01*
X266796Y173962D01*
X267521Y173405D01*
X268366Y173056D01*
X269272Y172936D01*
X270178Y173056D01*
X271022Y173405D01*
X271747Y173962D01*
X272304Y174687D01*
X272653Y175531D01*
X272773Y176437D01*
X272653Y177343D01*
X272304Y178187D01*
X271747Y178912D01*
X271022Y179469D01*
X270178Y179818D01*
X269272Y179938D01*
D02*
G37*
G36*
X259272D02*
X258366Y179818D01*
X257521Y179469D01*
X256796Y178912D01*
X256240Y178187D01*
X255890Y177343D01*
X255771Y176437D01*
X255890Y175531D01*
X256240Y174687D01*
X256796Y173962D01*
X257521Y173405D01*
X258366Y173056D01*
X259272Y172936D01*
X260178Y173056D01*
X261022Y173405D01*
X261747Y173962D01*
X262303Y174687D01*
X262653Y175531D01*
X262772Y176437D01*
X262653Y177343D01*
X262303Y178187D01*
X261747Y178912D01*
X261022Y179469D01*
X260178Y179818D01*
X259272Y179938D01*
D02*
G37*
G36*
X374016Y190411D02*
X371482Y190211D01*
X369010Y189618D01*
X366662Y188645D01*
X364495Y187317D01*
X362562Y185666D01*
X360911Y183733D01*
X359583Y181566D01*
X358611Y179218D01*
X358017Y176746D01*
X357818Y174213D01*
X358017Y171679D01*
X358611Y169207D01*
X359583Y166859D01*
X360911Y164692D01*
X362562Y162759D01*
X364495Y161108D01*
X366662Y159780D01*
X369010Y158807D01*
X371482Y158214D01*
X374016Y158015D01*
X376550Y158214D01*
X379021Y158807D01*
X381369Y159780D01*
X383537Y161108D01*
X385469Y162759D01*
X387120Y164692D01*
X388448Y166859D01*
X389421Y169207D01*
X390014Y171679D01*
X390214Y174213D01*
X390014Y176746D01*
X389421Y179218D01*
X388448Y181566D01*
X387120Y183733D01*
X385469Y185666D01*
X383537Y187317D01*
X381369Y188645D01*
X379021Y189618D01*
X376550Y190211D01*
X374016Y190411D01*
D02*
G37*
G36*
X19685D02*
X17151Y190211D01*
X14680Y189618D01*
X12331Y188645D01*
X10164Y187317D01*
X8231Y185666D01*
X6581Y183733D01*
X5253Y181566D01*
X4280Y179218D01*
X3686Y176746D01*
X3487Y174213D01*
X3686Y171679D01*
X4280Y169207D01*
X5253Y166859D01*
X6581Y164692D01*
X8231Y162759D01*
X10164Y161108D01*
X12331Y159780D01*
X14680Y158807D01*
X17151Y158214D01*
X19685Y158015D01*
X22219Y158214D01*
X24690Y158807D01*
X27039Y159780D01*
X29206Y161108D01*
X31139Y162759D01*
X32789Y164692D01*
X34117Y166859D01*
X35090Y169207D01*
X35684Y171679D01*
X35883Y174213D01*
X35684Y176746D01*
X35090Y179218D01*
X34117Y181566D01*
X32789Y183733D01*
X31139Y185666D01*
X29206Y187317D01*
X27039Y188645D01*
X24690Y189618D01*
X22219Y190211D01*
X19685Y190411D01*
D02*
G37*
G36*
X293150Y155469D02*
X292244Y155350D01*
X291399Y155000D01*
X290674Y154444D01*
X290118Y153719D01*
X289768Y152875D01*
X289649Y151969D01*
X289768Y151062D01*
X290118Y150218D01*
X290674Y149493D01*
X291399Y148937D01*
X292244Y148587D01*
X293150Y148468D01*
X294056Y148587D01*
X294900Y148937D01*
X295625Y149493D01*
X296181Y150218D01*
X296531Y151062D01*
X296650Y151969D01*
X296531Y152875D01*
X296181Y153719D01*
X295625Y154444D01*
X294900Y155000D01*
X294056Y155350D01*
X293150Y155469D01*
D02*
G37*
G36*
X283150D02*
X282243Y155350D01*
X281399Y155000D01*
X280674Y154444D01*
X280118Y153719D01*
X279768Y152875D01*
X279649Y151969D01*
X279768Y151062D01*
X280118Y150218D01*
X280674Y149493D01*
X281399Y148937D01*
X282243Y148587D01*
X283150Y148468D01*
X284056Y148587D01*
X284900Y148937D01*
X285625Y149493D01*
X286181Y150218D01*
X286531Y151062D01*
X286650Y151969D01*
X286531Y152875D01*
X286181Y153719D01*
X285625Y154444D01*
X284900Y155000D01*
X284056Y155350D01*
X283150Y155469D01*
D02*
G37*
G36*
X263150D02*
X262244Y155350D01*
X261399Y155000D01*
X260674Y154444D01*
X260118Y153719D01*
X259768Y152875D01*
X259649Y151969D01*
X259768Y151062D01*
X260118Y150218D01*
X260674Y149493D01*
X261399Y148937D01*
X262244Y148587D01*
X263150Y148468D01*
X264056Y148587D01*
X264900Y148937D01*
X265625Y149493D01*
X266181Y150218D01*
X266531Y151062D01*
X266650Y151969D01*
X266531Y152875D01*
X266181Y153719D01*
X265625Y154444D01*
X264900Y155000D01*
X264056Y155350D01*
X263150Y155469D01*
D02*
G37*
G36*
X253150D02*
X252243Y155350D01*
X251399Y155000D01*
X250674Y154444D01*
X250118Y153719D01*
X249768Y152875D01*
X249649Y151969D01*
X249768Y151062D01*
X250118Y150218D01*
X250674Y149493D01*
X251399Y148937D01*
X252243Y148587D01*
X253150Y148468D01*
X254056Y148587D01*
X254900Y148937D01*
X255625Y149493D01*
X256181Y150218D01*
X256531Y151062D01*
X256650Y151969D01*
X256531Y152875D01*
X256181Y153719D01*
X255625Y154444D01*
X254900Y155000D01*
X254056Y155350D01*
X253150Y155469D01*
D02*
G37*
G36*
X243150D02*
X242244Y155350D01*
X241399Y155000D01*
X240674Y154444D01*
X240118Y153719D01*
X239768Y152875D01*
X239649Y151969D01*
X239768Y151062D01*
X240118Y150218D01*
X240674Y149493D01*
X241399Y148937D01*
X242244Y148587D01*
X243150Y148468D01*
X244056Y148587D01*
X244900Y148937D01*
X245625Y149493D01*
X246181Y150218D01*
X246531Y151062D01*
X246650Y151969D01*
X246531Y152875D01*
X246181Y153719D01*
X245625Y154444D01*
X244900Y155000D01*
X244056Y155350D01*
X243150Y155469D01*
D02*
G37*
G36*
X214331Y152713D02*
X213425Y152594D01*
X212580Y152244D01*
X211855Y151688D01*
X211299Y150963D01*
X210949Y150119D01*
X210830Y149213D01*
X210949Y148307D01*
X211299Y147462D01*
X211855Y146737D01*
X212580Y146181D01*
X213425Y145831D01*
X214331Y145712D01*
X215237Y145831D01*
X216081Y146181D01*
X216806Y146737D01*
X217362Y147462D01*
X217712Y148307D01*
X217831Y149213D01*
X217712Y150119D01*
X217362Y150963D01*
X216806Y151688D01*
X216081Y152244D01*
X215237Y152594D01*
X214331Y152713D01*
D02*
G37*
G36*
X204331D02*
X203425Y152594D01*
X202580Y152244D01*
X201855Y151688D01*
X201299Y150963D01*
X200949Y150119D01*
X200830Y149213D01*
X200949Y148307D01*
X201299Y147462D01*
X201855Y146737D01*
X202580Y146181D01*
X203425Y145831D01*
X204331Y145712D01*
X205237Y145831D01*
X206081Y146181D01*
X206806Y146737D01*
X207363Y147462D01*
X207712Y148307D01*
X207832Y149213D01*
X207712Y150119D01*
X207363Y150963D01*
X206806Y151688D01*
X206081Y152244D01*
X205237Y152594D01*
X204331Y152713D01*
D02*
G37*
G36*
X194331D02*
X193425Y152594D01*
X192580Y152244D01*
X191855Y151688D01*
X191299Y150963D01*
X190949Y150119D01*
X190830Y149213D01*
X190949Y148307D01*
X191299Y147462D01*
X191855Y146737D01*
X192580Y146181D01*
X193425Y145831D01*
X194331Y145712D01*
X195237Y145831D01*
X196081Y146181D01*
X196806Y146737D01*
X197362Y147462D01*
X197712Y148307D01*
X197831Y149213D01*
X197712Y150119D01*
X197362Y150963D01*
X196806Y151688D01*
X196081Y152244D01*
X195237Y152594D01*
X194331Y152713D01*
D02*
G37*
G36*
X184331D02*
X183425Y152594D01*
X182580Y152244D01*
X181855Y151688D01*
X181299Y150963D01*
X180949Y150119D01*
X180830Y149213D01*
X180949Y148307D01*
X181299Y147462D01*
X181855Y146737D01*
X182580Y146181D01*
X183425Y145831D01*
X184331Y145712D01*
X185237Y145831D01*
X186081Y146181D01*
X186806Y146737D01*
X187363Y147462D01*
X187712Y148307D01*
X187831Y149213D01*
X187712Y150119D01*
X187363Y150963D01*
X186806Y151688D01*
X186081Y152244D01*
X185237Y152594D01*
X184331Y152713D01*
D02*
G37*
G36*
X174331D02*
X173425Y152594D01*
X172580Y152244D01*
X171855Y151688D01*
X171299Y150963D01*
X170949Y150119D01*
X170830Y149213D01*
X170949Y148307D01*
X171299Y147462D01*
X171855Y146737D01*
X172580Y146181D01*
X173425Y145831D01*
X174331Y145712D01*
X175237Y145831D01*
X176081Y146181D01*
X176806Y146737D01*
X177363Y147462D01*
X177712Y148307D01*
X177831Y149213D01*
X177712Y150119D01*
X177363Y150963D01*
X176806Y151688D01*
X176081Y152244D01*
X175237Y152594D01*
X174331Y152713D01*
D02*
G37*
G36*
X164331D02*
X163425Y152594D01*
X162580Y152244D01*
X161855Y151688D01*
X161299Y150963D01*
X160949Y150119D01*
X160830Y149213D01*
X160949Y148307D01*
X161299Y147462D01*
X161855Y146737D01*
X162580Y146181D01*
X163425Y145831D01*
X164331Y145712D01*
X165237Y145831D01*
X166081Y146181D01*
X166806Y146737D01*
X167362Y147462D01*
X167712Y148307D01*
X167832Y149213D01*
X167712Y150119D01*
X167362Y150963D01*
X166806Y151688D01*
X166081Y152244D01*
X165237Y152594D01*
X164331Y152713D01*
D02*
G37*
G36*
X154331D02*
X153425Y152594D01*
X152580Y152244D01*
X151855Y151688D01*
X151299Y150963D01*
X150949Y150119D01*
X150830Y149213D01*
X150949Y148307D01*
X151299Y147462D01*
X151855Y146737D01*
X152580Y146181D01*
X153425Y145831D01*
X154331Y145712D01*
X155237Y145831D01*
X156081Y146181D01*
X156806Y146737D01*
X157362Y147462D01*
X157712Y148307D01*
X157832Y149213D01*
X157712Y150119D01*
X157362Y150963D01*
X156806Y151688D01*
X156081Y152244D01*
X155237Y152594D01*
X154331Y152713D01*
D02*
G37*
G36*
X144331D02*
X143425Y152594D01*
X142580Y152244D01*
X141855Y151688D01*
X141299Y150963D01*
X140949Y150119D01*
X140830Y149213D01*
X140949Y148307D01*
X141299Y147462D01*
X141855Y146737D01*
X142580Y146181D01*
X143425Y145831D01*
X144331Y145712D01*
X145237Y145831D01*
X146081Y146181D01*
X146806Y146737D01*
X147362Y147462D01*
X147712Y148307D01*
X147831Y149213D01*
X147712Y150119D01*
X147362Y150963D01*
X146806Y151688D01*
X146081Y152244D01*
X145237Y152594D01*
X144331Y152713D01*
D02*
G37*
G36*
X134331D02*
X133425Y152594D01*
X132580Y152244D01*
X131855Y151688D01*
X131299Y150963D01*
X130949Y150119D01*
X130830Y149213D01*
X130949Y148307D01*
X131299Y147462D01*
X131855Y146737D01*
X132580Y146181D01*
X133425Y145831D01*
X134331Y145712D01*
X135237Y145831D01*
X136081Y146181D01*
X136806Y146737D01*
X137363Y147462D01*
X137712Y148307D01*
X137831Y149213D01*
X137712Y150119D01*
X137363Y150963D01*
X136806Y151688D01*
X136081Y152244D01*
X135237Y152594D01*
X134331Y152713D01*
D02*
G37*
G36*
X124331D02*
X123425Y152594D01*
X122580Y152244D01*
X121855Y151688D01*
X121299Y150963D01*
X120949Y150119D01*
X120830Y149213D01*
X120949Y148307D01*
X121299Y147462D01*
X121855Y146737D01*
X122580Y146181D01*
X123425Y145831D01*
X124331Y145712D01*
X125237Y145831D01*
X126081Y146181D01*
X126806Y146737D01*
X127363Y147462D01*
X127712Y148307D01*
X127831Y149213D01*
X127712Y150119D01*
X127363Y150963D01*
X126806Y151688D01*
X126081Y152244D01*
X125237Y152594D01*
X124331Y152713D01*
D02*
G37*
G36*
X114331D02*
X113425Y152594D01*
X112580Y152244D01*
X111855Y151688D01*
X111299Y150963D01*
X110949Y150119D01*
X110830Y149213D01*
X110949Y148307D01*
X111299Y147462D01*
X111855Y146737D01*
X112580Y146181D01*
X113425Y145831D01*
X114331Y145712D01*
X115237Y145831D01*
X116081Y146181D01*
X116806Y146737D01*
X117362Y147462D01*
X117712Y148307D01*
X117832Y149213D01*
X117712Y150119D01*
X117362Y150963D01*
X116806Y151688D01*
X116081Y152244D01*
X115237Y152594D01*
X114331Y152713D01*
D02*
G37*
G36*
X104331D02*
X103425Y152594D01*
X102580Y152244D01*
X101855Y151688D01*
X101299Y150963D01*
X100949Y150119D01*
X100830Y149213D01*
X100949Y148307D01*
X101299Y147462D01*
X101855Y146737D01*
X102580Y146181D01*
X103425Y145831D01*
X104331Y145712D01*
X105237Y145831D01*
X106081Y146181D01*
X106806Y146737D01*
X107362Y147462D01*
X107712Y148307D01*
X107832Y149213D01*
X107712Y150119D01*
X107362Y150963D01*
X106806Y151688D01*
X106081Y152244D01*
X105237Y152594D01*
X104331Y152713D01*
D02*
G37*
G36*
X94331D02*
X93425Y152594D01*
X92580Y152244D01*
X91855Y151688D01*
X91299Y150963D01*
X90949Y150119D01*
X90830Y149213D01*
X90949Y148307D01*
X91299Y147462D01*
X91855Y146737D01*
X92580Y146181D01*
X93425Y145831D01*
X94331Y145712D01*
X95237Y145831D01*
X96081Y146181D01*
X96806Y146737D01*
X97363Y147462D01*
X97712Y148307D01*
X97831Y149213D01*
X97712Y150119D01*
X97363Y150963D01*
X96806Y151688D01*
X96081Y152244D01*
X95237Y152594D01*
X94331Y152713D01*
D02*
G37*
G36*
X84331D02*
X83425Y152594D01*
X82580Y152244D01*
X81855Y151688D01*
X81299Y150963D01*
X80949Y150119D01*
X80830Y149213D01*
X80949Y148307D01*
X81299Y147462D01*
X81855Y146737D01*
X82580Y146181D01*
X83425Y145831D01*
X84331Y145712D01*
X85237Y145831D01*
X86081Y146181D01*
X86806Y146737D01*
X87362Y147462D01*
X87712Y148307D01*
X87831Y149213D01*
X87712Y150119D01*
X87362Y150963D01*
X86806Y151688D01*
X86081Y152244D01*
X85237Y152594D01*
X84331Y152713D01*
D02*
G37*
G36*
X74331D02*
X73425Y152594D01*
X72580Y152244D01*
X71855Y151688D01*
X71299Y150963D01*
X70949Y150119D01*
X70830Y149213D01*
X70949Y148307D01*
X71299Y147462D01*
X71855Y146737D01*
X72580Y146181D01*
X73425Y145831D01*
X74331Y145712D01*
X75237Y145831D01*
X76081Y146181D01*
X76806Y146737D01*
X77363Y147462D01*
X77712Y148307D01*
X77832Y149213D01*
X77712Y150119D01*
X77363Y150963D01*
X76806Y151688D01*
X76081Y152244D01*
X75237Y152594D01*
X74331Y152713D01*
D02*
G37*
G36*
X64331D02*
X63425Y152594D01*
X62580Y152244D01*
X61855Y151688D01*
X61299Y150963D01*
X60949Y150119D01*
X60830Y149213D01*
X60949Y148307D01*
X61299Y147462D01*
X61855Y146737D01*
X62580Y146181D01*
X63425Y145831D01*
X64331Y145712D01*
X65237Y145831D01*
X66081Y146181D01*
X66806Y146737D01*
X67362Y147462D01*
X67712Y148307D01*
X67831Y149213D01*
X67712Y150119D01*
X67362Y150963D01*
X66806Y151688D01*
X66081Y152244D01*
X65237Y152594D01*
X64331Y152713D01*
D02*
G37*
G36*
X54331D02*
X53425Y152594D01*
X52580Y152244D01*
X51855Y151688D01*
X51299Y150963D01*
X50949Y150119D01*
X50830Y149213D01*
X50949Y148307D01*
X51299Y147462D01*
X51855Y146737D01*
X52580Y146181D01*
X53425Y145831D01*
X54331Y145712D01*
X55237Y145831D01*
X56081Y146181D01*
X56806Y146737D01*
X57363Y147462D01*
X57712Y148307D01*
X57832Y149213D01*
X57712Y150119D01*
X57363Y150963D01*
X56806Y151688D01*
X56081Y152244D01*
X55237Y152594D01*
X54331Y152713D01*
D02*
G37*
G36*
X44331D02*
X43425Y152594D01*
X42580Y152244D01*
X41855Y151688D01*
X41299Y150963D01*
X40949Y150119D01*
X40830Y149213D01*
X40949Y148307D01*
X41299Y147462D01*
X41855Y146737D01*
X42580Y146181D01*
X43425Y145831D01*
X44331Y145712D01*
X45237Y145831D01*
X46081Y146181D01*
X46806Y146737D01*
X47363Y147462D01*
X47712Y148307D01*
X47831Y149213D01*
X47712Y150119D01*
X47363Y150963D01*
X46806Y151688D01*
X46081Y152244D01*
X45237Y152594D01*
X44331Y152713D01*
D02*
G37*
G36*
X34331D02*
X33425Y152594D01*
X32580Y152244D01*
X31855Y151688D01*
X31299Y150963D01*
X30949Y150119D01*
X30830Y149213D01*
X30949Y148307D01*
X31299Y147462D01*
X31855Y146737D01*
X32580Y146181D01*
X33425Y145831D01*
X34331Y145712D01*
X35237Y145831D01*
X36081Y146181D01*
X36806Y146737D01*
X37363Y147462D01*
X37712Y148307D01*
X37832Y149213D01*
X37712Y150119D01*
X37363Y150963D01*
X36806Y151688D01*
X36081Y152244D01*
X35237Y152594D01*
X34331Y152713D01*
D02*
G37*
G36*
X383858Y155942D02*
X382622Y155821D01*
X381434Y155460D01*
X380338Y154875D01*
X379378Y154086D01*
X378590Y153126D01*
X378005Y152031D01*
X377644Y150842D01*
X377522Y149606D01*
X377644Y148370D01*
X378005Y147182D01*
X378590Y146086D01*
X379378Y145126D01*
X380338Y144338D01*
X381434Y143753D01*
X382622Y143392D01*
X383858Y143270D01*
X385094Y143392D01*
X386283Y143753D01*
X387378Y144338D01*
X388338Y145126D01*
X389126Y146086D01*
X389712Y147182D01*
X390073Y148370D01*
X390194Y149606D01*
X390073Y150842D01*
X389712Y152031D01*
X389126Y153126D01*
X388338Y154086D01*
X387378Y154875D01*
X386283Y155460D01*
X385094Y155821D01*
X383858Y155942D01*
D02*
G37*
G36*
X320866Y141060D02*
X319960Y140941D01*
X319116Y140591D01*
X318391Y140034D01*
X317834Y139309D01*
X317485Y138465D01*
X317365Y137559D01*
X317485Y136653D01*
X317834Y135809D01*
X318391Y135084D01*
X319116Y134527D01*
X319960Y134177D01*
X320866Y134058D01*
X321772Y134177D01*
X322617Y134527D01*
X323342Y135084D01*
X323898Y135809D01*
X324248Y136653D01*
X324367Y137559D01*
X324248Y138465D01*
X323898Y139309D01*
X323342Y140034D01*
X322617Y140591D01*
X321772Y140941D01*
X320866Y141060D01*
D02*
G37*
G36*
X303150D02*
X302243Y140941D01*
X301399Y140591D01*
X300674Y140034D01*
X300118Y139309D01*
X299768Y138465D01*
X299649Y137559D01*
X299768Y136653D01*
X300118Y135809D01*
X300674Y135084D01*
X301399Y134527D01*
X302243Y134177D01*
X303150Y134058D01*
X304056Y134177D01*
X304900Y134527D01*
X305625Y135084D01*
X306181Y135809D01*
X306531Y136653D01*
X306650Y137559D01*
X306531Y138465D01*
X306181Y139309D01*
X305625Y140034D01*
X304900Y140591D01*
X304056Y140941D01*
X303150Y141060D01*
D02*
G37*
G36*
X205709D02*
X204803Y140941D01*
X203958Y140591D01*
X203233Y140034D01*
X202677Y139309D01*
X202327Y138465D01*
X202208Y137559D01*
X202327Y136653D01*
X202677Y135809D01*
X203233Y135084D01*
X203958Y134527D01*
X204803Y134177D01*
X205709Y134058D01*
X206615Y134177D01*
X207459Y134527D01*
X208184Y135084D01*
X208740Y135809D01*
X209090Y136653D01*
X209209Y137559D01*
X209090Y138465D01*
X208740Y139309D01*
X208184Y140034D01*
X207459Y140591D01*
X206615Y140941D01*
X205709Y141060D01*
D02*
G37*
G36*
X187992D02*
X187086Y140941D01*
X186242Y140591D01*
X185517Y140034D01*
X184960Y139309D01*
X184611Y138465D01*
X184491Y137559D01*
X184611Y136653D01*
X184960Y135809D01*
X185517Y135084D01*
X186242Y134527D01*
X187086Y134177D01*
X187992Y134058D01*
X188898Y134177D01*
X189743Y134527D01*
X190468Y135084D01*
X191024Y135809D01*
X191374Y136653D01*
X191493Y137559D01*
X191374Y138465D01*
X191024Y139309D01*
X190468Y140034D01*
X189743Y140591D01*
X188898Y140941D01*
X187992Y141060D01*
D02*
G37*
G36*
X90551D02*
X89645Y140941D01*
X88801Y140591D01*
X88076Y140034D01*
X87519Y139309D01*
X87170Y138465D01*
X87050Y137559D01*
X87170Y136653D01*
X87519Y135809D01*
X88076Y135084D01*
X88801Y134527D01*
X89645Y134177D01*
X90551Y134058D01*
X91457Y134177D01*
X92302Y134527D01*
X93027Y135084D01*
X93583Y135809D01*
X93933Y136653D01*
X94052Y137559D01*
X93933Y138465D01*
X93583Y139309D01*
X93027Y140034D01*
X92302Y140591D01*
X91457Y140941D01*
X90551Y141060D01*
D02*
G37*
G36*
X72835D02*
X71929Y140941D01*
X71084Y140591D01*
X70359Y140034D01*
X69803Y139309D01*
X69453Y138465D01*
X69334Y137559D01*
X69453Y136653D01*
X69803Y135809D01*
X70359Y135084D01*
X71084Y134527D01*
X71929Y134177D01*
X72835Y134058D01*
X73741Y134177D01*
X74585Y134527D01*
X75310Y135084D01*
X75866Y135809D01*
X76216Y136653D01*
X76336Y137559D01*
X76216Y138465D01*
X75866Y139309D01*
X75310Y140034D01*
X74585Y140591D01*
X73741Y140941D01*
X72835Y141060D01*
D02*
G37*
G36*
X273350Y115443D02*
Y112169D01*
X276624D01*
X276531Y112875D01*
X276181Y113719D01*
X275625Y114444D01*
X274900Y115000D01*
X274056Y115350D01*
X273350Y115443D01*
D02*
G37*
G36*
X272950D02*
X272243Y115350D01*
X271399Y115000D01*
X270674Y114444D01*
X270118Y113719D01*
X269768Y112875D01*
X269675Y112169D01*
X272950D01*
Y115443D01*
D02*
G37*
G36*
X324337Y115439D02*
X317395D01*
Y108498D01*
X324337D01*
Y115439D01*
D02*
G37*
G36*
X209179D02*
X202238D01*
Y108498D01*
X209179D01*
Y115439D01*
D02*
G37*
G36*
X94022D02*
X87080D01*
Y108498D01*
X94022D01*
Y115439D01*
D02*
G37*
G36*
X272950Y111768D02*
X269675D01*
X269768Y111062D01*
X270118Y110218D01*
X270674Y109493D01*
X271399Y108937D01*
X272243Y108587D01*
X272950Y108494D01*
Y111768D01*
D02*
G37*
G36*
X276624D02*
X273350D01*
Y108494D01*
X274056Y108587D01*
X274900Y108937D01*
X275625Y109493D01*
X276181Y110218D01*
X276531Y111062D01*
X276624Y111768D01*
D02*
G37*
G36*
X303150Y115469D02*
X302243Y115350D01*
X301399Y115000D01*
X300674Y114444D01*
X300118Y113719D01*
X299768Y112875D01*
X299649Y111969D01*
X299768Y111062D01*
X300118Y110218D01*
X300674Y109493D01*
X301399Y108937D01*
X302243Y108587D01*
X303150Y108468D01*
X304056Y108587D01*
X304900Y108937D01*
X305625Y109493D01*
X306181Y110218D01*
X306531Y111062D01*
X306650Y111969D01*
X306531Y112875D01*
X306181Y113719D01*
X305625Y114444D01*
X304900Y115000D01*
X304056Y115350D01*
X303150Y115469D01*
D02*
G37*
G36*
X293150D02*
X292244Y115350D01*
X291399Y115000D01*
X290674Y114444D01*
X290118Y113719D01*
X289768Y112875D01*
X289649Y111969D01*
X289768Y111062D01*
X290118Y110218D01*
X290674Y109493D01*
X291399Y108937D01*
X292244Y108587D01*
X293150Y108468D01*
X294056Y108587D01*
X294900Y108937D01*
X295625Y109493D01*
X296181Y110218D01*
X296531Y111062D01*
X296650Y111969D01*
X296531Y112875D01*
X296181Y113719D01*
X295625Y114444D01*
X294900Y115000D01*
X294056Y115350D01*
X293150Y115469D01*
D02*
G37*
G36*
X283150D02*
X282243Y115350D01*
X281399Y115000D01*
X280674Y114444D01*
X280118Y113719D01*
X279768Y112875D01*
X279649Y111969D01*
X279768Y111062D01*
X280118Y110218D01*
X280674Y109493D01*
X281399Y108937D01*
X282243Y108587D01*
X283150Y108468D01*
X284056Y108587D01*
X284900Y108937D01*
X285625Y109493D01*
X286181Y110218D01*
X286531Y111062D01*
X286650Y111969D01*
X286531Y112875D01*
X286181Y113719D01*
X285625Y114444D01*
X284900Y115000D01*
X284056Y115350D01*
X283150Y115469D01*
D02*
G37*
G36*
X263150D02*
X262244Y115350D01*
X261399Y115000D01*
X260674Y114444D01*
X260118Y113719D01*
X259768Y112875D01*
X259649Y111969D01*
X259768Y111062D01*
X260118Y110218D01*
X260674Y109493D01*
X261399Y108937D01*
X262244Y108587D01*
X263150Y108468D01*
X264056Y108587D01*
X264900Y108937D01*
X265625Y109493D01*
X266181Y110218D01*
X266531Y111062D01*
X266650Y111969D01*
X266531Y112875D01*
X266181Y113719D01*
X265625Y114444D01*
X264900Y115000D01*
X264056Y115350D01*
X263150Y115469D01*
D02*
G37*
G36*
X253150D02*
X252243Y115350D01*
X251399Y115000D01*
X250674Y114444D01*
X250118Y113719D01*
X249768Y112875D01*
X249649Y111969D01*
X249768Y111062D01*
X250118Y110218D01*
X250674Y109493D01*
X251399Y108937D01*
X252243Y108587D01*
X253150Y108468D01*
X254056Y108587D01*
X254900Y108937D01*
X255625Y109493D01*
X256181Y110218D01*
X256531Y111062D01*
X256650Y111969D01*
X256531Y112875D01*
X256181Y113719D01*
X255625Y114444D01*
X254900Y115000D01*
X254056Y115350D01*
X253150Y115469D01*
D02*
G37*
G36*
X243150D02*
X242244Y115350D01*
X241399Y115000D01*
X240674Y114444D01*
X240118Y113719D01*
X239768Y112875D01*
X239649Y111969D01*
X239768Y111062D01*
X240118Y110218D01*
X240674Y109493D01*
X241399Y108937D01*
X242244Y108587D01*
X243150Y108468D01*
X244056Y108587D01*
X244900Y108937D01*
X245625Y109493D01*
X246181Y110218D01*
X246531Y111062D01*
X246650Y111969D01*
X246531Y112875D01*
X246181Y113719D01*
X245625Y114444D01*
X244900Y115000D01*
X244056Y115350D01*
X243150Y115469D01*
D02*
G37*
G36*
X187992D02*
X187086Y115350D01*
X186242Y115000D01*
X185517Y114444D01*
X184960Y113719D01*
X184611Y112875D01*
X184491Y111969D01*
X184611Y111062D01*
X184960Y110218D01*
X185517Y109493D01*
X186242Y108937D01*
X187086Y108587D01*
X187992Y108468D01*
X188898Y108587D01*
X189743Y108937D01*
X190468Y109493D01*
X191024Y110218D01*
X191374Y111062D01*
X191493Y111969D01*
X191374Y112875D01*
X191024Y113719D01*
X190468Y114444D01*
X189743Y115000D01*
X188898Y115350D01*
X187992Y115469D01*
D02*
G37*
G36*
X72835D02*
X71929Y115350D01*
X71084Y115000D01*
X70359Y114444D01*
X69803Y113719D01*
X69453Y112875D01*
X69334Y111969D01*
X69453Y111062D01*
X69803Y110218D01*
X70359Y109493D01*
X71084Y108937D01*
X71929Y108587D01*
X72835Y108468D01*
X73741Y108587D01*
X74585Y108937D01*
X75310Y109493D01*
X75866Y110218D01*
X76216Y111062D01*
X76336Y111969D01*
X76216Y112875D01*
X75866Y113719D01*
X75310Y114444D01*
X74585Y115000D01*
X73741Y115350D01*
X72835Y115469D01*
D02*
G37*
G36*
X324626Y104854D02*
X323879Y104755D01*
X323183Y104467D01*
X322586Y104009D01*
X322127Y103411D01*
X321839Y102715D01*
X321741Y101969D01*
X321839Y101222D01*
X322127Y100526D01*
X322586Y99928D01*
X323183Y99470D01*
X323879Y99181D01*
X324626Y99083D01*
X325373Y99181D01*
X326069Y99470D01*
X326666Y99928D01*
X327125Y100526D01*
X327413Y101222D01*
X327511Y101969D01*
X327413Y102715D01*
X327125Y103411D01*
X326666Y104009D01*
X326069Y104467D01*
X325373Y104755D01*
X324626Y104854D01*
D02*
G37*
G36*
X314626D02*
X313879Y104755D01*
X313183Y104467D01*
X312586Y104009D01*
X312127Y103411D01*
X311839Y102715D01*
X311741Y101969D01*
X311839Y101222D01*
X312127Y100526D01*
X312586Y99928D01*
X313183Y99470D01*
X313879Y99181D01*
X314626Y99083D01*
X315373Y99181D01*
X316069Y99470D01*
X316666Y99928D01*
X317125Y100526D01*
X317413Y101222D01*
X317511Y101969D01*
X317413Y102715D01*
X317125Y103411D01*
X316666Y104009D01*
X316069Y104467D01*
X315373Y104755D01*
X314626Y104854D01*
D02*
G37*
G36*
X208819D02*
X208072Y104755D01*
X207376Y104467D01*
X206779Y104009D01*
X206320Y103411D01*
X206032Y102715D01*
X205934Y101969D01*
X206032Y101222D01*
X206320Y100526D01*
X206779Y99928D01*
X207376Y99470D01*
X208072Y99181D01*
X208819Y99083D01*
X209566Y99181D01*
X210262Y99470D01*
X210859Y99928D01*
X211318Y100526D01*
X211606Y101222D01*
X211704Y101969D01*
X211606Y102715D01*
X211318Y103411D01*
X210859Y104009D01*
X210262Y104467D01*
X209566Y104755D01*
X208819Y104854D01*
D02*
G37*
G36*
X198819D02*
X198072Y104755D01*
X197376Y104467D01*
X196779Y104009D01*
X196320Y103411D01*
X196032Y102715D01*
X195934Y101969D01*
X196032Y101222D01*
X196320Y100526D01*
X196779Y99928D01*
X197376Y99470D01*
X198072Y99181D01*
X198819Y99083D01*
X199566Y99181D01*
X200262Y99470D01*
X200859Y99928D01*
X201318Y100526D01*
X201606Y101222D01*
X201704Y101969D01*
X201606Y102715D01*
X201318Y103411D01*
X200859Y104009D01*
X200262Y104467D01*
X199566Y104755D01*
X198819Y104854D01*
D02*
G37*
G36*
X94468D02*
X93722Y104755D01*
X93026Y104467D01*
X92428Y104009D01*
X91970Y103411D01*
X91681Y102715D01*
X91583Y101969D01*
X91681Y101222D01*
X91970Y100526D01*
X92428Y99928D01*
X93026Y99470D01*
X93722Y99181D01*
X94468Y99083D01*
X95215Y99181D01*
X95911Y99470D01*
X96509Y99928D01*
X96967Y100526D01*
X97255Y101222D01*
X97354Y101969D01*
X97255Y102715D01*
X96967Y103411D01*
X96509Y104009D01*
X95911Y104467D01*
X95215Y104755D01*
X94468Y104854D01*
D02*
G37*
G36*
X84469D02*
X83722Y104755D01*
X83026Y104467D01*
X82428Y104009D01*
X81970Y103411D01*
X81682Y102715D01*
X81583Y101969D01*
X81682Y101222D01*
X81970Y100526D01*
X82428Y99928D01*
X83026Y99470D01*
X83722Y99181D01*
X84469Y99083D01*
X85215Y99181D01*
X85911Y99470D01*
X86509Y99928D01*
X86967Y100526D01*
X87256Y101222D01*
X87354Y101969D01*
X87256Y102715D01*
X86967Y103411D01*
X86509Y104009D01*
X85911Y104467D01*
X85215Y104755D01*
X84469Y104854D01*
D02*
G37*
G36*
X304626Y94854D02*
X303879Y94756D01*
X303183Y94467D01*
X302586Y94009D01*
X302127Y93411D01*
X301839Y92715D01*
X301741Y91969D01*
X301839Y91222D01*
X302127Y90526D01*
X302586Y89928D01*
X303183Y89470D01*
X303879Y89182D01*
X304626Y89083D01*
X305373Y89182D01*
X306069Y89470D01*
X306666Y89928D01*
X307125Y90526D01*
X307413Y91222D01*
X307511Y91969D01*
X307413Y92715D01*
X307125Y93411D01*
X306666Y94009D01*
X306069Y94467D01*
X305373Y94756D01*
X304626Y94854D01*
D02*
G37*
G36*
X188819D02*
X188072Y94756D01*
X187376Y94467D01*
X186779Y94009D01*
X186320Y93411D01*
X186032Y92715D01*
X185934Y91969D01*
X186032Y91222D01*
X186320Y90526D01*
X186779Y89928D01*
X187376Y89470D01*
X188072Y89182D01*
X188819Y89083D01*
X189566Y89182D01*
X190262Y89470D01*
X190859Y89928D01*
X191318Y90526D01*
X191606Y91222D01*
X191704Y91969D01*
X191606Y92715D01*
X191318Y93411D01*
X190859Y94009D01*
X190262Y94467D01*
X189566Y94756D01*
X188819Y94854D01*
D02*
G37*
G36*
X74468D02*
X73722Y94756D01*
X73026Y94467D01*
X72428Y94009D01*
X71970Y93411D01*
X71681Y92715D01*
X71583Y91969D01*
X71681Y91222D01*
X71970Y90526D01*
X72428Y89928D01*
X73026Y89470D01*
X73722Y89182D01*
X74468Y89083D01*
X75215Y89182D01*
X75911Y89470D01*
X76509Y89928D01*
X76967Y90526D01*
X77255Y91222D01*
X77354Y91969D01*
X77255Y92715D01*
X76967Y93411D01*
X76509Y94009D01*
X75911Y94467D01*
X75215Y94756D01*
X74468Y94854D01*
D02*
G37*
G36*
X209019Y74827D02*
Y72168D01*
X211678D01*
X211606Y72715D01*
X211318Y73411D01*
X210859Y74009D01*
X210262Y74467D01*
X209566Y74756D01*
X209019Y74827D01*
D02*
G37*
G36*
X94669D02*
Y72168D01*
X97328D01*
X97255Y72715D01*
X96967Y73411D01*
X96509Y74009D01*
X95911Y74467D01*
X95215Y74756D01*
X94669Y74827D01*
D02*
G37*
G36*
X94269D02*
X93722Y74756D01*
X93026Y74467D01*
X92428Y74009D01*
X91970Y73411D01*
X91681Y72715D01*
X91610Y72168D01*
X94269D01*
Y74827D01*
D02*
G37*
G36*
X208619D02*
X208072Y74756D01*
X207376Y74467D01*
X206779Y74009D01*
X206320Y73411D01*
X206032Y72715D01*
X205960Y72168D01*
X208619D01*
Y74827D01*
D02*
G37*
G36*
X324826D02*
Y72168D01*
X327485D01*
X327413Y72715D01*
X327125Y73411D01*
X326666Y74009D01*
X326069Y74467D01*
X325373Y74756D01*
X324826Y74827D01*
D02*
G37*
G36*
X324426D02*
X323879Y74756D01*
X323183Y74467D01*
X322586Y74009D01*
X322127Y73411D01*
X321839Y72715D01*
X321767Y72168D01*
X324426D01*
Y74827D01*
D02*
G37*
G36*
X327485Y71768D02*
X324826D01*
Y69109D01*
X325373Y69182D01*
X326069Y69470D01*
X326666Y69928D01*
X327125Y70526D01*
X327413Y71222D01*
X327485Y71768D01*
D02*
G37*
G36*
X211678Y71768D02*
X209019D01*
Y69109D01*
X209566Y69182D01*
X210262Y69470D01*
X210859Y69928D01*
X211318Y70526D01*
X211606Y71222D01*
X211678Y71768D01*
D02*
G37*
G36*
X97328D02*
X94669D01*
Y69109D01*
X95215Y69182D01*
X95911Y69470D01*
X96509Y69928D01*
X96967Y70526D01*
X97255Y71222D01*
X97328Y71768D01*
D02*
G37*
G36*
X94269D02*
X91610D01*
X91681Y71222D01*
X91970Y70526D01*
X92428Y69928D01*
X93026Y69470D01*
X93722Y69182D01*
X94269Y69109D01*
Y71768D01*
D02*
G37*
G36*
X208619D02*
X205960D01*
X206032Y71222D01*
X206320Y70526D01*
X206779Y69928D01*
X207376Y69470D01*
X208072Y69182D01*
X208619Y69109D01*
Y71768D01*
D02*
G37*
G36*
X324426Y71768D02*
X321767D01*
X321839Y71222D01*
X322127Y70526D01*
X322586Y69928D01*
X323183Y69470D01*
X323879Y69182D01*
X324426Y69109D01*
Y71768D01*
D02*
G37*
G36*
X314626Y74854D02*
X313879Y74756D01*
X313183Y74467D01*
X312586Y74009D01*
X312127Y73411D01*
X311839Y72715D01*
X311741Y71969D01*
X311839Y71222D01*
X312127Y70526D01*
X312586Y69928D01*
X313183Y69470D01*
X313879Y69182D01*
X314626Y69083D01*
X315373Y69182D01*
X316069Y69470D01*
X316666Y69928D01*
X317125Y70526D01*
X317413Y71222D01*
X317511Y71969D01*
X317413Y72715D01*
X317125Y73411D01*
X316666Y74009D01*
X316069Y74467D01*
X315373Y74756D01*
X314626Y74854D01*
D02*
G37*
G36*
X198819D02*
X198072Y74756D01*
X197376Y74467D01*
X196779Y74009D01*
X196320Y73411D01*
X196032Y72715D01*
X195934Y71969D01*
X196032Y71222D01*
X196320Y70526D01*
X196779Y69928D01*
X197376Y69470D01*
X198072Y69182D01*
X198819Y69083D01*
X199566Y69182D01*
X200262Y69470D01*
X200859Y69928D01*
X201318Y70526D01*
X201606Y71222D01*
X201704Y71969D01*
X201606Y72715D01*
X201318Y73411D01*
X200859Y74009D01*
X200262Y74467D01*
X199566Y74756D01*
X198819Y74854D01*
D02*
G37*
G36*
X84469D02*
X83722Y74756D01*
X83026Y74467D01*
X82428Y74009D01*
X81970Y73411D01*
X81682Y72715D01*
X81583Y71969D01*
X81682Y71222D01*
X81970Y70526D01*
X82428Y69928D01*
X83026Y69470D01*
X83722Y69182D01*
X84469Y69083D01*
X85215Y69182D01*
X85911Y69470D01*
X86509Y69928D01*
X86967Y70526D01*
X87256Y71222D01*
X87354Y71969D01*
X87256Y72715D01*
X86967Y73411D01*
X86509Y74009D01*
X85911Y74467D01*
X85215Y74756D01*
X84469Y74854D01*
D02*
G37*
G36*
X304659Y74819D02*
X303912Y74720D01*
X303217Y74432D01*
X302619Y73974D01*
X302161Y73376D01*
X301872Y72680D01*
X301774Y71933D01*
X301872Y71187D01*
X302161Y70491D01*
X302619Y69893D01*
X303217Y69435D01*
X303912Y69146D01*
X304659Y69048D01*
X305406Y69146D01*
X306102Y69435D01*
X306699Y69893D01*
X307158Y70491D01*
X307446Y71187D01*
X307545Y71933D01*
X307446Y72680D01*
X307158Y73376D01*
X306699Y73974D01*
X306102Y74432D01*
X305406Y74720D01*
X304659Y74819D01*
D02*
G37*
G36*
X188852D02*
X188105Y74720D01*
X187409Y74432D01*
X186812Y73974D01*
X186353Y73376D01*
X186065Y72680D01*
X185967Y71933D01*
X186065Y71187D01*
X186353Y70491D01*
X186812Y69893D01*
X187409Y69435D01*
X188105Y69146D01*
X188852Y69048D01*
X189599Y69146D01*
X190295Y69435D01*
X190892Y69893D01*
X191351Y70491D01*
X191639Y71187D01*
X191737Y71933D01*
X191639Y72680D01*
X191351Y73376D01*
X190892Y73974D01*
X190295Y74432D01*
X189599Y74720D01*
X188852Y74819D01*
D02*
G37*
G36*
X74502D02*
X73755Y74720D01*
X73059Y74432D01*
X72462Y73974D01*
X72003Y73376D01*
X71715Y72680D01*
X71617Y71933D01*
X71715Y71187D01*
X72003Y70491D01*
X72462Y69893D01*
X73059Y69435D01*
X73755Y69146D01*
X74502Y69048D01*
X75249Y69146D01*
X75944Y69435D01*
X76542Y69893D01*
X77000Y70491D01*
X77289Y71187D01*
X77387Y71933D01*
X77289Y72680D01*
X77000Y73376D01*
X76542Y73974D01*
X75944Y74432D01*
X75249Y74720D01*
X74502Y74819D01*
D02*
G37*
G36*
X374016Y98875D02*
X371482Y98676D01*
X369010Y98082D01*
X366662Y97110D01*
X364495Y95782D01*
X362562Y94131D01*
X360911Y92198D01*
X359583Y90031D01*
X358611Y87683D01*
X358017Y85211D01*
X357818Y82677D01*
X358017Y80143D01*
X358611Y77672D01*
X359583Y75323D01*
X360911Y73156D01*
X362562Y71223D01*
X364495Y69573D01*
X366662Y68245D01*
X369010Y67272D01*
X371482Y66679D01*
X374016Y66479D01*
X376550Y66679D01*
X379021Y67272D01*
X381369Y68245D01*
X383537Y69573D01*
X385469Y71223D01*
X387120Y73156D01*
X388448Y75323D01*
X389421Y77672D01*
X390014Y80143D01*
X390214Y82677D01*
X390014Y85211D01*
X389421Y87683D01*
X388448Y90031D01*
X387120Y92198D01*
X385469Y94131D01*
X383537Y95782D01*
X381369Y97110D01*
X379021Y98082D01*
X376550Y98676D01*
X374016Y98875D01*
D02*
G37*
G36*
X316929Y65877D02*
X316182Y65779D01*
X315487Y65491D01*
X314889Y65032D01*
X314430Y64435D01*
X314142Y63739D01*
X314044Y62992D01*
X314142Y62245D01*
X314430Y61550D01*
X314889Y60952D01*
X315487Y60493D01*
X316182Y60205D01*
X316929Y60107D01*
X317676Y60205D01*
X318372Y60493D01*
X318969Y60952D01*
X319428Y61550D01*
X319716Y62245D01*
X319814Y62992D01*
X319716Y63739D01*
X319428Y64435D01*
X318969Y65032D01*
X318372Y65491D01*
X317676Y65779D01*
X316929Y65877D01*
D02*
G37*
G36*
X37802Y52684D02*
X34531D01*
Y49413D01*
X37802D01*
Y52684D01*
D02*
G37*
G36*
X34131D02*
X30860D01*
Y49413D01*
X34131D01*
Y52684D01*
D02*
G37*
G36*
X37802Y49013D02*
X34531D01*
Y45742D01*
X37802D01*
Y49013D01*
D02*
G37*
G36*
X34131D02*
X30860D01*
Y45742D01*
X34131D01*
Y49013D01*
D02*
G37*
G36*
X204331Y52713D02*
X203425Y52594D01*
X202580Y52244D01*
X201855Y51688D01*
X201299Y50963D01*
X200949Y50119D01*
X200830Y49213D01*
X200949Y48307D01*
X201299Y47462D01*
X201855Y46737D01*
X202580Y46181D01*
X203425Y45831D01*
X204331Y45712D01*
X205237Y45831D01*
X206081Y46181D01*
X206806Y46737D01*
X207363Y47462D01*
X207712Y48307D01*
X207832Y49213D01*
X207712Y50119D01*
X207363Y50963D01*
X206806Y51688D01*
X206081Y52244D01*
X205237Y52594D01*
X204331Y52713D01*
D02*
G37*
G36*
X194331D02*
X193425Y52594D01*
X192580Y52244D01*
X191855Y51688D01*
X191299Y50963D01*
X190949Y50119D01*
X190830Y49213D01*
X190949Y48307D01*
X191299Y47462D01*
X191855Y46737D01*
X192580Y46181D01*
X193425Y45831D01*
X194331Y45712D01*
X195237Y45831D01*
X196081Y46181D01*
X196806Y46737D01*
X197362Y47462D01*
X197712Y48307D01*
X197831Y49213D01*
X197712Y50119D01*
X197362Y50963D01*
X196806Y51688D01*
X196081Y52244D01*
X195237Y52594D01*
X194331Y52713D01*
D02*
G37*
G36*
X184331D02*
X183425Y52594D01*
X182580Y52244D01*
X181855Y51688D01*
X181299Y50963D01*
X180949Y50119D01*
X180830Y49213D01*
X180949Y48307D01*
X181299Y47462D01*
X181855Y46737D01*
X182580Y46181D01*
X183425Y45831D01*
X184331Y45712D01*
X185237Y45831D01*
X186081Y46181D01*
X186806Y46737D01*
X187363Y47462D01*
X187712Y48307D01*
X187831Y49213D01*
X187712Y50119D01*
X187363Y50963D01*
X186806Y51688D01*
X186081Y52244D01*
X185237Y52594D01*
X184331Y52713D01*
D02*
G37*
G36*
X174331D02*
X173425Y52594D01*
X172580Y52244D01*
X171855Y51688D01*
X171299Y50963D01*
X170949Y50119D01*
X170830Y49213D01*
X170949Y48307D01*
X171299Y47462D01*
X171855Y46737D01*
X172580Y46181D01*
X173425Y45831D01*
X174331Y45712D01*
X175237Y45831D01*
X176081Y46181D01*
X176806Y46737D01*
X177363Y47462D01*
X177712Y48307D01*
X177831Y49213D01*
X177712Y50119D01*
X177363Y50963D01*
X176806Y51688D01*
X176081Y52244D01*
X175237Y52594D01*
X174331Y52713D01*
D02*
G37*
G36*
X164331D02*
X163425Y52594D01*
X162580Y52244D01*
X161855Y51688D01*
X161299Y50963D01*
X160949Y50119D01*
X160830Y49213D01*
X160949Y48307D01*
X161299Y47462D01*
X161855Y46737D01*
X162580Y46181D01*
X163425Y45831D01*
X164331Y45712D01*
X165237Y45831D01*
X166081Y46181D01*
X166806Y46737D01*
X167362Y47462D01*
X167712Y48307D01*
X167832Y49213D01*
X167712Y50119D01*
X167362Y50963D01*
X166806Y51688D01*
X166081Y52244D01*
X165237Y52594D01*
X164331Y52713D01*
D02*
G37*
G36*
X154331D02*
X153425Y52594D01*
X152580Y52244D01*
X151855Y51688D01*
X151299Y50963D01*
X150949Y50119D01*
X150830Y49213D01*
X150949Y48307D01*
X151299Y47462D01*
X151855Y46737D01*
X152580Y46181D01*
X153425Y45831D01*
X154331Y45712D01*
X155237Y45831D01*
X156081Y46181D01*
X156806Y46737D01*
X157362Y47462D01*
X157712Y48307D01*
X157832Y49213D01*
X157712Y50119D01*
X157362Y50963D01*
X156806Y51688D01*
X156081Y52244D01*
X155237Y52594D01*
X154331Y52713D01*
D02*
G37*
G36*
X144331D02*
X143425Y52594D01*
X142580Y52244D01*
X141855Y51688D01*
X141299Y50963D01*
X140949Y50119D01*
X140830Y49213D01*
X140949Y48307D01*
X141299Y47462D01*
X141855Y46737D01*
X142580Y46181D01*
X143425Y45831D01*
X144331Y45712D01*
X145237Y45831D01*
X146081Y46181D01*
X146806Y46737D01*
X147362Y47462D01*
X147712Y48307D01*
X147831Y49213D01*
X147712Y50119D01*
X147362Y50963D01*
X146806Y51688D01*
X146081Y52244D01*
X145237Y52594D01*
X144331Y52713D01*
D02*
G37*
G36*
X134331D02*
X133425Y52594D01*
X132580Y52244D01*
X131855Y51688D01*
X131299Y50963D01*
X130949Y50119D01*
X130830Y49213D01*
X130949Y48307D01*
X131299Y47462D01*
X131855Y46737D01*
X132580Y46181D01*
X133425Y45831D01*
X134331Y45712D01*
X135237Y45831D01*
X136081Y46181D01*
X136806Y46737D01*
X137363Y47462D01*
X137712Y48307D01*
X137831Y49213D01*
X137712Y50119D01*
X137363Y50963D01*
X136806Y51688D01*
X136081Y52244D01*
X135237Y52594D01*
X134331Y52713D01*
D02*
G37*
G36*
X124331D02*
X123425Y52594D01*
X122580Y52244D01*
X121855Y51688D01*
X121299Y50963D01*
X120949Y50119D01*
X120830Y49213D01*
X120949Y48307D01*
X121299Y47462D01*
X121855Y46737D01*
X122580Y46181D01*
X123425Y45831D01*
X124331Y45712D01*
X125237Y45831D01*
X126081Y46181D01*
X126806Y46737D01*
X127363Y47462D01*
X127712Y48307D01*
X127831Y49213D01*
X127712Y50119D01*
X127363Y50963D01*
X126806Y51688D01*
X126081Y52244D01*
X125237Y52594D01*
X124331Y52713D01*
D02*
G37*
G36*
X114331D02*
X113425Y52594D01*
X112580Y52244D01*
X111855Y51688D01*
X111299Y50963D01*
X110949Y50119D01*
X110830Y49213D01*
X110949Y48307D01*
X111299Y47462D01*
X111855Y46737D01*
X112580Y46181D01*
X113425Y45831D01*
X114331Y45712D01*
X115237Y45831D01*
X116081Y46181D01*
X116806Y46737D01*
X117362Y47462D01*
X117712Y48307D01*
X117832Y49213D01*
X117712Y50119D01*
X117362Y50963D01*
X116806Y51688D01*
X116081Y52244D01*
X115237Y52594D01*
X114331Y52713D01*
D02*
G37*
G36*
X104331D02*
X103425Y52594D01*
X102580Y52244D01*
X101855Y51688D01*
X101299Y50963D01*
X100949Y50119D01*
X100830Y49213D01*
X100949Y48307D01*
X101299Y47462D01*
X101855Y46737D01*
X102580Y46181D01*
X103425Y45831D01*
X104331Y45712D01*
X105237Y45831D01*
X106081Y46181D01*
X106806Y46737D01*
X107362Y47462D01*
X107712Y48307D01*
X107832Y49213D01*
X107712Y50119D01*
X107362Y50963D01*
X106806Y51688D01*
X106081Y52244D01*
X105237Y52594D01*
X104331Y52713D01*
D02*
G37*
G36*
X94331D02*
X93425Y52594D01*
X92580Y52244D01*
X91855Y51688D01*
X91299Y50963D01*
X90949Y50119D01*
X90830Y49213D01*
X90949Y48307D01*
X91299Y47462D01*
X91855Y46737D01*
X92580Y46181D01*
X93425Y45831D01*
X94331Y45712D01*
X95237Y45831D01*
X96081Y46181D01*
X96806Y46737D01*
X97363Y47462D01*
X97712Y48307D01*
X97831Y49213D01*
X97712Y50119D01*
X97363Y50963D01*
X96806Y51688D01*
X96081Y52244D01*
X95237Y52594D01*
X94331Y52713D01*
D02*
G37*
G36*
X84331D02*
X83425Y52594D01*
X82580Y52244D01*
X81855Y51688D01*
X81299Y50963D01*
X80949Y50119D01*
X80830Y49213D01*
X80949Y48307D01*
X81299Y47462D01*
X81855Y46737D01*
X82580Y46181D01*
X83425Y45831D01*
X84331Y45712D01*
X85237Y45831D01*
X86081Y46181D01*
X86806Y46737D01*
X87362Y47462D01*
X87712Y48307D01*
X87831Y49213D01*
X87712Y50119D01*
X87362Y50963D01*
X86806Y51688D01*
X86081Y52244D01*
X85237Y52594D01*
X84331Y52713D01*
D02*
G37*
G36*
X74331D02*
X73425Y52594D01*
X72580Y52244D01*
X71855Y51688D01*
X71299Y50963D01*
X70949Y50119D01*
X70830Y49213D01*
X70949Y48307D01*
X71299Y47462D01*
X71855Y46737D01*
X72580Y46181D01*
X73425Y45831D01*
X74331Y45712D01*
X75237Y45831D01*
X76081Y46181D01*
X76806Y46737D01*
X77363Y47462D01*
X77712Y48307D01*
X77832Y49213D01*
X77712Y50119D01*
X77363Y50963D01*
X76806Y51688D01*
X76081Y52244D01*
X75237Y52594D01*
X74331Y52713D01*
D02*
G37*
G36*
X64331D02*
X63425Y52594D01*
X62580Y52244D01*
X61855Y51688D01*
X61299Y50963D01*
X60949Y50119D01*
X60830Y49213D01*
X60949Y48307D01*
X61299Y47462D01*
X61855Y46737D01*
X62580Y46181D01*
X63425Y45831D01*
X64331Y45712D01*
X65237Y45831D01*
X66081Y46181D01*
X66806Y46737D01*
X67362Y47462D01*
X67712Y48307D01*
X67831Y49213D01*
X67712Y50119D01*
X67362Y50963D01*
X66806Y51688D01*
X66081Y52244D01*
X65237Y52594D01*
X64331Y52713D01*
D02*
G37*
G36*
X54331D02*
X53425Y52594D01*
X52580Y52244D01*
X51855Y51688D01*
X51299Y50963D01*
X50949Y50119D01*
X50830Y49213D01*
X50949Y48307D01*
X51299Y47462D01*
X51855Y46737D01*
X52580Y46181D01*
X53425Y45831D01*
X54331Y45712D01*
X55237Y45831D01*
X56081Y46181D01*
X56806Y46737D01*
X57363Y47462D01*
X57712Y48307D01*
X57832Y49213D01*
X57712Y50119D01*
X57363Y50963D01*
X56806Y51688D01*
X56081Y52244D01*
X55237Y52594D01*
X54331Y52713D01*
D02*
G37*
G36*
X44331D02*
X43425Y52594D01*
X42580Y52244D01*
X41855Y51688D01*
X41299Y50963D01*
X40949Y50119D01*
X40830Y49213D01*
X40949Y48307D01*
X41299Y47462D01*
X41855Y46737D01*
X42580Y46181D01*
X43425Y45831D01*
X44331Y45712D01*
X45237Y45831D01*
X46081Y46181D01*
X46806Y46737D01*
X47363Y47462D01*
X47712Y48307D01*
X47831Y49213D01*
X47712Y50119D01*
X47363Y50963D01*
X46806Y51688D01*
X46081Y52244D01*
X45237Y52594D01*
X44331Y52713D01*
D02*
G37*
G36*
X108116Y40872D02*
X104846D01*
Y37602D01*
X108116D01*
Y40872D01*
D02*
G37*
G36*
X104446D02*
X101175D01*
Y37602D01*
X104446D01*
Y40872D01*
D02*
G37*
G36*
X108116Y37202D02*
X104846D01*
Y33931D01*
X108116D01*
Y37202D01*
D02*
G37*
G36*
X104446D02*
X101175D01*
Y33931D01*
X104446D01*
Y37202D01*
D02*
G37*
G36*
X94646Y40902D02*
X93740Y40783D01*
X92895Y40433D01*
X92170Y39877D01*
X91614Y39152D01*
X91264Y38308D01*
X91145Y37402D01*
X91264Y36496D01*
X91614Y35651D01*
X92170Y34926D01*
X92895Y34370D01*
X93740Y34020D01*
X94646Y33901D01*
X95552Y34020D01*
X96396Y34370D01*
X97121Y34926D01*
X97677Y35651D01*
X98027Y36496D01*
X98146Y37402D01*
X98027Y38308D01*
X97677Y39152D01*
X97121Y39877D01*
X96396Y40433D01*
X95552Y40783D01*
X94646Y40902D01*
D02*
G37*
G36*
X84646D02*
X83740Y40783D01*
X82895Y40433D01*
X82170Y39877D01*
X81614Y39152D01*
X81264Y38308D01*
X81145Y37402D01*
X81264Y36496D01*
X81614Y35651D01*
X82170Y34926D01*
X82895Y34370D01*
X83740Y34020D01*
X84646Y33901D01*
X85552Y34020D01*
X86396Y34370D01*
X87121Y34926D01*
X87678Y35651D01*
X88027Y36496D01*
X88147Y37402D01*
X88027Y38308D01*
X87678Y39152D01*
X87121Y39877D01*
X86396Y40433D01*
X85552Y40783D01*
X84646Y40902D01*
D02*
G37*
G36*
X74646D02*
X73740Y40783D01*
X72895Y40433D01*
X72170Y39877D01*
X71614Y39152D01*
X71264Y38308D01*
X71145Y37402D01*
X71264Y36496D01*
X71614Y35651D01*
X72170Y34926D01*
X72895Y34370D01*
X73740Y34020D01*
X74646Y33901D01*
X75552Y34020D01*
X76396Y34370D01*
X77121Y34926D01*
X77678Y35651D01*
X78027Y36496D01*
X78146Y37402D01*
X78027Y38308D01*
X77678Y39152D01*
X77121Y39877D01*
X76396Y40433D01*
X75552Y40783D01*
X74646Y40902D01*
D02*
G37*
G36*
X64646D02*
X63740Y40783D01*
X62895Y40433D01*
X62170Y39877D01*
X61614Y39152D01*
X61264Y38308D01*
X61145Y37402D01*
X61264Y36496D01*
X61614Y35651D01*
X62170Y34926D01*
X62895Y34370D01*
X63740Y34020D01*
X64646Y33901D01*
X65552Y34020D01*
X66396Y34370D01*
X67121Y34926D01*
X67677Y35651D01*
X68027Y36496D01*
X68147Y37402D01*
X68027Y38308D01*
X67677Y39152D01*
X67121Y39877D01*
X66396Y40433D01*
X65552Y40783D01*
X64646Y40902D01*
D02*
G37*
G36*
X385991Y34967D02*
X382720D01*
Y31696D01*
X385991D01*
Y34967D01*
D02*
G37*
G36*
X382320D02*
X379049D01*
Y31696D01*
X382320D01*
Y34967D01*
D02*
G37*
G36*
X316929Y35877D02*
X316182Y35779D01*
X315487Y35491D01*
X314889Y35032D01*
X314430Y34435D01*
X314142Y33739D01*
X314044Y32992D01*
X314142Y32245D01*
X314430Y31550D01*
X314889Y30952D01*
X315487Y30493D01*
X316182Y30205D01*
X316929Y30107D01*
X317676Y30205D01*
X318372Y30493D01*
X318969Y30952D01*
X319428Y31550D01*
X319716Y32245D01*
X319814Y32992D01*
X319716Y33739D01*
X319428Y34435D01*
X318969Y35032D01*
X318372Y35491D01*
X317676Y35779D01*
X316929Y35877D01*
D02*
G37*
G36*
X385991Y31296D02*
X382720D01*
Y28025D01*
X385991D01*
Y31296D01*
D02*
G37*
G36*
X382320D02*
X379049D01*
Y28025D01*
X382320D01*
Y31296D01*
D02*
G37*
G36*
X342520Y34997D02*
X341614Y34878D01*
X340769Y34528D01*
X340044Y33972D01*
X339488Y33246D01*
X339138Y32402D01*
X339019Y31496D01*
X339138Y30590D01*
X339488Y29746D01*
X340044Y29021D01*
X340769Y28464D01*
X341614Y28115D01*
X342520Y27995D01*
X343426Y28115D01*
X344270Y28464D01*
X344995Y29021D01*
X345551Y29746D01*
X345901Y30590D01*
X346021Y31496D01*
X345901Y32402D01*
X345551Y33246D01*
X344995Y33972D01*
X344270Y34528D01*
X343426Y34878D01*
X342520Y34997D01*
D02*
G37*
G36*
X317087Y25312D02*
X316180Y25192D01*
X315336Y24843D01*
X314611Y24286D01*
X314055Y23561D01*
X313705Y22717D01*
X313586Y21811D01*
X313705Y20905D01*
X314055Y20061D01*
X314611Y19336D01*
X315336Y18779D01*
X316180Y18429D01*
X317087Y18310D01*
X317993Y18429D01*
X318837Y18779D01*
X319562Y19336D01*
X320118Y20061D01*
X320468Y20905D01*
X320587Y21811D01*
X320468Y22717D01*
X320118Y23561D01*
X319562Y24286D01*
X318837Y24843D01*
X317993Y25192D01*
X317087Y25312D01*
D02*
G37*
G36*
X310558Y15282D02*
X303616D01*
Y8340D01*
X310558D01*
Y15282D01*
D02*
G37*
G36*
X327087Y15312D02*
X326181Y15192D01*
X325336Y14843D01*
X324611Y14287D01*
X324055Y13561D01*
X323705Y12717D01*
X323586Y11811D01*
X323705Y10905D01*
X324055Y10061D01*
X324611Y9336D01*
X325336Y8779D01*
X326181Y8429D01*
X327087Y8310D01*
X327993Y8429D01*
X328837Y8779D01*
X329562Y9336D01*
X330118Y10061D01*
X330468Y10905D01*
X330587Y11811D01*
X330468Y12717D01*
X330118Y13561D01*
X329562Y14287D01*
X328837Y14843D01*
X327993Y15192D01*
X327087Y15312D01*
D02*
G37*
G36*
X43307Y16179D02*
X42071Y16057D01*
X40882Y15696D01*
X39787Y15111D01*
X38827Y14323D01*
X38039Y13363D01*
X37453Y12267D01*
X37093Y11079D01*
X36971Y9843D01*
X37093Y8606D01*
X37453Y7418D01*
X38039Y6322D01*
X38827Y5362D01*
X39787Y4574D01*
X40882Y3989D01*
X42071Y3628D01*
X43307Y3506D01*
X44543Y3628D01*
X45732Y3989D01*
X46827Y4574D01*
X47787Y5362D01*
X48575Y6322D01*
X49161Y7418D01*
X49521Y8606D01*
X49643Y9843D01*
X49521Y11079D01*
X49161Y12267D01*
X48575Y13363D01*
X47787Y14323D01*
X46827Y15111D01*
X45732Y15696D01*
X44543Y16057D01*
X43307Y16179D01*
D02*
G37*
G36*
X19685Y35883D02*
X17151Y35684D01*
X14680Y35090D01*
X12331Y34117D01*
X10164Y32789D01*
X8231Y31139D01*
X6581Y29206D01*
X5253Y27039D01*
X4280Y24690D01*
X3686Y22219D01*
X3487Y19685D01*
X3686Y17151D01*
X4280Y14680D01*
X5253Y12331D01*
X6581Y10164D01*
X8231Y8231D01*
X10164Y6581D01*
X12331Y5253D01*
X14680Y4280D01*
X17151Y3686D01*
X19685Y3487D01*
X22219Y3686D01*
X24690Y4280D01*
X27039Y5253D01*
X29206Y6581D01*
X31139Y8231D01*
X32789Y10164D01*
X34117Y12331D01*
X35090Y14680D01*
X35684Y17151D01*
X35883Y19685D01*
X35684Y22219D01*
X35090Y24690D01*
X34117Y27039D01*
X32789Y29206D01*
X31139Y31139D01*
X29206Y32789D01*
X27039Y34117D01*
X24690Y35090D01*
X22219Y35684D01*
X19685Y35883D01*
D02*
G37*
%LPD*%
D18*
X324626Y71969D02*
D03*
X208819D02*
D03*
X94468D02*
D03*
D21*
X249272Y176437D02*
D03*
X124272D02*
D03*
X134272D02*
D03*
X154272D02*
D03*
X144272D02*
D03*
X214331Y49213D02*
D03*
X273150Y151969D02*
D03*
Y111969D02*
D03*
D22*
X239272Y176437D02*
D03*
X114272D02*
D03*
X382520Y31496D02*
D03*
X104646Y37402D02*
D03*
D23*
X34331Y49213D02*
D03*
D24*
X232283Y67165D02*
Y111102D01*
X261364Y140183D01*
Y140183D01*
X273150Y151969D01*
X214331Y49213D02*
X232283Y67165D01*
X273150Y151969D02*
Y152264D01*
X249272Y176142D02*
X273150Y152264D01*
X249272Y176142D02*
Y176437D01*
X239272D02*
X249272D01*
X154272D02*
X239272D01*
X144272D02*
X154272D01*
X134272D02*
X144272D01*
X124272D02*
X134272D01*
X114272D02*
X124272D01*
M02*
