G04*
G04 #@! TF.GenerationSoftware,Altium Limited,Altium Designer,20.0.13 (296)*
G04*
G04 Layer_Color=16711935*
%FSLAX25Y25*%
%MOIN*%
G70*
G01*
G75*
%ADD10C,0.01000*%
%ADD24C,0.03937*%
D10*
X1000Y205724D02*
X3999D01*
X4999Y206724D01*
X3999Y207724D01*
X2000D01*
X1000Y208723D01*
X2000Y209723D01*
X4999D01*
X6998Y205724D02*
Y209723D01*
X7998D01*
X8997Y208723D01*
Y205724D01*
Y208723D01*
X9997Y209723D01*
X10997Y208723D01*
Y205724D01*
X13996Y209723D02*
X15995D01*
X16995Y208723D01*
Y205724D01*
X13996D01*
X12996Y206724D01*
X13996Y207724D01*
X16995D01*
X18994Y209723D02*
Y205724D01*
Y207724D01*
X19994Y208723D01*
X20993Y209723D01*
X21993D01*
X25992Y210723D02*
Y209723D01*
X24992D01*
X26992D01*
X25992D01*
Y206724D01*
X26992Y205724D01*
X29991Y208723D02*
X33989D01*
X39987Y209723D02*
X36988D01*
X35989Y208723D01*
Y206724D01*
X36988Y205724D01*
X39987D01*
X41987D02*
X43986D01*
X42986D01*
Y211722D01*
X41987D01*
X47985Y205724D02*
X49984D01*
X50984Y206724D01*
Y208723D01*
X49984Y209723D01*
X47985D01*
X46985Y208723D01*
Y206724D01*
X47985Y205724D01*
X56982Y209723D02*
X53983D01*
X52983Y208723D01*
Y206724D01*
X53983Y205724D01*
X56982D01*
X58981D02*
Y211722D01*
Y207724D02*
X61980Y209723D01*
X58981Y207724D02*
X61980Y205724D01*
X64979Y208723D02*
X68978D01*
X70977Y205724D02*
Y209723D01*
X71977D01*
X72977Y208723D01*
Y205724D01*
Y208723D01*
X73976Y209723D01*
X74976Y208723D01*
Y205724D01*
X77975Y209723D02*
X79975D01*
X80974Y208723D01*
Y205724D01*
X77975D01*
X76975Y206724D01*
X77975Y207724D01*
X80974D01*
X82973Y205724D02*
X84973D01*
X83973D01*
Y209723D01*
X82973D01*
X87972Y205724D02*
Y209723D01*
X90971D01*
X91971Y208723D01*
Y205724D01*
X93970Y208723D02*
X97969D01*
X99968Y211722D02*
Y205724D01*
X102967D01*
X103967Y206724D01*
Y207724D01*
Y208723D01*
X102967Y209723D01*
X99968D01*
X106966Y205724D02*
X108965D01*
X109965Y206724D01*
Y208723D01*
X108965Y209723D01*
X106966D01*
X105966Y208723D01*
Y206724D01*
X106966Y205724D01*
X112964Y209723D02*
X114963D01*
X115963Y208723D01*
Y205724D01*
X112964D01*
X111964Y206724D01*
X112964Y207724D01*
X115963D01*
X117962Y209723D02*
Y205724D01*
Y207724D01*
X118962Y208723D01*
X119962Y209723D01*
X120961D01*
X127959Y211722D02*
Y205724D01*
X124960D01*
X123960Y206724D01*
Y208723D01*
X124960Y209723D01*
X127959D01*
X129958Y205724D02*
Y206724D01*
X130958D01*
Y205724D01*
X129958D01*
X134957D02*
Y211722D01*
X137956D01*
X138955Y210723D01*
Y208723D01*
X137956Y207724D01*
X134957D01*
X144953Y209723D02*
X141954D01*
X140955Y208723D01*
Y206724D01*
X141954Y205724D01*
X144953D01*
X146953Y211722D02*
Y205724D01*
X149952D01*
X150952Y206724D01*
Y207724D01*
Y208723D01*
X149952Y209723D01*
X146953D01*
X152951Y211722D02*
Y205724D01*
X155950D01*
X156949Y206724D01*
Y210723D01*
X155950Y211722D01*
X152951D01*
X159949Y205724D02*
X161948D01*
X162948Y206724D01*
Y208723D01*
X161948Y209723D01*
X159949D01*
X158949Y208723D01*
Y206724D01*
X159949Y205724D01*
X168946Y209723D02*
X165947D01*
X164947Y208723D01*
Y206724D01*
X165947Y205724D01*
X168946D01*
D24*
X0Y0D02*
X393701D01*
X393699Y196848D02*
X393701Y196851D01*
X393701Y0D02*
X393701Y196851D01*
X-0Y196848D02*
X393699D01*
X-0D02*
X0Y196848D01*
Y0D02*
Y196848D01*
M02*
