G04*
G04 #@! TF.GenerationSoftware,Altium Limited,Altium Designer,20.0.13 (296)*
G04*
G04 Layer_Color=16711935*
%FSLAX25Y25*%
%MOIN*%
G70*
G01*
G75*
%ADD11C,0.05512*%
%ADD12C,0.32087*%
%ADD13C,0.11811*%
%ADD14C,0.06732*%
%ADD15R,0.06732X0.06732*%
%ADD16R,0.06732X0.06732*%
D11*
X304626Y91969D02*
D03*
X304659Y71933D02*
D03*
X316929Y32992D02*
D03*
Y62992D02*
D03*
X198819Y71969D02*
D03*
Y101969D02*
D03*
X314626Y71969D02*
D03*
Y101969D02*
D03*
X324626Y71969D02*
D03*
Y101969D02*
D03*
X208819Y71969D02*
D03*
Y101969D02*
D03*
X94468Y71969D02*
D03*
Y101969D02*
D03*
X84469Y71969D02*
D03*
Y101969D02*
D03*
X74502Y71933D02*
D03*
X74468Y91969D02*
D03*
X188852Y71933D02*
D03*
X188819Y91969D02*
D03*
D12*
X374016Y82677D02*
D03*
Y174213D02*
D03*
X19685Y19685D02*
D03*
Y174213D02*
D03*
D13*
X383858Y149606D02*
D03*
X43307Y9843D02*
D03*
D14*
X239272Y186437D02*
D03*
X249272D02*
D03*
X259272D02*
D03*
X279272D02*
D03*
X269272D02*
D03*
X249272Y176437D02*
D03*
X259272D02*
D03*
X279272D02*
D03*
X269272D02*
D03*
X114272Y186437D02*
D03*
X124272D02*
D03*
X134272D02*
D03*
X154272D02*
D03*
X144272D02*
D03*
X124272Y176437D02*
D03*
X134272D02*
D03*
X154272D02*
D03*
X144272D02*
D03*
X44331Y49213D02*
D03*
X214331D02*
D03*
X54331D02*
D03*
X64331D02*
D03*
X74331D02*
D03*
X84331D02*
D03*
X94331D02*
D03*
X104331D02*
D03*
X114331D02*
D03*
X124331D02*
D03*
X134331D02*
D03*
X144331D02*
D03*
X154331D02*
D03*
X164331D02*
D03*
X174331D02*
D03*
X184331D02*
D03*
X194331D02*
D03*
X204331D02*
D03*
X34331Y149213D02*
D03*
X44331D02*
D03*
X54331D02*
D03*
X64331D02*
D03*
X74331D02*
D03*
X84331D02*
D03*
X94331D02*
D03*
X104331D02*
D03*
X114331D02*
D03*
X124331D02*
D03*
X134331D02*
D03*
X144331D02*
D03*
X154331D02*
D03*
X164331D02*
D03*
X174331D02*
D03*
X184331D02*
D03*
X194331D02*
D03*
X204331D02*
D03*
X214331D02*
D03*
X342520Y31496D02*
D03*
X303150Y137559D02*
D03*
Y111969D02*
D03*
X320866Y137559D02*
D03*
X72835D02*
D03*
Y111969D02*
D03*
X90551Y137559D02*
D03*
X205709D02*
D03*
X187992D02*
D03*
Y111969D02*
D03*
X317087Y21811D02*
D03*
X327087Y11811D02*
D03*
X253150Y111969D02*
D03*
X243150D02*
D03*
X263150D02*
D03*
X273150Y151969D02*
D03*
Y111969D02*
D03*
X283150D02*
D03*
X293150Y151969D02*
D03*
Y111969D02*
D03*
X243150Y151969D02*
D03*
X253150D02*
D03*
X263150D02*
D03*
X283150D02*
D03*
X74646Y37402D02*
D03*
X94646D02*
D03*
X64646D02*
D03*
X84646D02*
D03*
D15*
X239272Y176437D02*
D03*
X114272D02*
D03*
X382520Y31496D02*
D03*
X307087Y11811D02*
D03*
X104646Y37402D02*
D03*
D16*
X34331Y49213D02*
D03*
X320866Y111969D02*
D03*
X90551D02*
D03*
X205709D02*
D03*
M02*
