G04*
G04 #@! TF.GenerationSoftware,Altium Limited,Altium Designer,20.0.13 (296)*
G04*
G04 Layer_Color=65535*
%FSLAX25Y25*%
%MOIN*%
G70*
G01*
G75*
%ADD10C,0.01000*%
D10*
X308659Y91933D02*
X308543Y92891D01*
X308201Y93792D01*
X307653Y94586D01*
X306931Y95225D01*
X306078Y95673D01*
X305141Y95904D01*
X304177D01*
X303241Y95673D01*
X302387Y95225D01*
X301665Y94586D01*
X301117Y93792D01*
X300776Y92891D01*
X300659Y91933D01*
Y71933D02*
X300776Y70976D01*
X301117Y70074D01*
X301665Y69281D01*
X302387Y68641D01*
X303241Y68193D01*
X304177Y67962D01*
X305141D01*
X306078Y68193D01*
X306931Y68641D01*
X307653Y69281D01*
X308201Y70074D01*
X308543Y70976D01*
X308659Y71933D01*
X70502D02*
X70618Y70976D01*
X70960Y70074D01*
X71508Y69281D01*
X72229Y68641D01*
X73083Y68193D01*
X74020Y67962D01*
X74984D01*
X75920Y68193D01*
X76774Y68641D01*
X77496Y69281D01*
X78044Y70074D01*
X78386Y70976D01*
X78502Y71933D01*
Y91933D02*
X78386Y92891D01*
X78044Y93792D01*
X77496Y94586D01*
X76774Y95225D01*
X75920Y95673D01*
X74984Y95904D01*
X74020D01*
X73083Y95673D01*
X72229Y95225D01*
X71508Y94586D01*
X70960Y93792D01*
X70618Y92891D01*
X70502Y91933D01*
X184852Y71933D02*
X184968Y70976D01*
X185310Y70074D01*
X185858Y69281D01*
X186580Y68641D01*
X187434Y68193D01*
X188370Y67962D01*
X189334D01*
X190271Y68193D01*
X191124Y68641D01*
X191846Y69281D01*
X192394Y70074D01*
X192736Y70976D01*
X192852Y71933D01*
Y91933D02*
X192736Y92891D01*
X192394Y93792D01*
X191846Y94586D01*
X191124Y95225D01*
X190271Y95673D01*
X189334Y95904D01*
X188370D01*
X187434Y95673D01*
X186580Y95225D01*
X185858Y94586D01*
X185310Y93792D01*
X184968Y92891D01*
X184852Y91933D01*
X308659Y71933D02*
Y91933D01*
X300659Y71933D02*
Y91933D01*
X316929Y36492D02*
Y37992D01*
X314429D02*
X316929D01*
X314429D02*
Y57992D01*
X319429D01*
Y37992D02*
Y57992D01*
X316929Y37992D02*
X319429D01*
X316929Y57992D02*
Y59492D01*
X234272Y190937D02*
X284272D01*
Y171937D02*
Y190937D01*
X234272Y171937D02*
X284272D01*
X234272D02*
Y190937D01*
X109272D02*
X159272D01*
Y171937D02*
Y190937D01*
X109272Y171937D02*
X159272D01*
X109272D02*
Y190937D01*
X4626Y44291D02*
X221626D01*
X4626D02*
Y154134D01*
X221626D01*
Y44291D02*
Y154134D01*
X310587Y26311D02*
X323587D01*
X331587Y18311D01*
Y7311D02*
Y18311D01*
Y4311D02*
Y7311D01*
X302587Y18311D02*
X310587Y26311D01*
X302587Y8311D02*
Y18311D01*
Y4311D02*
X331587D01*
X302587D02*
Y8311D01*
X59646Y42402D02*
X109646D01*
X59646Y9402D02*
Y42402D01*
X109646Y9402D02*
Y42402D01*
X59646Y9402D02*
X109646D01*
X70502Y71933D02*
Y91933D01*
X78502Y71933D02*
Y91933D01*
X184852Y71933D02*
Y91933D01*
X192852Y71933D02*
Y91933D01*
X111647Y10906D02*
X117645Y14905D01*
X111647D02*
X117645Y10906D01*
Y20903D02*
Y16904D01*
X113646Y20903D01*
X112646D01*
X111647Y19903D01*
Y17904D01*
X112646Y16904D01*
Y22902D02*
X111647Y23902D01*
Y25901D01*
X112646Y26901D01*
X116645D01*
X117645Y25901D01*
Y23902D01*
X116645Y22902D01*
X112646D01*
Y28900D02*
X111647Y29900D01*
Y31899D01*
X112646Y32899D01*
X116645D01*
X117645Y31899D01*
Y29900D01*
X116645Y28900D01*
X112646D01*
Y34898D02*
X111647Y35898D01*
Y37897D01*
X112646Y38897D01*
X116645D01*
X117645Y37897D01*
Y35898D01*
X116645Y34898D01*
X112646D01*
X235002Y169436D02*
X239000Y163438D01*
Y169436D02*
X235002Y163438D01*
X244998D02*
X241000D01*
X244998Y167437D01*
Y168436D01*
X243999Y169436D01*
X241999D01*
X241000Y168436D01*
X108501Y169436D02*
X112500Y163438D01*
Y169436D02*
X108501Y163438D01*
X114499D02*
X116499D01*
X115499D01*
Y169436D01*
X114499Y168436D01*
X8832Y123217D02*
X13830D01*
X14830Y124217D01*
Y126216D01*
X13830Y127216D01*
X8832D01*
X14830Y129215D02*
Y131214D01*
Y130215D01*
X8832D01*
X9831Y129215D01*
Y134213D02*
X8832Y135213D01*
Y137212D01*
X9831Y138212D01*
X13830D01*
X14830Y137212D01*
Y135213D01*
X13830Y134213D01*
X9831D01*
Y140211D02*
X8832Y141211D01*
Y143210D01*
X9831Y144210D01*
X13830D01*
X14830Y143210D01*
Y141211D01*
X13830Y140211D01*
X9831D01*
Y146210D02*
X8832Y147209D01*
Y149208D01*
X9831Y150208D01*
X13830D01*
X14830Y149208D01*
Y147209D01*
X13830Y146210D01*
X9831D01*
X329771Y33249D02*
X323773D01*
Y36248D01*
X324772Y37247D01*
X326772D01*
X327771Y36248D01*
Y33249D01*
Y35248D02*
X329771Y37247D01*
X324772Y39247D02*
X323773Y40246D01*
Y42246D01*
X324772Y43245D01*
X325772D01*
X326772Y42246D01*
Y41246D01*
Y42246D01*
X327771Y43245D01*
X328771D01*
X329771Y42246D01*
Y40246D01*
X328771Y39247D01*
X324772Y45245D02*
X323773Y46244D01*
Y48244D01*
X324772Y49244D01*
X328771D01*
X329771Y48244D01*
Y46244D01*
X328771Y45245D01*
X324772D01*
Y51243D02*
X323773Y52242D01*
Y54242D01*
X324772Y55242D01*
X328771D01*
X329771Y54242D01*
Y52242D01*
X328771Y51243D01*
X324772D01*
X329771Y61240D02*
Y57241D01*
X325772Y61240D01*
X324772D01*
X323773Y60240D01*
Y58240D01*
X324772Y57241D01*
X274091Y6312D02*
Y12310D01*
X277090D01*
X278089Y11310D01*
Y9311D01*
X277090Y8311D01*
X274091D01*
X276090D02*
X278089Y6312D01*
X280089Y11310D02*
X281089Y12310D01*
X283088D01*
X284088Y11310D01*
Y10311D01*
X283088Y9311D01*
X282088D01*
X283088D01*
X284088Y8311D01*
Y7312D01*
X283088Y6312D01*
X281089D01*
X280089Y7312D01*
X286087Y11310D02*
X287087Y12310D01*
X289086D01*
X290086Y11310D01*
Y7312D01*
X289086Y6312D01*
X287087D01*
X286087Y7312D01*
Y11310D01*
X292085D02*
X293085Y12310D01*
X295084D01*
X296084Y11310D01*
Y7312D01*
X295084Y6312D01*
X293085D01*
X292085Y7312D01*
Y11310D01*
X298083Y6312D02*
X300082D01*
X299083D01*
Y12310D01*
X298083Y11310D01*
X66468Y91965D02*
X67467Y92965D01*
Y94964D01*
X66468Y95964D01*
X62469D01*
X61470Y94964D01*
Y92965D01*
X62469Y91965D01*
X61470Y86967D02*
X67467D01*
X64468Y89966D01*
Y85967D01*
X66468Y83968D02*
X67467Y82968D01*
Y80969D01*
X66468Y79969D01*
X62469D01*
X61470Y80969D01*
Y82968D01*
X62469Y83968D01*
X66468D01*
Y77970D02*
X67467Y76970D01*
Y74971D01*
X66468Y73971D01*
X62469D01*
X61470Y74971D01*
Y76970D01*
X62469Y77970D01*
X66468D01*
X61470Y67973D02*
Y71972D01*
X65468Y67973D01*
X66468D01*
X67467Y68973D01*
Y70972D01*
X66468Y71972D01*
X180818Y90966D02*
X181818Y91965D01*
Y93965D01*
X180818Y94964D01*
X176820D01*
X175820Y93965D01*
Y91965D01*
X176820Y90966D01*
X175820Y85967D02*
X181818D01*
X178819Y88966D01*
Y84967D01*
X180818Y82968D02*
X181818Y81968D01*
Y79969D01*
X180818Y78969D01*
X176820D01*
X175820Y79969D01*
Y81968D01*
X176820Y82968D01*
X180818D01*
Y76970D02*
X181818Y75970D01*
Y73971D01*
X180818Y72971D01*
X176820D01*
X175820Y73971D01*
Y75970D01*
X176820Y76970D01*
X180818D01*
X175820Y70972D02*
Y68973D01*
Y69972D01*
X181818D01*
X180818Y70972D01*
X294125Y91965D02*
X295125Y92965D01*
Y94964D01*
X294125Y95964D01*
X290127D01*
X289127Y94964D01*
Y92965D01*
X290127Y91965D01*
X289127Y86967D02*
X295125D01*
X292126Y89966D01*
Y85967D01*
X294125Y83968D02*
X295125Y82968D01*
Y80969D01*
X294125Y79969D01*
X290127D01*
X289127Y80969D01*
Y82968D01*
X290127Y83968D01*
X294125D01*
Y77970D02*
X295125Y76970D01*
Y74971D01*
X294125Y73971D01*
X290127D01*
X289127Y74971D01*
Y76970D01*
X290127Y77970D01*
X294125D01*
Y71972D02*
X295125Y70972D01*
Y68973D01*
X294125Y67973D01*
X290127D01*
X289127Y68973D01*
Y70972D01*
X290127Y71972D01*
X294125D01*
M02*
