G04*
G04 #@! TF.GenerationSoftware,Altium Limited,Altium Designer,20.0.13 (296)*
G04*
G04 Layer_Color=16711935*
%FSLAX25Y25*%
%MOIN*%
G70*
G01*
G75*
%ADD10C,0.01000*%
%ADD24C,0.03937*%
D10*
X389264Y149606D02*
X389172Y150600D01*
X388899Y151559D01*
X388454Y152452D01*
X387853Y153248D01*
X387116Y153920D01*
X386268Y154445D01*
X385338Y154806D01*
X384357Y154989D01*
X383360D01*
X382379Y154806D01*
X381449Y154445D01*
X380601Y153920D01*
X379864Y153248D01*
X379262Y152452D01*
X378818Y151559D01*
X378545Y150600D01*
X378453Y149606D01*
X378545Y148613D01*
X378818Y147654D01*
X379262Y146761D01*
X379864Y145965D01*
X380601Y145293D01*
X381449Y144767D01*
X382379Y144407D01*
X383360Y144224D01*
X384357D01*
X385338Y144407D01*
X386268Y144767D01*
X387116Y145293D01*
X387853Y145965D01*
X388454Y146761D01*
X388899Y147654D01*
X389172Y148613D01*
X389264Y149606D01*
X48713Y9843D02*
X48621Y10836D01*
X48348Y11795D01*
X47903Y12688D01*
X47302Y13484D01*
X46565Y14156D01*
X45717Y14681D01*
X44786Y15042D01*
X43806Y15225D01*
X42808D01*
X41828Y15042D01*
X40898Y14681D01*
X40049Y14156D01*
X39312Y13484D01*
X38711Y12688D01*
X38267Y11795D01*
X37994Y10836D01*
X37902Y9843D01*
X37994Y8849D01*
X38267Y7890D01*
X38711Y6997D01*
X39312Y6201D01*
X40049Y5529D01*
X40898Y5004D01*
X41828Y4643D01*
X42808Y4460D01*
X43806D01*
X44786Y4643D01*
X45717Y5004D01*
X46565Y5529D01*
X47302Y6201D01*
X47903Y6997D01*
X48348Y7890D01*
X48621Y8849D01*
X48713Y9843D01*
D24*
X0Y0D02*
X393701D01*
X0D02*
Y196850D01*
X393701Y0D02*
Y196850D01*
X0D02*
X393701D01*
M02*
