G04*
G04 #@! TF.GenerationSoftware,Altium Limited,Altium Designer,20.0.13 (296)*
G04*
G04 Layer_Color=32896*
%FSLAX25Y25*%
%MOIN*%
G70*
G01*
G75*
%ADD10C,0.01000*%
D10*
X267803Y54308D02*
X268761Y54425D01*
X269662Y54766D01*
X270456Y55314D01*
X271095Y56036D01*
X271543Y56890D01*
X271774Y57826D01*
Y58790D01*
X271543Y59727D01*
X271095Y60581D01*
X270456Y61302D01*
X269662Y61850D01*
X268761Y62192D01*
X267803Y62308D01*
X259768Y62290D02*
X258810Y62174D01*
X257909Y61832D01*
X257115Y61285D01*
X256476Y60563D01*
X256028Y59709D01*
X255797Y58773D01*
Y57808D01*
X256028Y56872D01*
X256476Y56018D01*
X257115Y55296D01*
X257909Y54749D01*
X258810Y54407D01*
X259768Y54290D01*
X142003Y54308D02*
X142961Y54425D01*
X143862Y54766D01*
X144656Y55314D01*
X145295Y56036D01*
X145744Y56890D01*
X145974Y57826D01*
Y58790D01*
X145743Y59727D01*
X145295Y60581D01*
X144656Y61302D01*
X143862Y61850D01*
X142961Y62192D01*
X142003Y62308D01*
X133967Y62290D02*
X133010Y62174D01*
X132109Y61832D01*
X131315Y61285D01*
X130676Y60563D01*
X130227Y59709D01*
X129997Y58773D01*
Y57808D01*
X130227Y56872D01*
X130676Y56018D01*
X131315Y55296D01*
X132109Y54749D01*
X133010Y54407D01*
X133967Y54290D01*
X247804Y54234D02*
X248761Y54351D01*
X249663Y54693D01*
X250456Y55240D01*
X251096Y55962D01*
X251544Y56816D01*
X251775Y57752D01*
Y58717D01*
X251544Y59653D01*
X251096Y60507D01*
X250456Y61229D01*
X249663Y61776D01*
X248761Y62118D01*
X247804Y62234D01*
X227804D02*
X226846Y62118D01*
X225945Y61776D01*
X225151Y61229D01*
X224512Y60507D01*
X224064Y59653D01*
X223833Y58717D01*
Y57752D01*
X224064Y56816D01*
X224512Y55962D01*
X225151Y55240D01*
X225945Y54693D01*
X226846Y54351D01*
X227804Y54234D01*
X122004D02*
X122961Y54351D01*
X123863Y54693D01*
X124656Y55240D01*
X125296Y55962D01*
X125744Y56816D01*
X125975Y57752D01*
Y58717D01*
X125744Y59653D01*
X125296Y60507D01*
X124656Y61229D01*
X123863Y61776D01*
X122961Y62118D01*
X122004Y62234D01*
X102004D02*
X101046Y62118D01*
X100145Y61776D01*
X99351Y61229D01*
X98712Y60507D01*
X98264Y59653D01*
X98033Y58717D01*
Y57752D01*
X98264Y56816D01*
X98712Y55962D01*
X99351Y55240D01*
X100145Y54693D01*
X101046Y54351D01*
X102004Y54234D01*
X186969Y61457D02*
Y141957D01*
X176969D02*
X186969D01*
X176969Y61457D02*
Y141957D01*
Y61457D02*
X186969D01*
X92469D02*
Y141957D01*
X82468D02*
X92469D01*
X82468Y61457D02*
Y141957D01*
Y61457D02*
X92469D01*
X82968Y71457D02*
X92469D01*
X176969Y131457D02*
X186969D01*
X312268Y61457D02*
Y141957D01*
X302269D02*
X312268D01*
X302269Y61457D02*
Y141957D01*
Y61457D02*
X312268D01*
X217769D02*
Y141957D01*
X207769D02*
X217769D01*
X207769Y61457D02*
Y141957D01*
Y61457D02*
X217769D01*
X208268Y71457D02*
X217769D01*
X302269Y131457D02*
X312268D01*
X259769Y54301D02*
X267769D01*
X259769Y62301D02*
X267769D01*
X133968Y54301D02*
X141969D01*
X133968Y62301D02*
X141969D01*
X227804Y62234D02*
X247804D01*
X227804Y54234D02*
X247804D01*
X102004Y62234D02*
X122004D01*
X102004Y54234D02*
X122004D01*
X274768Y58268D02*
X278767D01*
X276768Y56269D02*
Y60268D01*
X148969Y58268D02*
X152967D01*
X150968Y56269D02*
Y60268D01*
X143968Y68771D02*
X144967Y67771D01*
Y65772D01*
X143968Y64772D01*
X139969D01*
X138970Y65772D01*
Y67771D01*
X139969Y68771D01*
X138970Y70770D02*
Y72769D01*
Y71770D01*
X144967D01*
X143968Y70770D01*
Y75769D02*
X144967Y76768D01*
Y78768D01*
X143968Y79767D01*
X139969D01*
X138970Y78768D01*
Y76768D01*
X139969Y75769D01*
X143968D01*
Y81767D02*
X144967Y82766D01*
Y84766D01*
X143968Y85765D01*
X139969D01*
X138970Y84766D01*
Y82766D01*
X139969Y81767D01*
X143968D01*
Y87765D02*
X144967Y88764D01*
Y90764D01*
X143968Y91763D01*
X142968D01*
X141969Y90764D01*
Y89764D01*
Y90764D01*
X140969Y91763D01*
X139969D01*
X138970Y90764D01*
Y88764D01*
X139969Y87765D01*
X121468Y68771D02*
X122468Y67771D01*
Y65772D01*
X121468Y64772D01*
X117469D01*
X116470Y65772D01*
Y67771D01*
X117469Y68771D01*
X116470Y70770D02*
Y72769D01*
Y71770D01*
X122468D01*
X121468Y70770D01*
Y75769D02*
X122468Y76768D01*
Y78768D01*
X121468Y79767D01*
X117469D01*
X116470Y78768D01*
Y76768D01*
X117469Y75769D01*
X121468D01*
Y81767D02*
X122468Y82766D01*
Y84766D01*
X121468Y85765D01*
X117469D01*
X116470Y84766D01*
Y82766D01*
X117469Y81767D01*
X121468D01*
X116470Y91763D02*
Y87765D01*
X120468Y91763D01*
X121468D01*
X122468Y90764D01*
Y88764D01*
X121468Y87765D01*
X269768Y68770D02*
X270767Y67771D01*
Y65771D01*
X269768Y64772D01*
X265769D01*
X264770Y65771D01*
Y67771D01*
X265769Y68770D01*
X264770Y70770D02*
Y72769D01*
Y71769D01*
X270767D01*
X269768Y70770D01*
Y75768D02*
X270767Y76768D01*
Y78767D01*
X269768Y79767D01*
X265769D01*
X264770Y78767D01*
Y76768D01*
X265769Y75768D01*
X269768D01*
Y81766D02*
X270767Y82766D01*
Y84765D01*
X269768Y85765D01*
X265769D01*
X264770Y84765D01*
Y82766D01*
X265769Y81766D01*
X269768D01*
X264770Y87764D02*
Y89764D01*
Y88764D01*
X270767D01*
X269768Y87764D01*
X247268Y68771D02*
X248268Y67771D01*
Y65772D01*
X247268Y64772D01*
X243269D01*
X242269Y65772D01*
Y67771D01*
X243269Y68771D01*
X242269Y70770D02*
Y72769D01*
Y71770D01*
X248268D01*
X247268Y70770D01*
Y75769D02*
X248268Y76768D01*
Y78768D01*
X247268Y79767D01*
X243269D01*
X242269Y78768D01*
Y76768D01*
X243269Y75769D01*
X247268D01*
Y81767D02*
X248268Y82766D01*
Y84766D01*
X247268Y85765D01*
X243269D01*
X242269Y84766D01*
Y82766D01*
X243269Y81767D01*
X247268D01*
Y87765D02*
X248268Y88764D01*
Y90764D01*
X247268Y91763D01*
X243269D01*
X242269Y90764D01*
Y88764D01*
X243269Y87765D01*
X247268D01*
M02*
