G04*
G04 #@! TF.GenerationSoftware,Altium Limited,Altium Designer,20.0.13 (296)*
G04*
G04 Layer_Color=16711935*
%FSLAX25Y25*%
%MOIN*%
G70*
G01*
G75*
%ADD10C,0.01000*%
%ADD30C,0.03937*%
D10*
X1000Y204180D02*
X3999D01*
X4999Y205180D01*
X3999Y206180D01*
X2000D01*
X1000Y207179D01*
X2000Y208179D01*
X4999D01*
X6998Y204180D02*
Y208179D01*
X7998D01*
X8997Y207179D01*
Y204180D01*
Y207179D01*
X9997Y208179D01*
X10997Y207179D01*
Y204180D01*
X13996Y208179D02*
X15995D01*
X16995Y207179D01*
Y204180D01*
X13996D01*
X12996Y205180D01*
X13996Y206180D01*
X16995D01*
X18994Y208179D02*
Y204180D01*
Y206180D01*
X19994Y207179D01*
X20993Y208179D01*
X21993D01*
X25992Y209179D02*
Y208179D01*
X24992D01*
X26992D01*
X25992D01*
Y205180D01*
X26992Y204180D01*
X29991Y207179D02*
X33989D01*
X39987Y208179D02*
X36988D01*
X35989Y207179D01*
Y205180D01*
X36988Y204180D01*
X39987D01*
X41987D02*
X43986D01*
X42986D01*
Y210178D01*
X41987D01*
X47985Y204180D02*
X49984D01*
X50984Y205180D01*
Y207179D01*
X49984Y208179D01*
X47985D01*
X46985Y207179D01*
Y205180D01*
X47985Y204180D01*
X56982Y208179D02*
X53983D01*
X52983Y207179D01*
Y205180D01*
X53983Y204180D01*
X56982D01*
X58981D02*
Y210178D01*
Y206180D02*
X61980Y208179D01*
X58981Y206180D02*
X61980Y204180D01*
X64979Y207179D02*
X68978D01*
X74976Y210178D02*
Y204180D01*
X71977D01*
X70977Y205180D01*
Y207179D01*
X71977Y208179D01*
X74976D01*
X76975Y204180D02*
X78975D01*
X77975D01*
Y208179D01*
X76975D01*
X81974Y204180D02*
X84973D01*
X85972Y205180D01*
X84973Y206180D01*
X82973D01*
X81974Y207179D01*
X82973Y208179D01*
X85972D01*
X87972Y202181D02*
Y208179D01*
X90971D01*
X91971Y207179D01*
Y205180D01*
X90971Y204180D01*
X87972D01*
X93970D02*
X95969D01*
X94970D01*
Y210178D01*
X93970D01*
X99968Y208179D02*
X101967D01*
X102967Y207179D01*
Y204180D01*
X99968D01*
X98968Y205180D01*
X99968Y206180D01*
X102967D01*
X104966Y208179D02*
Y205180D01*
X105966Y204180D01*
X108965D01*
Y203181D01*
X107965Y202181D01*
X106966D01*
X108965Y204180D02*
Y208179D01*
X110964Y204180D02*
Y205180D01*
X111964D01*
Y204180D01*
X110964D01*
X115963D02*
Y210178D01*
X118962D01*
X119962Y209179D01*
Y207179D01*
X118962Y206180D01*
X115963D01*
X125960Y208179D02*
X122960D01*
X121961Y207179D01*
Y205180D01*
X122960Y204180D01*
X125960D01*
X127959Y210178D02*
Y204180D01*
X130958D01*
X131958Y205180D01*
Y206180D01*
Y207179D01*
X130958Y208179D01*
X127959D01*
X133957Y210178D02*
Y204180D01*
X136956D01*
X137956Y205180D01*
Y209179D01*
X136956Y210178D01*
X133957D01*
X140955Y204180D02*
X142954D01*
X143954Y205180D01*
Y207179D01*
X142954Y208179D01*
X140955D01*
X139955Y207179D01*
Y205180D01*
X140955Y204180D01*
X149952Y208179D02*
X146953D01*
X145953Y207179D01*
Y205180D01*
X146953Y204180D01*
X149952D01*
D30*
X0Y0D02*
Y196850D01*
Y0D02*
X393701D01*
X0Y196850D02*
X393701D01*
Y0D02*
Y196850D01*
M02*
