G04*
G04 #@! TF.GenerationSoftware,Altium Limited,Altium Designer,20.0.13 (296)*
G04*
G04 Layer_Color=65535*
%FSLAX25Y25*%
%MOIN*%
G70*
G01*
G75*
%ADD10C,0.01000*%
%ADD11C,0.00787*%
%ADD12C,0.00984*%
D10*
X75003Y24486D02*
X75979Y24558D01*
X76929Y24789D01*
X77828Y25174D01*
X78651Y25702D01*
X79376Y26359D01*
X79983Y27126D01*
X80454Y27983D01*
X80778Y28906D01*
X80945Y29869D01*
X80951Y30848D01*
X80795Y31813D01*
X80482Y32740D01*
X80021Y33602D01*
X79423Y34376D01*
X78706Y35041D01*
X77890Y35579D01*
X76995Y35975D01*
X76047Y36217D01*
X75073Y36300D01*
X200535Y24593D02*
X201511Y24664D01*
X202461Y24895D01*
X203360Y25280D01*
X204183Y25809D01*
X204908Y26465D01*
X205514Y27233D01*
X205986Y28089D01*
X206310Y29012D01*
X206477Y29976D01*
X206483Y30954D01*
X206327Y31919D01*
X206014Y32846D01*
X205552Y33708D01*
X204955Y34483D01*
X204238Y35148D01*
X203421Y35686D01*
X202526Y36081D01*
X201579Y36324D01*
X200605Y36406D01*
X139469Y123484D02*
X159468D01*
X139469D02*
Y125984D01*
X159468D02*
X160968D01*
X137969D02*
X139469D01*
X159468Y123484D02*
Y128484D01*
X139469Y125984D02*
Y128484D01*
X159468D01*
X75003Y10394D02*
X193968D01*
X75003D02*
Y24486D01*
X193968Y10394D02*
Y49894D01*
X75073Y36301D02*
Y49894D01*
X193968D01*
X200535Y10500D02*
X319500D01*
X200535D02*
Y24593D01*
X319500Y10500D02*
Y50000D01*
X200605Y36407D02*
Y50000D01*
X319500D01*
X384166Y43957D02*
Y63957D01*
X381666Y43957D02*
X384166D01*
X381666Y63957D02*
Y65457D01*
Y42457D02*
Y43957D01*
X379166Y63957D02*
X384166D01*
X379166Y43957D02*
X381666D01*
X379166D02*
Y63957D01*
X24252Y44272D02*
Y64272D01*
X21752Y44272D02*
X24252D01*
X21752Y64272D02*
Y65772D01*
Y42772D02*
Y44272D01*
X19252Y64272D02*
X24252D01*
X19252Y44272D02*
X21752D01*
X19252D02*
Y64272D01*
X26252Y12772D02*
Y25772D01*
X18252Y4772D02*
X26252Y12772D01*
X7252Y4772D02*
X18252D01*
X4252D02*
X7252D01*
X18252Y33772D02*
X26252Y25772D01*
X8252Y33772D02*
X18252D01*
X4252Y4772D02*
Y33772D01*
X8252D01*
X367166Y12457D02*
Y25457D01*
X375166Y33457D01*
X386166D01*
X389166D01*
X367166Y12457D02*
X375166Y4457D01*
X385166D01*
X389166D02*
Y33457D01*
X385166Y4457D02*
X389166D01*
X109468Y132547D02*
Y162547D01*
Y132547D02*
X159468D01*
Y162547D01*
X109468D02*
X159468D01*
X234469Y132547D02*
Y162547D01*
Y132547D02*
X284469D01*
Y162547D01*
X234469D02*
X284469D01*
X109785Y129377D02*
X113784Y123379D01*
Y129377D02*
X109785Y123379D01*
X119782D02*
X115783D01*
X119782Y127378D01*
Y128377D01*
X118782Y129377D01*
X116783D01*
X115783Y128377D01*
X235116Y129377D02*
X239114Y123379D01*
Y129377D02*
X235116Y123379D01*
X241113D02*
X243113D01*
X242113D01*
Y129377D01*
X241113Y128377D01*
X166973Y58393D02*
Y53394D01*
X167972Y52395D01*
X169972D01*
X170971Y53394D01*
Y58393D01*
X172971Y52395D02*
X174970D01*
X173970D01*
Y58393D01*
X172971Y57393D01*
X177969D02*
X178969Y58393D01*
X180968D01*
X181968Y57393D01*
Y53394D01*
X180968Y52395D01*
X178969D01*
X177969Y53394D01*
Y57393D01*
X183967D02*
X184967Y58393D01*
X186966D01*
X187966Y57393D01*
Y53394D01*
X186966Y52395D01*
X184967D01*
X183967Y53394D01*
Y57393D01*
X189965Y52395D02*
X191964D01*
X190965D01*
Y58393D01*
X189965Y57393D01*
X291504Y58499D02*
Y53501D01*
X292504Y52501D01*
X294503D01*
X295503Y53501D01*
Y58499D01*
X297502Y52501D02*
X299502D01*
X298502D01*
Y58499D01*
X297502Y57499D01*
X302501D02*
X303501Y58499D01*
X305500D01*
X306500Y57499D01*
Y53501D01*
X305500Y52501D01*
X303501D01*
X302501Y53501D01*
Y57499D01*
X308499D02*
X309499Y58499D01*
X311498D01*
X312498Y57499D01*
Y53501D01*
X311498Y52501D01*
X309499D01*
X308499Y53501D01*
Y57499D01*
X314497D02*
X315497Y58499D01*
X317496D01*
X318496Y57499D01*
Y53501D01*
X317496Y52501D01*
X315497D01*
X314497Y53501D01*
Y57499D01*
X34751Y5776D02*
X28753D01*
Y8775D01*
X29753Y9775D01*
X31752D01*
X32752Y8775D01*
Y5776D01*
Y7775D02*
X34751Y9775D01*
Y11774D02*
Y13773D01*
Y12774D01*
X28753D01*
X29753Y11774D01*
Y16772D02*
X28753Y17772D01*
Y19771D01*
X29753Y20771D01*
X33751D01*
X34751Y19771D01*
Y17772D01*
X33751Y16772D01*
X29753D01*
Y22771D02*
X28753Y23770D01*
Y25769D01*
X29753Y26769D01*
X33751D01*
X34751Y25769D01*
Y23770D01*
X33751Y22771D01*
X29753D01*
X34751Y31768D02*
X28753D01*
X31752Y28769D01*
Y32767D01*
X34751Y38276D02*
X28753D01*
Y41275D01*
X29753Y42275D01*
X31752D01*
X32752Y41275D01*
Y38276D01*
Y40275D02*
X34751Y42275D01*
Y44274D02*
Y46273D01*
Y45274D01*
X28753D01*
X29753Y44274D01*
Y49272D02*
X28753Y50272D01*
Y52271D01*
X29753Y53271D01*
X33751D01*
X34751Y52271D01*
Y50272D01*
X33751Y49272D01*
X29753D01*
Y55270D02*
X28753Y56270D01*
Y58270D01*
X29753Y59269D01*
X33751D01*
X34751Y58270D01*
Y56270D01*
X33751Y55270D01*
X29753D01*
Y61269D02*
X28753Y62268D01*
Y64268D01*
X29753Y65267D01*
X30752D01*
X31752Y64268D01*
Y63268D01*
Y64268D01*
X32752Y65267D01*
X33751D01*
X34751Y64268D01*
Y62268D01*
X33751Y61269D01*
X374665Y37961D02*
X368667D01*
Y40960D01*
X369667Y41960D01*
X371666D01*
X372666Y40960D01*
Y37961D01*
Y39960D02*
X374665Y41960D01*
Y43959D02*
Y45959D01*
Y44959D01*
X368667D01*
X369667Y43959D01*
Y48957D02*
X368667Y49957D01*
Y51956D01*
X369667Y52956D01*
X373665D01*
X374665Y51956D01*
Y49957D01*
X373665Y48957D01*
X369667D01*
Y54956D02*
X368667Y55955D01*
Y57955D01*
X369667Y58954D01*
X373665D01*
X374665Y57955D01*
Y55955D01*
X373665Y54956D01*
X369667D01*
X374665Y64952D02*
Y60954D01*
X370667Y64952D01*
X369667D01*
X368667Y63953D01*
Y61953D01*
X369667Y60954D01*
X364665Y6461D02*
X358667D01*
Y9460D01*
X359667Y10459D01*
X361666D01*
X362666Y9460D01*
Y6461D01*
Y8460D02*
X364665Y10459D01*
Y12459D02*
Y14458D01*
Y13458D01*
X358667D01*
X359667Y12459D01*
Y17457D02*
X358667Y18457D01*
Y20456D01*
X359667Y21456D01*
X363666D01*
X364665Y20456D01*
Y18457D01*
X363666Y17457D01*
X359667D01*
Y23455D02*
X358667Y24455D01*
Y26454D01*
X359667Y27454D01*
X363666D01*
X364665Y26454D01*
Y24455D01*
X363666Y23455D01*
X359667D01*
X364665Y29453D02*
Y31453D01*
Y30453D01*
X358667D01*
X359667Y29453D01*
X135225Y115111D02*
Y121109D01*
X138224D01*
X139224Y120110D01*
Y118110D01*
X138224Y117111D01*
X135225D01*
X137224D02*
X139224Y115111D01*
X141223D02*
X143222D01*
X142223D01*
Y121109D01*
X141223Y120110D01*
X146221D02*
X147221Y121109D01*
X149220D01*
X150220Y120110D01*
Y116111D01*
X149220Y115111D01*
X147221D01*
X146221Y116111D01*
Y120110D01*
X152219D02*
X153219Y121109D01*
X155218D01*
X156218Y120110D01*
Y116111D01*
X155218Y115111D01*
X153219D01*
X152219Y116111D01*
Y120110D01*
X158217D02*
X159217Y121109D01*
X161216D01*
X162216Y120110D01*
Y116111D01*
X161216Y115111D01*
X159217D01*
X158217Y116111D01*
Y120110D01*
D11*
X6824Y184851D02*
X6299Y185376D01*
X5249D01*
X4724Y184851D01*
Y184326D01*
X5249Y183801D01*
X6299D01*
X6824Y183276D01*
Y182752D01*
X6299Y182227D01*
X5249D01*
X4724Y182752D01*
X7873Y182227D02*
Y184326D01*
X8398D01*
X8923Y183801D01*
Y182227D01*
Y183801D01*
X9447Y184326D01*
X9972Y183801D01*
Y182227D01*
X11546Y184326D02*
X12596D01*
X13121Y183801D01*
Y182227D01*
X11546D01*
X11022Y182752D01*
X11546Y183276D01*
X13121D01*
X14170Y184326D02*
Y182227D01*
Y183276D01*
X14695Y183801D01*
X15220Y184326D01*
X15744D01*
X17843Y184851D02*
Y184326D01*
X17319D01*
X18368D01*
X17843D01*
Y182752D01*
X18368Y182227D01*
X25190Y184851D02*
X24666Y185376D01*
X23616D01*
X23091Y184851D01*
Y182752D01*
X23616Y182227D01*
X24666D01*
X25190Y182752D01*
X26240Y182227D02*
X27289D01*
X26765D01*
Y185376D01*
X26240D01*
X29388Y182227D02*
X30438D01*
X30963Y182752D01*
Y183801D01*
X30438Y184326D01*
X29388D01*
X28864Y183801D01*
Y182752D01*
X29388Y182227D01*
X34111Y184326D02*
X32537D01*
X32012Y183801D01*
Y182752D01*
X32537Y182227D01*
X34111D01*
X35161D02*
Y185376D01*
Y183276D02*
X36735Y184326D01*
X35161Y183276D02*
X36735Y182227D01*
X4724Y176559D02*
Y179708D01*
X6824Y176559D01*
Y179708D01*
X8398Y176559D02*
X9447D01*
X9972Y177084D01*
Y178133D01*
X9447Y178658D01*
X8398D01*
X7873Y178133D01*
Y177084D01*
X8398Y176559D01*
X12596D02*
X11546D01*
X11022Y177084D01*
Y178133D01*
X11546Y178658D01*
X12596D01*
X13121Y178133D01*
Y177608D01*
X11022D01*
X14170Y176559D02*
X15220D01*
X14695D01*
Y179708D01*
X14170D01*
X19943D02*
Y177608D01*
X20992Y176559D01*
X22042Y177608D01*
Y179708D01*
X23091Y176559D02*
X24141D01*
X23616D01*
Y178658D01*
X23091D01*
X25715Y176559D02*
X27289D01*
X27814Y177084D01*
X27289Y177608D01*
X26240D01*
X25715Y178133D01*
X26240Y178658D01*
X27814D01*
X28864Y176559D02*
X30438D01*
X30963Y177084D01*
X30438Y177608D01*
X29388D01*
X28864Y178133D01*
X29388Y178658D01*
X30963D01*
X33586Y176559D02*
X32537D01*
X32012Y177084D01*
Y178133D01*
X32537Y178658D01*
X33586D01*
X34111Y178133D01*
Y177608D01*
X32012D01*
X35161Y178658D02*
Y176559D01*
Y177608D01*
X35686Y178133D01*
X36210Y178658D01*
X36735D01*
X38309Y176559D02*
X39884D01*
X40408Y177084D01*
X39884Y177608D01*
X38834D01*
X38309Y178133D01*
X38834Y178658D01*
X40408D01*
X4724Y174039D02*
Y170891D01*
X6299D01*
X6824Y171416D01*
Y173515D01*
X6299Y174039D01*
X4724D01*
X7873Y170891D02*
X8923D01*
X8398D01*
Y172990D01*
X7873D01*
X10497Y170891D02*
X12071D01*
X12596Y171416D01*
X12071Y171940D01*
X11022D01*
X10497Y172465D01*
X11022Y172990D01*
X12596D01*
X13645Y169841D02*
Y172990D01*
X15220D01*
X15744Y172465D01*
Y171416D01*
X15220Y170891D01*
X13645D01*
X16794D02*
X17843D01*
X17319D01*
Y174039D01*
X16794D01*
X19943Y172990D02*
X20992D01*
X21517Y172465D01*
Y170891D01*
X19943D01*
X19418Y171416D01*
X19943Y171940D01*
X21517D01*
X22566Y172990D02*
Y171416D01*
X23091Y170891D01*
X24666D01*
Y170366D01*
X24141Y169841D01*
X23616D01*
X24666Y170891D02*
Y172990D01*
X4724Y166272D02*
X5774Y164173D01*
X6824Y166272D01*
X7873Y164173D02*
X8923D01*
X8398D01*
Y167322D01*
X7873Y166797D01*
X10497Y164173D02*
Y164698D01*
X11022D01*
Y164173D01*
X10497D01*
X13121Y166797D02*
X13645Y167322D01*
X14695D01*
X15220Y166797D01*
Y164698D01*
X14695Y164173D01*
X13645D01*
X13121Y164698D01*
Y166797D01*
X16269Y164173D02*
Y164698D01*
X16794D01*
Y164173D01*
X16269D01*
X18893Y166797D02*
X19418Y167322D01*
X20467D01*
X20992Y166797D01*
Y164698D01*
X20467Y164173D01*
X19418D01*
X18893Y164698D01*
Y166797D01*
D12*
X7009Y192889D02*
X5959D01*
X6484D01*
Y190265D01*
X5959Y189740D01*
X5435D01*
X4910Y190265D01*
X8058Y192889D02*
Y189740D01*
X10157D01*
X13306Y192364D02*
X12781Y192889D01*
X11732D01*
X11207Y192364D01*
Y190265D01*
X11732Y189740D01*
X12781D01*
X13306Y190265D01*
X16455Y192889D02*
X15405D01*
X15930D01*
Y190265D01*
X15405Y189740D01*
X14880D01*
X14356Y190265D01*
X17504Y192889D02*
Y189740D01*
X19603D01*
X22752Y192364D02*
X22227Y192889D01*
X21178D01*
X20653Y192364D01*
Y190265D01*
X21178Y189740D01*
X22227D01*
X22752Y190265D01*
X25900Y192889D02*
X24851D01*
X25376D01*
Y190265D01*
X24851Y189740D01*
X24326D01*
X23801Y190265D01*
X26950Y192889D02*
Y189740D01*
X29049D01*
X32197Y192364D02*
X31673Y192889D01*
X30623D01*
X30099Y192364D01*
Y190265D01*
X30623Y189740D01*
X31673D01*
X32197Y190265D01*
X35346Y192889D02*
X34297D01*
X34821D01*
Y190265D01*
X34297Y189740D01*
X33772D01*
X33247Y190265D01*
X36396Y192889D02*
Y189740D01*
X38495D01*
X41643Y192364D02*
X41118Y192889D01*
X40069D01*
X39544Y192364D01*
Y190265D01*
X40069Y189740D01*
X41118D01*
X41643Y190265D01*
M02*
