G04*
G04 #@! TF.GenerationSoftware,Altium Limited,Altium Designer,20.0.13 (296)*
G04*
G04 Layer_Physical_Order=1*
G04 Layer_Color=255*
%FSLAX25Y25*%
%MOIN*%
G70*
G01*
G75*
%ADD21C,0.01500*%
%ADD22C,0.31496*%
%ADD23C,0.03937*%
%ADD24C,0.06000*%
%ADD25R,0.06000X0.06000*%
%ADD26C,0.04921*%
%ADD27C,0.06142*%
%ADD28R,0.06142X0.06142*%
%ADD29R,0.06142X0.06142*%
G36*
X391286Y2415D02*
X2415D01*
Y194436D01*
X391286D01*
Y2415D01*
D02*
G37*
%LPC*%
G36*
X382500Y191730D02*
X381264Y191608D01*
X380075Y191247D01*
X378980Y190662D01*
X378020Y189874D01*
X377232Y188914D01*
X376646Y187818D01*
X376286Y186630D01*
X376164Y185394D01*
X376286Y184158D01*
X376646Y182969D01*
X377232Y181874D01*
X378020Y180913D01*
X378980Y180125D01*
X380075Y179540D01*
X381264Y179179D01*
X382500Y179058D01*
X383736Y179179D01*
X384925Y179540D01*
X386020Y180125D01*
X386980Y180913D01*
X387768Y181874D01*
X388354Y182969D01*
X388714Y184158D01*
X388836Y185394D01*
X388714Y186630D01*
X388354Y187818D01*
X387768Y188914D01*
X386980Y189874D01*
X386020Y190662D01*
X384925Y191247D01*
X383736Y191608D01*
X382500Y191730D01*
D02*
G37*
G36*
X279668Y150522D02*
Y147247D01*
X282943D01*
X282850Y147953D01*
X282500Y148798D01*
X281944Y149523D01*
X281219Y150079D01*
X280375Y150429D01*
X279668Y150522D01*
D02*
G37*
G36*
X279269D02*
X278562Y150429D01*
X277718Y150079D01*
X276993Y149523D01*
X276437Y148798D01*
X276087Y147953D01*
X275994Y147247D01*
X279269D01*
Y150522D01*
D02*
G37*
G36*
X269669D02*
Y147247D01*
X272943D01*
X272850Y147953D01*
X272500Y148798D01*
X271944Y149523D01*
X271219Y150079D01*
X270375Y150429D01*
X269669Y150522D01*
D02*
G37*
G36*
X269268D02*
X268562Y150429D01*
X267718Y150079D01*
X266993Y149523D01*
X266437Y148798D01*
X266087Y147953D01*
X265994Y147247D01*
X269268D01*
Y150522D01*
D02*
G37*
G36*
X259668D02*
Y147247D01*
X262943D01*
X262850Y147953D01*
X262500Y148798D01*
X261944Y149523D01*
X261219Y150079D01*
X260375Y150429D01*
X259668Y150522D01*
D02*
G37*
G36*
X259268D02*
X258562Y150429D01*
X257718Y150079D01*
X256993Y149523D01*
X256437Y148798D01*
X256087Y147953D01*
X255994Y147247D01*
X259268D01*
Y150522D01*
D02*
G37*
G36*
X249669D02*
Y147247D01*
X252943D01*
X252850Y147953D01*
X252500Y148798D01*
X251944Y149523D01*
X251219Y150079D01*
X250375Y150429D01*
X249669Y150522D01*
D02*
G37*
G36*
X249269D02*
X248562Y150429D01*
X247718Y150079D01*
X246993Y149523D01*
X246437Y148798D01*
X246087Y147953D01*
X245994Y147247D01*
X249269D01*
Y150522D01*
D02*
G37*
G36*
X239668D02*
Y147247D01*
X242943D01*
X242850Y147953D01*
X242500Y148798D01*
X241944Y149523D01*
X241219Y150079D01*
X240375Y150429D01*
X239668Y150522D01*
D02*
G37*
G36*
X239268D02*
X238562Y150429D01*
X237718Y150079D01*
X236993Y149523D01*
X236437Y148798D01*
X236087Y147953D01*
X235994Y147247D01*
X239268D01*
Y150522D01*
D02*
G37*
G36*
X114269D02*
X113562Y150429D01*
X112718Y150079D01*
X111993Y149523D01*
X111437Y148798D01*
X111087Y147953D01*
X110994Y147247D01*
X114269D01*
Y150522D01*
D02*
G37*
G36*
X282943Y146847D02*
X279668D01*
Y143573D01*
X280375Y143666D01*
X281219Y144016D01*
X281944Y144572D01*
X282500Y145297D01*
X282850Y146141D01*
X282943Y146847D01*
D02*
G37*
G36*
X279269D02*
X275994D01*
X276087Y146141D01*
X276437Y145297D01*
X276993Y144572D01*
X277718Y144016D01*
X278562Y143666D01*
X279269Y143573D01*
Y146847D01*
D02*
G37*
G36*
X272943D02*
X269669D01*
Y143573D01*
X270375Y143666D01*
X271219Y144016D01*
X271944Y144572D01*
X272500Y145297D01*
X272850Y146141D01*
X272943Y146847D01*
D02*
G37*
G36*
X269268D02*
X265994D01*
X266087Y146141D01*
X266437Y145297D01*
X266993Y144572D01*
X267718Y144016D01*
X268562Y143666D01*
X269268Y143573D01*
Y146847D01*
D02*
G37*
G36*
X262943D02*
X259668D01*
Y143573D01*
X260375Y143666D01*
X261219Y144016D01*
X261944Y144572D01*
X262500Y145297D01*
X262850Y146141D01*
X262943Y146847D01*
D02*
G37*
G36*
X259268D02*
X255994D01*
X256087Y146141D01*
X256437Y145297D01*
X256993Y144572D01*
X257718Y144016D01*
X258562Y143666D01*
X259268Y143573D01*
Y146847D01*
D02*
G37*
G36*
X252943D02*
X249669D01*
Y143573D01*
X250375Y143666D01*
X251219Y144016D01*
X251944Y144572D01*
X252500Y145297D01*
X252850Y146141D01*
X252943Y146847D01*
D02*
G37*
G36*
X249269D02*
X245994D01*
X246087Y146141D01*
X246437Y145297D01*
X246993Y144572D01*
X247718Y144016D01*
X248562Y143666D01*
X249269Y143573D01*
Y146847D01*
D02*
G37*
G36*
X242943D02*
X239668D01*
Y143573D01*
X240375Y143666D01*
X241219Y144016D01*
X241944Y144572D01*
X242500Y145297D01*
X242850Y146141D01*
X242943Y146847D01*
D02*
G37*
G36*
X239268D02*
X235994D01*
X236087Y146141D01*
X236437Y145297D01*
X236993Y144572D01*
X237718Y144016D01*
X238562Y143666D01*
X239268Y143573D01*
Y146847D01*
D02*
G37*
G36*
X127943D02*
X124669D01*
Y143573D01*
X125375Y143666D01*
X126219Y144016D01*
X126944Y144572D01*
X127500Y145297D01*
X127850Y146141D01*
X127943Y146847D01*
D02*
G37*
G36*
X114269D02*
X110994D01*
X111087Y146141D01*
X111437Y145297D01*
X111993Y144572D01*
X112718Y144016D01*
X113562Y143666D01*
X114269Y143573D01*
Y146847D01*
D02*
G37*
G36*
X282939Y140518D02*
X275998D01*
Y133576D01*
X282939D01*
Y140518D01*
D02*
G37*
G36*
X269468Y140548D02*
X268562Y140429D01*
X267718Y140079D01*
X266993Y139523D01*
X266437Y138798D01*
X266087Y137953D01*
X265968Y137047D01*
X266087Y136141D01*
X266437Y135297D01*
X266993Y134572D01*
X267718Y134016D01*
X268562Y133666D01*
X269468Y133546D01*
X270375Y133666D01*
X271219Y134016D01*
X271944Y134572D01*
X272500Y135297D01*
X272850Y136141D01*
X272969Y137047D01*
X272850Y137953D01*
X272500Y138798D01*
X271944Y139523D01*
X271219Y140079D01*
X270375Y140429D01*
X269468Y140548D01*
D02*
G37*
G36*
X259469D02*
X258562Y140429D01*
X257718Y140079D01*
X256993Y139523D01*
X256437Y138798D01*
X256087Y137953D01*
X255968Y137047D01*
X256087Y136141D01*
X256437Y135297D01*
X256993Y134572D01*
X257718Y134016D01*
X258562Y133666D01*
X259469Y133546D01*
X260375Y133666D01*
X261219Y134016D01*
X261944Y134572D01*
X262500Y135297D01*
X262850Y136141D01*
X262969Y137047D01*
X262850Y137953D01*
X262500Y138798D01*
X261944Y139523D01*
X261219Y140079D01*
X260375Y140429D01*
X259469Y140548D01*
D02*
G37*
G36*
X249468D02*
X248562Y140429D01*
X247718Y140079D01*
X246993Y139523D01*
X246437Y138798D01*
X246087Y137953D01*
X245968Y137047D01*
X246087Y136141D01*
X246437Y135297D01*
X246993Y134572D01*
X247718Y134016D01*
X248562Y133666D01*
X249468Y133546D01*
X250375Y133666D01*
X251219Y134016D01*
X251944Y134572D01*
X252500Y135297D01*
X252850Y136141D01*
X252969Y137047D01*
X252850Y137953D01*
X252500Y138798D01*
X251944Y139523D01*
X251219Y140079D01*
X250375Y140429D01*
X249468Y140548D01*
D02*
G37*
G36*
X239469D02*
X238562Y140429D01*
X237718Y140079D01*
X236993Y139523D01*
X236437Y138798D01*
X236087Y137953D01*
X235968Y137047D01*
X236087Y136141D01*
X236437Y135297D01*
X236993Y134572D01*
X237718Y134016D01*
X238562Y133666D01*
X239469Y133546D01*
X240375Y133666D01*
X241219Y134016D01*
X241944Y134572D01*
X242500Y135297D01*
X242850Y136141D01*
X242969Y137047D01*
X242850Y137953D01*
X242500Y138798D01*
X241944Y139523D01*
X241219Y140079D01*
X240375Y140429D01*
X239469Y140548D01*
D02*
G37*
G36*
X212769Y139886D02*
X211881Y139769D01*
X211054Y139427D01*
X210344Y138882D01*
X209799Y138171D01*
X209456Y137344D01*
X209339Y136457D01*
X209456Y135569D01*
X209799Y134742D01*
X210344Y134032D01*
X211054Y133487D01*
X211881Y133144D01*
X212769Y133027D01*
X213656Y133144D01*
X214483Y133487D01*
X215193Y134032D01*
X215738Y134742D01*
X216081Y135569D01*
X216198Y136457D01*
X216081Y137344D01*
X215738Y138171D01*
X215193Y138882D01*
X214483Y139427D01*
X213656Y139769D01*
X212769Y139886D01*
D02*
G37*
G36*
X178655Y153226D02*
X122026D01*
X121577Y153137D01*
X121196Y152883D01*
X118573Y150259D01*
X118319Y149879D01*
X118229Y149430D01*
Y149095D01*
X117698Y148878D01*
X117442Y148874D01*
X116944Y149523D01*
X116219Y150079D01*
X115375Y150429D01*
X114669Y150522D01*
Y147047D01*
Y143573D01*
X115375Y143666D01*
X116219Y144016D01*
X116944Y144572D01*
X117442Y145221D01*
X117698Y145216D01*
X118229Y145000D01*
Y142466D01*
X115953Y140189D01*
X115375Y140429D01*
X114469Y140548D01*
X113562Y140429D01*
X112718Y140079D01*
X111993Y139523D01*
X111437Y138798D01*
X111087Y137953D01*
X110968Y137047D01*
X111087Y136141D01*
X111437Y135297D01*
X111993Y134572D01*
X112718Y134016D01*
X113562Y133666D01*
X114469Y133546D01*
X115375Y133666D01*
X116219Y134016D01*
X116944Y134572D01*
X117500Y135297D01*
X117850Y136141D01*
X117969Y137047D01*
X117850Y137953D01*
X117611Y138531D01*
X120231Y141152D01*
X120485Y141532D01*
X120574Y141981D01*
Y145321D01*
X121362Y145477D01*
X121437Y145297D01*
X121993Y144572D01*
X122718Y144016D01*
X123562Y143666D01*
X124268Y143573D01*
Y147047D01*
X124469D01*
Y147247D01*
X127943D01*
X127850Y147953D01*
X127500Y148798D01*
X126944Y149523D01*
X126219Y150079D01*
X126183Y150094D01*
X126339Y150881D01*
X132597D01*
X132754Y150094D01*
X132718Y150079D01*
X131993Y149523D01*
X131437Y148798D01*
X131087Y147953D01*
X130994Y147247D01*
X134468D01*
Y146847D01*
X130994D01*
X131087Y146141D01*
X131437Y145297D01*
X131993Y144572D01*
X132718Y144016D01*
X132903Y143939D01*
X132746Y143151D01*
X129400D01*
X128952Y143062D01*
X128571Y142808D01*
X125952Y140189D01*
X125375Y140429D01*
X124469Y140548D01*
X123562Y140429D01*
X122718Y140079D01*
X121993Y139523D01*
X121437Y138798D01*
X121087Y137953D01*
X120968Y137047D01*
X121087Y136141D01*
X121437Y135297D01*
X121993Y134572D01*
X122718Y134016D01*
X123562Y133666D01*
X124469Y133546D01*
X125375Y133666D01*
X126219Y134016D01*
X126944Y134572D01*
X127500Y135297D01*
X127850Y136141D01*
X127969Y137047D01*
X127850Y137953D01*
X127611Y138531D01*
X129886Y140806D01*
X132417D01*
X132634Y140282D01*
X132640Y140019D01*
X131993Y139523D01*
X131437Y138798D01*
X131087Y137953D01*
X130968Y137047D01*
X131087Y136141D01*
X131437Y135297D01*
X131993Y134572D01*
X132718Y134016D01*
X133296Y133776D01*
Y128595D01*
X133026Y128483D01*
X132428Y128024D01*
X131970Y127427D01*
X131682Y126731D01*
X131583Y125984D01*
X131682Y125238D01*
X131970Y124542D01*
X132428Y123944D01*
X133026Y123486D01*
X133722Y123197D01*
X134468Y123099D01*
X135215Y123197D01*
X135911Y123486D01*
X136509Y123944D01*
X136967Y124542D01*
X137256Y125238D01*
X137354Y125984D01*
X137256Y126731D01*
X136967Y127427D01*
X136509Y128024D01*
X135911Y128483D01*
X135641Y128595D01*
Y133776D01*
X136219Y134016D01*
X136944Y134572D01*
X137500Y135297D01*
X137850Y136141D01*
X137969Y137047D01*
X137850Y137953D01*
X137500Y138798D01*
X136944Y139523D01*
X136297Y140019D01*
X136303Y140282D01*
X136520Y140806D01*
X142417D01*
X142634Y140282D01*
X142640Y140019D01*
X141993Y139523D01*
X141437Y138798D01*
X141087Y137953D01*
X140968Y137047D01*
X141087Y136141D01*
X141437Y135297D01*
X141993Y134572D01*
X142718Y134016D01*
X143562Y133666D01*
X144468Y133546D01*
X145375Y133666D01*
X146219Y134016D01*
X146944Y134572D01*
X147500Y135297D01*
X147850Y136141D01*
X147969Y137047D01*
X147850Y137953D01*
X147500Y138798D01*
X146944Y139523D01*
X146297Y140019D01*
X146303Y140282D01*
X146520Y140806D01*
X150330D01*
X150998Y140518D01*
X150998Y140019D01*
Y133576D01*
X157939D01*
Y140019D01*
X157939Y140518D01*
X158607Y140806D01*
X184307D01*
X190828Y134286D01*
Y80370D01*
X190040Y80043D01*
X185056Y85027D01*
X185281Y85569D01*
X185398Y86457D01*
X185281Y87344D01*
X184938Y88171D01*
X184393Y88882D01*
X183683Y89427D01*
X183279Y89594D01*
X183435Y90382D01*
X183952D01*
X184401Y90471D01*
X184781Y90725D01*
X187787Y93731D01*
X188042Y94112D01*
X188131Y94560D01*
Y101467D01*
X188042Y101916D01*
X187787Y102296D01*
X185056Y105027D01*
X185281Y105569D01*
X185398Y106457D01*
X185281Y107344D01*
X184938Y108171D01*
X184393Y108882D01*
X183683Y109427D01*
X182856Y109769D01*
X181968Y109886D01*
X181081Y109769D01*
X180254Y109427D01*
X179544Y108882D01*
X178999Y108171D01*
X178656Y107344D01*
X178539Y106457D01*
X178656Y105569D01*
X178999Y104742D01*
X179544Y104032D01*
X180254Y103487D01*
X181081Y103144D01*
X181968Y103027D01*
X182856Y103144D01*
X183398Y103369D01*
X185786Y100981D01*
Y98183D01*
X184998Y98027D01*
X184938Y98171D01*
X184393Y98882D01*
X183683Y99427D01*
X182856Y99769D01*
X181968Y99886D01*
X181081Y99769D01*
X180254Y99427D01*
X179544Y98882D01*
X178999Y98171D01*
X178774Y97629D01*
X165401D01*
X165075Y98417D01*
X180192Y113534D01*
X180254Y113487D01*
X181081Y113144D01*
X181968Y113027D01*
X182856Y113144D01*
X183683Y113487D01*
X184393Y114032D01*
X184938Y114742D01*
X185281Y115569D01*
X185398Y116457D01*
X185281Y117344D01*
X184938Y118171D01*
X184393Y118882D01*
X183683Y119427D01*
X182856Y119769D01*
X181968Y119886D01*
X181081Y119769D01*
X180254Y119427D01*
X179544Y118882D01*
X178999Y118171D01*
X178656Y117344D01*
X178539Y116457D01*
X178656Y115569D01*
X178731Y115389D01*
X163514Y100172D01*
X158456D01*
X158130Y100960D01*
X180539Y123369D01*
X181081Y123144D01*
X181968Y123027D01*
X182856Y123144D01*
X183683Y123487D01*
X184393Y124032D01*
X184938Y124742D01*
X185281Y125569D01*
X185398Y126457D01*
X185281Y127344D01*
X184938Y128171D01*
X184393Y128882D01*
X183683Y129427D01*
X182856Y129769D01*
X181968Y129886D01*
X181081Y129769D01*
X180254Y129427D01*
X179544Y128882D01*
X178999Y128171D01*
X178656Y127344D01*
X178539Y126457D01*
X178656Y125569D01*
X178881Y125027D01*
X156526Y102673D01*
X150944D01*
X150679Y103085D01*
X150599Y103441D01*
X152460Y105302D01*
X152496Y105326D01*
X180539Y133369D01*
X181081Y133144D01*
X181968Y133027D01*
X182856Y133144D01*
X183683Y133487D01*
X184393Y134032D01*
X184938Y134742D01*
X185281Y135569D01*
X185398Y136457D01*
X185281Y137344D01*
X184938Y138171D01*
X184393Y138882D01*
X183683Y139427D01*
X182856Y139769D01*
X181968Y139886D01*
X181081Y139769D01*
X180254Y139427D01*
X179544Y138882D01*
X178999Y138171D01*
X178656Y137344D01*
X178539Y136457D01*
X178656Y135569D01*
X178881Y135027D01*
X150862Y107008D01*
X150826Y106984D01*
X108372Y64531D01*
X108118Y64150D01*
X108029Y63701D01*
Y58024D01*
X101727Y51723D01*
X97919D01*
X97470Y51633D01*
X97090Y51379D01*
X95796Y50085D01*
X95477Y50148D01*
X95023Y50426D01*
Y110074D01*
X94934Y110523D01*
X94680Y110904D01*
X90556Y115027D01*
X90781Y115569D01*
X90898Y116457D01*
X90781Y117344D01*
X90438Y118171D01*
X89893Y118882D01*
X89183Y119427D01*
X88356Y119769D01*
X87468Y119886D01*
X86581Y119769D01*
X85754Y119427D01*
X85044Y118882D01*
X84499Y118171D01*
X84156Y117344D01*
X84039Y116457D01*
X84156Y115569D01*
X84499Y114742D01*
X85044Y114032D01*
X85754Y113487D01*
X86581Y113144D01*
X87468Y113027D01*
X88356Y113144D01*
X88898Y113369D01*
X92678Y109589D01*
Y50723D01*
X90626Y48671D01*
X90375Y48775D01*
X89468Y48895D01*
X88562Y48775D01*
X87718Y48425D01*
X86993Y47869D01*
X86437Y47144D01*
X86087Y46300D01*
X85968Y45394D01*
X86087Y44488D01*
X86437Y43643D01*
X86993Y42918D01*
X87718Y42362D01*
X88562Y42012D01*
X89468Y41893D01*
X90375Y42012D01*
X91219Y42362D01*
X91944Y42918D01*
X92500Y43643D01*
X92703Y44133D01*
X93491Y43977D01*
Y21074D01*
X90952Y18536D01*
X90375Y18775D01*
X89468Y18894D01*
X88562Y18775D01*
X87718Y18426D01*
X86993Y17869D01*
X86437Y17144D01*
X86087Y16300D01*
X85968Y15394D01*
X86087Y14488D01*
X86437Y13643D01*
X86993Y12918D01*
X87590Y12460D01*
X87520Y11961D01*
X87379Y11672D01*
X82554D01*
X82061Y12189D01*
X81944Y12918D01*
X82500Y13643D01*
X82850Y14488D01*
X82969Y15394D01*
X82850Y16300D01*
X82500Y17144D01*
X81944Y17869D01*
X81219Y18426D01*
X80375Y18775D01*
X79469Y18894D01*
X78562Y18775D01*
X77718Y18426D01*
X76993Y17869D01*
X76437Y17144D01*
X76087Y16300D01*
X75968Y15394D01*
X76087Y14488D01*
X76437Y13643D01*
X76993Y12918D01*
X77718Y12362D01*
X78562Y12012D01*
X79184Y11930D01*
Y11799D01*
X79273Y11351D01*
X79527Y10970D01*
X80827Y9671D01*
X81207Y9417D01*
X81656Y9328D01*
X191614D01*
X192063Y9417D01*
X192443Y9671D01*
X195479Y12707D01*
X195733Y13087D01*
X195822Y13536D01*
Y34937D01*
X203323Y42438D01*
X204094Y42118D01*
X205000Y41999D01*
X205906Y42118D01*
X206750Y42468D01*
X207475Y43025D01*
X208032Y43750D01*
X208139Y44009D01*
X208927Y43852D01*
Y21085D01*
X206484Y18642D01*
X205906Y18881D01*
X205000Y19001D01*
X204094Y18881D01*
X203250Y18532D01*
X202524Y17976D01*
X201968Y17250D01*
X201619Y16406D01*
X201499Y15500D01*
X201619Y14594D01*
X201968Y13750D01*
X202524Y13025D01*
X203250Y12468D01*
X204094Y12118D01*
X205000Y11999D01*
X205906Y12118D01*
X206750Y12468D01*
X207475Y13025D01*
X208032Y13750D01*
X208382Y14594D01*
X208501Y15500D01*
X208382Y16406D01*
X208142Y16984D01*
X210928Y19770D01*
X211182Y20150D01*
X211272Y20599D01*
Y43417D01*
X211609Y43578D01*
X212059Y43631D01*
X212525Y43025D01*
X213250Y42468D01*
X214094Y42118D01*
X215000Y41999D01*
X215906Y42118D01*
X216750Y42468D01*
X217476Y43025D01*
X218032Y43750D01*
X218040Y43770D01*
X218828Y43613D01*
Y20986D01*
X216484Y18642D01*
X215906Y18881D01*
X215000Y19001D01*
X214094Y18881D01*
X213250Y18532D01*
X212525Y17976D01*
X211968Y17250D01*
X211618Y16406D01*
X211499Y15500D01*
X211618Y14594D01*
X211968Y13750D01*
X212525Y13025D01*
X213250Y12468D01*
X214094Y12118D01*
X215000Y11999D01*
X215906Y12118D01*
X216750Y12468D01*
X217476Y13025D01*
X218032Y13750D01*
X218382Y14594D01*
X218501Y15500D01*
X218382Y16406D01*
X218142Y16984D01*
X220829Y19671D01*
X221083Y20051D01*
X221172Y20500D01*
Y43613D01*
X221960Y43770D01*
X221968Y43750D01*
X222524Y43025D01*
X223250Y42468D01*
X224094Y42118D01*
X224648Y42046D01*
Y40179D01*
X224738Y39730D01*
X224992Y39350D01*
X227671Y36671D01*
X228051Y36417D01*
X228500Y36327D01*
X246000D01*
X246449Y36417D01*
X246829Y36671D01*
X250829Y40671D01*
X251083Y41051D01*
X251172Y41500D01*
Y43613D01*
X251960Y43770D01*
X251968Y43750D01*
X252524Y43025D01*
X253250Y42468D01*
X254094Y42118D01*
X255000Y41999D01*
X255906Y42118D01*
X256750Y42468D01*
X257475Y43025D01*
X258032Y43750D01*
X258382Y44594D01*
X258501Y45500D01*
X258382Y46406D01*
X258032Y47250D01*
X257475Y47976D01*
X256750Y48532D01*
X255906Y48882D01*
X255000Y49001D01*
X254094Y48882D01*
X253250Y48532D01*
X252524Y47976D01*
X251968Y47250D01*
X251960Y47230D01*
X251172Y47387D01*
Y50000D01*
X251083Y50449D01*
X250829Y50829D01*
X246997Y54661D01*
X247365Y55407D01*
X247804Y55349D01*
X248551Y55447D01*
X249246Y55736D01*
X249844Y56194D01*
X250302Y56792D01*
X250591Y57488D01*
X250689Y58234D01*
X250591Y58981D01*
X250302Y59677D01*
X249844Y60275D01*
X249246Y60733D01*
X248551Y61021D01*
X247804Y61120D01*
X247057Y61021D01*
X246607Y60835D01*
X246161Y61502D01*
X279942Y95284D01*
X304074D01*
X304299Y94742D01*
X304844Y94032D01*
X305554Y93487D01*
X305619Y93460D01*
X305462Y92672D01*
X305248D01*
X304799Y92583D01*
X304419Y92329D01*
X301445Y89355D01*
X301191Y88974D01*
X301101Y88526D01*
Y82759D01*
X269171Y50829D01*
X268917Y50449D01*
X268828Y50000D01*
Y47387D01*
X268040Y47230D01*
X268032Y47250D01*
X267476Y47976D01*
X266750Y48532D01*
X265906Y48882D01*
X265000Y49001D01*
X264094Y48882D01*
X263250Y48532D01*
X262525Y47976D01*
X261968Y47250D01*
X261618Y46406D01*
X261499Y45500D01*
X261618Y44594D01*
X261968Y43750D01*
X262525Y43025D01*
X263250Y42468D01*
X264094Y42118D01*
X265000Y41999D01*
X265906Y42118D01*
X266750Y42468D01*
X267476Y43025D01*
X268032Y43750D01*
X268040Y43770D01*
X268828Y43613D01*
Y20986D01*
X266484Y18642D01*
X265906Y18881D01*
X265000Y19001D01*
X264094Y18881D01*
X263250Y18532D01*
X262525Y17976D01*
X261968Y17250D01*
X261618Y16406D01*
X261499Y15500D01*
X261618Y14594D01*
X261968Y13750D01*
X262525Y13025D01*
X263250Y12468D01*
X264094Y12118D01*
X265000Y11999D01*
X265906Y12118D01*
X266750Y12468D01*
X267476Y13025D01*
X268032Y13750D01*
X268382Y14594D01*
X268501Y15500D01*
X268382Y16406D01*
X268142Y16984D01*
X270829Y19671D01*
X271083Y20051D01*
X271172Y20500D01*
Y43613D01*
X271960Y43770D01*
X271968Y43750D01*
X272524Y43025D01*
X273250Y42468D01*
X274094Y42118D01*
X275000Y41999D01*
X275906Y42118D01*
X276750Y42468D01*
X277476Y43025D01*
X278032Y43750D01*
X278381Y44594D01*
X278501Y45500D01*
X278381Y46406D01*
X278142Y46984D01*
X296442Y65284D01*
X304074D01*
X304299Y64742D01*
X304844Y64032D01*
X305554Y63487D01*
X306381Y63144D01*
X307269Y63027D01*
X308156Y63144D01*
X308983Y63487D01*
X309693Y64032D01*
X309886Y64282D01*
X310751Y64116D01*
X310796Y63955D01*
X295745Y48903D01*
X295000Y49001D01*
X294094Y48882D01*
X293250Y48532D01*
X292525Y47976D01*
X291968Y47250D01*
X291618Y46406D01*
X291499Y45500D01*
X291618Y44594D01*
X291968Y43750D01*
X292525Y43025D01*
X293250Y42468D01*
X294094Y42118D01*
X295000Y41999D01*
X295906Y42118D01*
X296750Y42468D01*
X297476Y43025D01*
X298032Y43750D01*
X298381Y44594D01*
X298501Y45500D01*
X298381Y46406D01*
X298032Y47250D01*
X297761Y47603D01*
X308616Y58457D01*
X309341Y58069D01*
X309328Y58000D01*
Y21486D01*
X306484Y18642D01*
X305906Y18881D01*
X305000Y19001D01*
X304094Y18881D01*
X303250Y18532D01*
X302524Y17976D01*
X301968Y17250D01*
X301619Y16406D01*
X301499Y15500D01*
X301619Y14594D01*
X301968Y13750D01*
X302524Y13025D01*
X303250Y12468D01*
X304094Y12118D01*
X305000Y11999D01*
X305906Y12118D01*
X306750Y12468D01*
X307475Y13025D01*
X308032Y13750D01*
X308382Y14594D01*
X308501Y15500D01*
X308382Y16406D01*
X308142Y16984D01*
X311329Y20171D01*
X311583Y20551D01*
X311672Y21000D01*
Y42842D01*
X312460Y43109D01*
X312525Y43025D01*
X313250Y42468D01*
X314094Y42118D01*
X315000Y41999D01*
X315906Y42118D01*
X316750Y42468D01*
X317476Y43025D01*
X318032Y43750D01*
X318382Y44594D01*
X318501Y45500D01*
X318382Y46406D01*
X318032Y47250D01*
X317476Y47976D01*
X316750Y48532D01*
X315906Y48882D01*
X315000Y49001D01*
X314094Y48882D01*
X313250Y48532D01*
X312525Y47976D01*
X312460Y47891D01*
X311672Y48158D01*
Y57514D01*
X315829Y61671D01*
X316083Y62051D01*
X316173Y62500D01*
Y78725D01*
X316083Y79174D01*
X315829Y79554D01*
X310356Y85027D01*
X310581Y85569D01*
X310698Y86457D01*
X310581Y87344D01*
X310238Y88171D01*
X309693Y88882D01*
X308983Y89427D01*
X308709Y89540D01*
X308866Y90328D01*
X310000D01*
X310449Y90417D01*
X310829Y90671D01*
X313032Y92874D01*
X313286Y93255D01*
X313376Y93703D01*
Y101522D01*
X313286Y101971D01*
X313032Y102351D01*
X310356Y105027D01*
X310581Y105569D01*
X310698Y106457D01*
X310581Y107344D01*
X310238Y108171D01*
X309693Y108882D01*
X308983Y109427D01*
X308156Y109769D01*
X307269Y109886D01*
X306381Y109769D01*
X305554Y109427D01*
X304844Y108882D01*
X304299Y108171D01*
X303956Y107344D01*
X303839Y106457D01*
X303956Y105569D01*
X304299Y104742D01*
X304844Y104032D01*
X305554Y103487D01*
X306381Y103144D01*
X307269Y103027D01*
X308156Y103144D01*
X308698Y103369D01*
X311031Y101036D01*
Y98316D01*
X310243Y98160D01*
X310238Y98171D01*
X309693Y98882D01*
X308983Y99427D01*
X308156Y99769D01*
X307269Y99886D01*
X306381Y99769D01*
X305554Y99427D01*
X304844Y98882D01*
X304299Y98171D01*
X304074Y97629D01*
X290838D01*
X290760Y98417D01*
X290760Y98417D01*
X291141Y98671D01*
X305839Y113369D01*
X306381Y113144D01*
X307269Y113027D01*
X308156Y113144D01*
X308983Y113487D01*
X309693Y114032D01*
X310238Y114742D01*
X310581Y115569D01*
X310698Y116457D01*
X310581Y117344D01*
X310238Y118171D01*
X309693Y118882D01*
X308983Y119427D01*
X308156Y119769D01*
X307269Y119886D01*
X306381Y119769D01*
X305554Y119427D01*
X304844Y118882D01*
X304299Y118171D01*
X303956Y117344D01*
X303839Y116457D01*
X303956Y115569D01*
X304181Y115027D01*
X289826Y100672D01*
X284010D01*
X283922Y100800D01*
X283829Y101671D01*
X305618Y123460D01*
X306381Y123144D01*
X307269Y123027D01*
X308156Y123144D01*
X308983Y123487D01*
X309693Y124032D01*
X310238Y124742D01*
X310581Y125569D01*
X310698Y126457D01*
X310581Y127344D01*
X310238Y128171D01*
X309693Y128882D01*
X308983Y129427D01*
X308156Y129769D01*
X307269Y129886D01*
X306381Y129769D01*
X305554Y129427D01*
X304844Y128882D01*
X304299Y128171D01*
X303956Y127344D01*
X303839Y126457D01*
X303956Y125569D01*
X304089Y125248D01*
X282514Y103673D01*
X277500D01*
X277311Y103635D01*
X276924Y104361D01*
X305904Y133342D01*
X306381Y133144D01*
X307269Y133027D01*
X308156Y133144D01*
X308983Y133487D01*
X309693Y134032D01*
X310238Y134742D01*
X310581Y135569D01*
X310698Y136457D01*
X310581Y137344D01*
X310238Y138171D01*
X309693Y138882D01*
X308983Y139427D01*
X308156Y139769D01*
X307269Y139886D01*
X306381Y139769D01*
X305554Y139427D01*
X304844Y138882D01*
X304299Y138171D01*
X303956Y137344D01*
X303839Y136457D01*
X303956Y135569D01*
X304208Y134961D01*
X233671Y64424D01*
X233417Y64044D01*
X233328Y63595D01*
Y56486D01*
X229014Y52172D01*
X223500D01*
X223051Y52083D01*
X222671Y51829D01*
X221122Y50280D01*
X220334Y50606D01*
Y110063D01*
X220245Y110512D01*
X219991Y110892D01*
X215856Y115027D01*
X216081Y115569D01*
X216198Y116457D01*
X216081Y117344D01*
X215738Y118171D01*
X215193Y118882D01*
X214483Y119427D01*
X213656Y119769D01*
X212769Y119886D01*
X211881Y119769D01*
X211054Y119427D01*
X210344Y118882D01*
X209799Y118171D01*
X209456Y117344D01*
X209339Y116457D01*
X209456Y115569D01*
X209799Y114742D01*
X210344Y114032D01*
X211054Y113487D01*
X211881Y113144D01*
X212769Y113027D01*
X213656Y113144D01*
X214198Y113369D01*
X217989Y109578D01*
Y50566D01*
X216188Y48765D01*
X215906Y48882D01*
X215000Y49001D01*
X214094Y48882D01*
X213250Y48532D01*
X212525Y47976D01*
X212059Y47369D01*
X211609Y47422D01*
X211272Y47583D01*
Y47901D01*
X211182Y48350D01*
X210928Y48730D01*
X195920Y63739D01*
Y135962D01*
X195830Y136410D01*
X195576Y136791D01*
X179484Y152883D01*
X179104Y153137D01*
X178655Y153226D01*
D02*
G37*
G36*
X87468Y139886D02*
X86581Y139769D01*
X85754Y139427D01*
X85044Y138882D01*
X84499Y138171D01*
X84156Y137344D01*
X84039Y136457D01*
X84156Y135569D01*
X84499Y134742D01*
X85044Y134032D01*
X85754Y133487D01*
X86581Y133144D01*
X87468Y133027D01*
X88356Y133144D01*
X89183Y133487D01*
X89893Y134032D01*
X90438Y134742D01*
X90781Y135569D01*
X90898Y136457D01*
X90781Y137344D01*
X90438Y138171D01*
X89893Y138882D01*
X89183Y139427D01*
X88356Y139769D01*
X87468Y139886D01*
D02*
G37*
G36*
X164669Y128843D02*
Y126184D01*
X167327D01*
X167255Y126731D01*
X166967Y127427D01*
X166509Y128024D01*
X165911Y128483D01*
X165215Y128771D01*
X164669Y128843D01*
D02*
G37*
G36*
X164269D02*
X163722Y128771D01*
X163026Y128483D01*
X162428Y128024D01*
X161970Y127427D01*
X161681Y126731D01*
X161609Y126184D01*
X164269D01*
Y128843D01*
D02*
G37*
G36*
X167327Y125784D02*
X164669D01*
Y123125D01*
X165215Y123197D01*
X165911Y123486D01*
X166509Y123944D01*
X166967Y124542D01*
X167255Y125238D01*
X167327Y125784D01*
D02*
G37*
G36*
X164269D02*
X161609D01*
X161681Y125238D01*
X161970Y124542D01*
X162428Y123944D01*
X163026Y123486D01*
X163722Y123197D01*
X164269Y123125D01*
Y125784D01*
D02*
G37*
G36*
X212769Y129886D02*
X211881Y129769D01*
X211054Y129427D01*
X210344Y128882D01*
X209799Y128171D01*
X209456Y127344D01*
X209339Y126457D01*
X209456Y125569D01*
X209799Y124742D01*
X210344Y124032D01*
X211054Y123487D01*
X211881Y123144D01*
X212769Y123027D01*
X213656Y123144D01*
X214483Y123487D01*
X215193Y124032D01*
X215738Y124742D01*
X216081Y125569D01*
X216198Y126457D01*
X216081Y127344D01*
X215738Y128171D01*
X215193Y128882D01*
X214483Y129427D01*
X213656Y129769D01*
X212769Y129886D01*
D02*
G37*
G36*
X87468D02*
X86581Y129769D01*
X85754Y129427D01*
X85044Y128882D01*
X84499Y128171D01*
X84156Y127344D01*
X84039Y126457D01*
X84156Y125569D01*
X84499Y124742D01*
X85044Y124032D01*
X85754Y123487D01*
X86581Y123144D01*
X87468Y123027D01*
X88356Y123144D01*
X89183Y123487D01*
X89893Y124032D01*
X90438Y124742D01*
X90781Y125569D01*
X90898Y126457D01*
X90781Y127344D01*
X90438Y128171D01*
X89893Y128882D01*
X89183Y129427D01*
X88356Y129769D01*
X87468Y129886D01*
D02*
G37*
G36*
X374216Y134292D02*
Y118310D01*
X390198D01*
X390014Y120644D01*
X389421Y123116D01*
X388448Y125464D01*
X387120Y127631D01*
X385469Y129564D01*
X383537Y131215D01*
X381369Y132543D01*
X379021Y133515D01*
X376550Y134109D01*
X374216Y134292D01*
D02*
G37*
G36*
X373816D02*
X371482Y134109D01*
X369010Y133515D01*
X366662Y132543D01*
X364495Y131215D01*
X362562Y129564D01*
X360911Y127631D01*
X359583Y125464D01*
X358611Y123116D01*
X358017Y120644D01*
X357834Y118310D01*
X373816D01*
Y134292D01*
D02*
G37*
G36*
X19885D02*
Y118310D01*
X35867D01*
X35684Y120644D01*
X35090Y123116D01*
X34117Y125464D01*
X32789Y127631D01*
X31139Y129564D01*
X29206Y131215D01*
X27039Y132543D01*
X24690Y133515D01*
X22219Y134109D01*
X19885Y134292D01*
D02*
G37*
G36*
X19485D02*
X17151Y134109D01*
X14680Y133515D01*
X12331Y132543D01*
X10164Y131215D01*
X8231Y129564D01*
X6581Y127631D01*
X5253Y125464D01*
X4280Y123116D01*
X3686Y120644D01*
X3503Y118310D01*
X19485D01*
Y134292D01*
D02*
G37*
G36*
X212769Y109886D02*
X211881Y109769D01*
X211054Y109427D01*
X210344Y108882D01*
X209799Y108171D01*
X209456Y107344D01*
X209339Y106457D01*
X209456Y105569D01*
X209799Y104742D01*
X210344Y104032D01*
X211054Y103487D01*
X211881Y103144D01*
X212769Y103027D01*
X213656Y103144D01*
X214483Y103487D01*
X215193Y104032D01*
X215738Y104742D01*
X216081Y105569D01*
X216198Y106457D01*
X216081Y107344D01*
X215738Y108171D01*
X215193Y108882D01*
X214483Y109427D01*
X213656Y109769D01*
X212769Y109886D01*
D02*
G37*
G36*
X87468D02*
X86581Y109769D01*
X85754Y109427D01*
X85044Y108882D01*
X84499Y108171D01*
X84156Y107344D01*
X84039Y106457D01*
X84156Y105569D01*
X84499Y104742D01*
X85044Y104032D01*
X85754Y103487D01*
X86581Y103144D01*
X87468Y103027D01*
X88356Y103144D01*
X89183Y103487D01*
X89893Y104032D01*
X90438Y104742D01*
X90781Y105569D01*
X90898Y106457D01*
X90781Y107344D01*
X90438Y108171D01*
X89893Y108882D01*
X89183Y109427D01*
X88356Y109769D01*
X87468Y109886D01*
D02*
G37*
G36*
X390198Y117910D02*
X374216D01*
Y101928D01*
X376550Y102112D01*
X379021Y102705D01*
X381369Y103678D01*
X383537Y105006D01*
X385469Y106657D01*
X387120Y108589D01*
X388448Y110757D01*
X389421Y113105D01*
X390014Y115576D01*
X390198Y117910D01*
D02*
G37*
G36*
X373816D02*
X357834D01*
X358017Y115576D01*
X358611Y113105D01*
X359583Y110757D01*
X360911Y108589D01*
X362562Y106657D01*
X364495Y105006D01*
X366662Y103678D01*
X369010Y102705D01*
X371482Y102112D01*
X373816Y101928D01*
Y117910D01*
D02*
G37*
G36*
X35867D02*
X19885D01*
Y101928D01*
X22219Y102112D01*
X24690Y102705D01*
X27039Y103678D01*
X29206Y105006D01*
X31139Y106657D01*
X32789Y108589D01*
X34117Y110757D01*
X35090Y113105D01*
X35684Y115576D01*
X35867Y117910D01*
D02*
G37*
G36*
X19485D02*
X3503D01*
X3686Y115576D01*
X4280Y113105D01*
X5253Y110757D01*
X6581Y108589D01*
X8231Y106657D01*
X10164Y105006D01*
X12331Y103678D01*
X14680Y102705D01*
X17151Y102112D01*
X19485Y101928D01*
Y117910D01*
D02*
G37*
G36*
X212769Y99886D02*
X211881Y99769D01*
X211054Y99427D01*
X210344Y98882D01*
X209799Y98171D01*
X209456Y97344D01*
X209339Y96457D01*
X209456Y95569D01*
X209799Y94742D01*
X210344Y94032D01*
X211054Y93487D01*
X211881Y93144D01*
X212769Y93027D01*
X213656Y93144D01*
X214483Y93487D01*
X215193Y94032D01*
X215738Y94742D01*
X216081Y95569D01*
X216198Y96457D01*
X216081Y97344D01*
X215738Y98171D01*
X215193Y98882D01*
X214483Y99427D01*
X213656Y99769D01*
X212769Y99886D01*
D02*
G37*
G36*
X87468D02*
X86581Y99769D01*
X85754Y99427D01*
X85044Y98882D01*
X84499Y98171D01*
X84156Y97344D01*
X84039Y96457D01*
X84156Y95569D01*
X84499Y94742D01*
X85044Y94032D01*
X85754Y93487D01*
X86581Y93144D01*
X87468Y93027D01*
X88356Y93144D01*
X89183Y93487D01*
X89893Y94032D01*
X90438Y94742D01*
X90781Y95569D01*
X90898Y96457D01*
X90781Y97344D01*
X90438Y98171D01*
X89893Y98882D01*
X89183Y99427D01*
X88356Y99769D01*
X87468Y99886D01*
D02*
G37*
G36*
X212769Y89886D02*
X211881Y89769D01*
X211054Y89427D01*
X210344Y88882D01*
X209799Y88171D01*
X209456Y87344D01*
X209339Y86457D01*
X209456Y85569D01*
X209799Y84742D01*
X210344Y84032D01*
X211054Y83487D01*
X211881Y83144D01*
X212769Y83027D01*
X213656Y83144D01*
X214483Y83487D01*
X215193Y84032D01*
X215738Y84742D01*
X216081Y85569D01*
X216198Y86457D01*
X216081Y87344D01*
X215738Y88171D01*
X215193Y88882D01*
X214483Y89427D01*
X213656Y89769D01*
X212769Y89886D01*
D02*
G37*
G36*
X87468D02*
X86581Y89769D01*
X85754Y89427D01*
X85044Y88882D01*
X84499Y88171D01*
X84156Y87344D01*
X84039Y86457D01*
X84156Y85569D01*
X84499Y84742D01*
X85044Y84032D01*
X85754Y83487D01*
X86581Y83144D01*
X87468Y83027D01*
X88356Y83144D01*
X89183Y83487D01*
X89893Y84032D01*
X90438Y84742D01*
X90781Y85569D01*
X90898Y86457D01*
X90781Y87344D01*
X90438Y88171D01*
X89893Y88882D01*
X89183Y89427D01*
X88356Y89769D01*
X87468Y89886D01*
D02*
G37*
G36*
X212769Y79886D02*
X211881Y79769D01*
X211054Y79427D01*
X210344Y78882D01*
X209799Y78171D01*
X209456Y77344D01*
X209339Y76457D01*
X209456Y75569D01*
X209799Y74742D01*
X210344Y74032D01*
X211054Y73487D01*
X211881Y73144D01*
X212769Y73027D01*
X213656Y73144D01*
X214483Y73487D01*
X215193Y74032D01*
X215738Y74742D01*
X216081Y75569D01*
X216198Y76457D01*
X216081Y77344D01*
X215738Y78171D01*
X215193Y78882D01*
X214483Y79427D01*
X213656Y79769D01*
X212769Y79886D01*
D02*
G37*
G36*
X87468D02*
X86581Y79769D01*
X85754Y79427D01*
X85044Y78882D01*
X84499Y78171D01*
X84156Y77344D01*
X84039Y76457D01*
X84156Y75569D01*
X84499Y74742D01*
X85044Y74032D01*
X85754Y73487D01*
X86581Y73144D01*
X87468Y73027D01*
X88356Y73144D01*
X89183Y73487D01*
X89893Y74032D01*
X90438Y74742D01*
X90781Y75569D01*
X90898Y76457D01*
X90781Y77344D01*
X90438Y78171D01*
X89893Y78882D01*
X89183Y79427D01*
X88356Y79769D01*
X87468Y79886D01*
D02*
G37*
G36*
X21752Y72157D02*
X21005Y72059D01*
X20309Y71770D01*
X19712Y71312D01*
X19253Y70714D01*
X18965Y70018D01*
X18867Y69272D01*
X18965Y68525D01*
X19253Y67829D01*
X19712Y67231D01*
X20309Y66773D01*
X21005Y66485D01*
X21752Y66386D01*
X22499Y66485D01*
X23195Y66773D01*
X23792Y67231D01*
X24251Y67829D01*
X24539Y68525D01*
X24637Y69272D01*
X24539Y70018D01*
X24251Y70714D01*
X23792Y71312D01*
X23195Y71770D01*
X22499Y72059D01*
X21752Y72157D01*
D02*
G37*
G36*
X381666Y71842D02*
X380919Y71744D01*
X380223Y71455D01*
X379626Y70997D01*
X379167Y70399D01*
X378879Y69703D01*
X378781Y68957D01*
X378879Y68210D01*
X379167Y67514D01*
X379626Y66917D01*
X380223Y66458D01*
X380919Y66170D01*
X381666Y66071D01*
X382413Y66170D01*
X383109Y66458D01*
X383706Y66917D01*
X384165Y67514D01*
X384453Y68210D01*
X384552Y68957D01*
X384453Y69703D01*
X384165Y70399D01*
X383706Y70997D01*
X383109Y71455D01*
X382413Y71744D01*
X381666Y71842D01*
D02*
G37*
G36*
X216168Y69857D02*
X209368D01*
Y63057D01*
X216168D01*
Y69857D01*
D02*
G37*
G36*
X90869D02*
X84069D01*
Y63057D01*
X90869D01*
Y69857D01*
D02*
G37*
G36*
X102169Y61127D02*
Y58468D01*
X104827D01*
X104755Y59014D01*
X104467Y59710D01*
X104009Y60308D01*
X103411Y60767D01*
X102715Y61055D01*
X102169Y61127D01*
D02*
G37*
G36*
X227969Y61127D02*
Y58468D01*
X230627D01*
X230556Y59014D01*
X230267Y59710D01*
X229809Y60308D01*
X229211Y60767D01*
X228515Y61055D01*
X227969Y61127D01*
D02*
G37*
G36*
X259968Y61127D02*
Y58468D01*
X262628D01*
X262556Y59014D01*
X262267Y59710D01*
X261809Y60308D01*
X261211Y60767D01*
X260515Y61055D01*
X259968Y61127D01*
D02*
G37*
G36*
X259569D02*
X259022Y61055D01*
X258326Y60767D01*
X257728Y60308D01*
X257270Y59710D01*
X256981Y59014D01*
X256909Y58468D01*
X259569D01*
Y61127D01*
D02*
G37*
G36*
X227569D02*
X227022Y61055D01*
X226326Y60767D01*
X225728Y60308D01*
X225270Y59710D01*
X224981Y59014D01*
X224909Y58468D01*
X227569D01*
Y61127D01*
D02*
G37*
G36*
X101769D02*
X101222Y61055D01*
X100526Y60767D01*
X99928Y60308D01*
X99470Y59710D01*
X99181Y59014D01*
X99110Y58468D01*
X101769D01*
Y61127D01*
D02*
G37*
G36*
X227569Y58068D02*
X224909D01*
X224981Y57521D01*
X225270Y56825D01*
X225728Y56227D01*
X226326Y55769D01*
X227022Y55481D01*
X227569Y55409D01*
Y58068D01*
D02*
G37*
G36*
X104827D02*
X102169D01*
Y55409D01*
X102715Y55481D01*
X103411Y55769D01*
X104009Y56227D01*
X104467Y56825D01*
X104755Y57521D01*
X104827Y58068D01*
D02*
G37*
G36*
X262628D02*
X259968D01*
Y55409D01*
X260515Y55481D01*
X261211Y55769D01*
X261809Y56227D01*
X262267Y56825D01*
X262556Y57521D01*
X262628Y58068D01*
D02*
G37*
G36*
X259569D02*
X256909D01*
X256981Y57521D01*
X257270Y56825D01*
X257728Y56227D01*
X258326Y55769D01*
X259022Y55481D01*
X259569Y55409D01*
Y58068D01*
D02*
G37*
G36*
X101769D02*
X99110D01*
X99181Y57521D01*
X99470Y56825D01*
X99928Y56227D01*
X100526Y55769D01*
X101222Y55481D01*
X101769Y55409D01*
Y58068D01*
D02*
G37*
G36*
X230627D02*
X227969D01*
Y55409D01*
X228515Y55481D01*
X229211Y55769D01*
X229809Y56227D01*
X230267Y56825D01*
X230556Y57521D01*
X230627Y58068D01*
D02*
G37*
G36*
X267769Y61153D02*
X267022Y61055D01*
X266326Y60767D01*
X265728Y60308D01*
X265270Y59710D01*
X264982Y59014D01*
X264883Y58268D01*
X264982Y57521D01*
X265270Y56825D01*
X265728Y56227D01*
X266326Y55769D01*
X267022Y55481D01*
X267769Y55382D01*
X268515Y55481D01*
X269211Y55769D01*
X269809Y56227D01*
X270267Y56825D01*
X270555Y57521D01*
X270654Y58268D01*
X270555Y59014D01*
X270267Y59710D01*
X269809Y60308D01*
X269211Y60767D01*
X268515Y61055D01*
X267769Y61153D01*
D02*
G37*
G36*
X305000Y49001D02*
X304094Y48882D01*
X303250Y48532D01*
X302524Y47976D01*
X301968Y47250D01*
X301619Y46406D01*
X301499Y45500D01*
X301619Y44594D01*
X301968Y43750D01*
X302524Y43025D01*
X303250Y42468D01*
X304094Y42118D01*
X305000Y41999D01*
X305906Y42118D01*
X306750Y42468D01*
X307475Y43025D01*
X308032Y43750D01*
X308382Y44594D01*
X308501Y45500D01*
X308382Y46406D01*
X308032Y47250D01*
X307475Y47976D01*
X306750Y48532D01*
X305906Y48882D01*
X305000Y49001D01*
D02*
G37*
G36*
X285000D02*
X284094Y48882D01*
X283250Y48532D01*
X282524Y47976D01*
X281968Y47250D01*
X281618Y46406D01*
X281499Y45500D01*
X281618Y44594D01*
X281968Y43750D01*
X282524Y43025D01*
X283250Y42468D01*
X284094Y42118D01*
X285000Y41999D01*
X285906Y42118D01*
X286750Y42468D01*
X287475Y43025D01*
X288032Y43750D01*
X288382Y44594D01*
X288501Y45500D01*
X288382Y46406D01*
X288032Y47250D01*
X287475Y47976D01*
X286750Y48532D01*
X285906Y48882D01*
X285000Y49001D01*
D02*
G37*
G36*
X79469Y48895D02*
X78562Y48775D01*
X77718Y48425D01*
X76993Y47869D01*
X76437Y47144D01*
X76087Y46300D01*
X75968Y45394D01*
X76087Y44488D01*
X76437Y43643D01*
X76993Y42918D01*
X77718Y42362D01*
X78562Y42012D01*
X79469Y41893D01*
X80375Y42012D01*
X81219Y42362D01*
X81944Y42918D01*
X82500Y43643D01*
X82850Y44488D01*
X82969Y45394D01*
X82850Y46300D01*
X82500Y47144D01*
X81944Y47869D01*
X81219Y48425D01*
X80375Y48775D01*
X79469Y48895D01*
D02*
G37*
G36*
X15223Y32743D02*
X8281D01*
Y25801D01*
X15223D01*
Y32743D01*
D02*
G37*
G36*
X381666Y41842D02*
X380919Y41744D01*
X380223Y41455D01*
X379626Y40997D01*
X379167Y40399D01*
X378879Y39703D01*
X378781Y38957D01*
X378879Y38210D01*
X379167Y37514D01*
X379626Y36917D01*
X380223Y36458D01*
X380494Y36346D01*
Y32228D01*
X379916Y31988D01*
X379191Y31432D01*
X378634Y30707D01*
X378285Y29863D01*
X378165Y28957D01*
X378285Y28051D01*
X378524Y27473D01*
X373150Y22099D01*
X372572Y22338D01*
X371666Y22457D01*
X370760Y22338D01*
X369916Y21989D01*
X369191Y21432D01*
X368634Y20707D01*
X368285Y19863D01*
X368165Y18957D01*
X368285Y18051D01*
X368634Y17206D01*
X369191Y16481D01*
X369916Y15925D01*
X370760Y15575D01*
X371666Y15456D01*
X372572Y15575D01*
X373417Y15925D01*
X374142Y16481D01*
X374698Y17206D01*
X375048Y18051D01*
X375167Y18957D01*
X375048Y19863D01*
X374808Y20441D01*
X380182Y25815D01*
X380760Y25575D01*
X381666Y25456D01*
X382572Y25575D01*
X383417Y25925D01*
X384142Y26481D01*
X384698Y27206D01*
X385048Y28051D01*
X385167Y28957D01*
X385048Y29863D01*
X384698Y30707D01*
X384142Y31432D01*
X383417Y31988D01*
X382839Y32228D01*
Y36346D01*
X383109Y36458D01*
X383706Y36917D01*
X384165Y37514D01*
X384453Y38210D01*
X384552Y38957D01*
X384453Y39703D01*
X384165Y40399D01*
X383706Y40997D01*
X383109Y41455D01*
X382413Y41744D01*
X381666Y41842D01*
D02*
G37*
G36*
X21752Y42157D02*
X21005Y42059D01*
X20309Y41770D01*
X19712Y41312D01*
X19253Y40714D01*
X18965Y40018D01*
X18867Y39272D01*
X18965Y38525D01*
X19253Y37829D01*
X19712Y37231D01*
X20309Y36773D01*
X20579Y36661D01*
Y22543D01*
X20002Y22303D01*
X19276Y21747D01*
X18720Y21022D01*
X18370Y20178D01*
X18251Y19272D01*
X18370Y18366D01*
X18610Y17788D01*
X13236Y12414D01*
X12658Y12653D01*
X11752Y12773D01*
X10846Y12653D01*
X10002Y12303D01*
X9277Y11747D01*
X8720Y11022D01*
X8370Y10178D01*
X8251Y9272D01*
X8370Y8366D01*
X8720Y7521D01*
X9277Y6796D01*
X10002Y6240D01*
X10846Y5890D01*
X11752Y5771D01*
X12658Y5890D01*
X13502Y6240D01*
X14227Y6796D01*
X14784Y7521D01*
X15134Y8366D01*
X15253Y9272D01*
X15134Y10178D01*
X14894Y10756D01*
X20268Y16129D01*
X20846Y15890D01*
X21752Y15771D01*
X22658Y15890D01*
X23502Y16240D01*
X24227Y16796D01*
X24784Y17521D01*
X25133Y18366D01*
X25253Y19272D01*
X25133Y20178D01*
X24784Y21022D01*
X24227Y21747D01*
X23502Y22303D01*
X22925Y22543D01*
Y36661D01*
X23195Y36773D01*
X23792Y37231D01*
X24251Y37829D01*
X24539Y38525D01*
X24637Y39272D01*
X24539Y40018D01*
X24251Y40714D01*
X23792Y41312D01*
X23195Y41770D01*
X22499Y42059D01*
X21752Y42157D01*
D02*
G37*
G36*
X285200Y18974D02*
Y15700D01*
X288474D01*
X288382Y16406D01*
X288032Y17250D01*
X287475Y17976D01*
X286750Y18532D01*
X285906Y18881D01*
X285200Y18974D01*
D02*
G37*
G36*
X235200D02*
Y15700D01*
X238474D01*
X238382Y16406D01*
X238032Y17250D01*
X237475Y17976D01*
X236750Y18532D01*
X235906Y18881D01*
X235200Y18974D01*
D02*
G37*
G36*
X284800D02*
X284094Y18881D01*
X283250Y18532D01*
X282524Y17976D01*
X281968Y17250D01*
X281618Y16406D01*
X281525Y15700D01*
X284800D01*
Y18974D01*
D02*
G37*
G36*
X234800D02*
X234094Y18881D01*
X233250Y18532D01*
X232524Y17976D01*
X231968Y17250D01*
X231618Y16406D01*
X231525Y15700D01*
X234800D01*
Y18974D01*
D02*
G37*
G36*
X288474Y15300D02*
X285200D01*
Y12026D01*
X285906Y12118D01*
X286750Y12468D01*
X287475Y13025D01*
X288032Y13750D01*
X288382Y14594D01*
X288474Y15300D01*
D02*
G37*
G36*
X238474D02*
X235200D01*
Y12026D01*
X235906Y12118D01*
X236750Y12468D01*
X237475Y13025D01*
X238032Y13750D01*
X238382Y14594D01*
X238474Y15300D01*
D02*
G37*
G36*
X284800D02*
X281525D01*
X281618Y14594D01*
X281968Y13750D01*
X282524Y13025D01*
X283250Y12468D01*
X284094Y12118D01*
X284800Y12026D01*
Y15300D01*
D02*
G37*
G36*
X234800D02*
X231525D01*
X231618Y14594D01*
X231968Y13750D01*
X232524Y13025D01*
X233250Y12468D01*
X234094Y12118D01*
X234800Y12026D01*
Y15300D01*
D02*
G37*
G36*
X315000Y19001D02*
X314094Y18881D01*
X313250Y18532D01*
X312525Y17976D01*
X311968Y17250D01*
X311618Y16406D01*
X311499Y15500D01*
X311618Y14594D01*
X311968Y13750D01*
X312525Y13025D01*
X313250Y12468D01*
X314094Y12118D01*
X315000Y11999D01*
X315906Y12118D01*
X316750Y12468D01*
X317476Y13025D01*
X318032Y13750D01*
X318382Y14594D01*
X318501Y15500D01*
X318382Y16406D01*
X318032Y17250D01*
X317476Y17976D01*
X316750Y18532D01*
X315906Y18881D01*
X315000Y19001D01*
D02*
G37*
G36*
X295000D02*
X294094Y18881D01*
X293250Y18532D01*
X292525Y17976D01*
X291968Y17250D01*
X291618Y16406D01*
X291499Y15500D01*
X291618Y14594D01*
X291968Y13750D01*
X292525Y13025D01*
X293250Y12468D01*
X294094Y12118D01*
X295000Y11999D01*
X295906Y12118D01*
X296750Y12468D01*
X297476Y13025D01*
X298032Y13750D01*
X298381Y14594D01*
X298501Y15500D01*
X298381Y16406D01*
X298032Y17250D01*
X297476Y17976D01*
X296750Y18532D01*
X295906Y18881D01*
X295000Y19001D01*
D02*
G37*
G36*
X275000D02*
X274094Y18881D01*
X273250Y18532D01*
X272524Y17976D01*
X271968Y17250D01*
X271619Y16406D01*
X271499Y15500D01*
X271619Y14594D01*
X271968Y13750D01*
X272524Y13025D01*
X273250Y12468D01*
X274094Y12118D01*
X275000Y11999D01*
X275906Y12118D01*
X276750Y12468D01*
X277476Y13025D01*
X278032Y13750D01*
X278381Y14594D01*
X278501Y15500D01*
X278381Y16406D01*
X278032Y17250D01*
X277476Y17976D01*
X276750Y18532D01*
X275906Y18881D01*
X275000Y19001D01*
D02*
G37*
G36*
X255000D02*
X254094Y18881D01*
X253250Y18532D01*
X252524Y17976D01*
X251968Y17250D01*
X251619Y16406D01*
X251499Y15500D01*
X251619Y14594D01*
X251968Y13750D01*
X252524Y13025D01*
X253250Y12468D01*
X254094Y12118D01*
X255000Y11999D01*
X255906Y12118D01*
X256750Y12468D01*
X257475Y13025D01*
X258032Y13750D01*
X258382Y14594D01*
X258501Y15500D01*
X258382Y16406D01*
X258032Y17250D01*
X257475Y17976D01*
X256750Y18532D01*
X255906Y18881D01*
X255000Y19001D01*
D02*
G37*
G36*
X245000D02*
X244094Y18881D01*
X243250Y18532D01*
X242525Y17976D01*
X241968Y17250D01*
X241618Y16406D01*
X241499Y15500D01*
X241618Y14594D01*
X241968Y13750D01*
X242525Y13025D01*
X243250Y12468D01*
X244094Y12118D01*
X245000Y11999D01*
X245906Y12118D01*
X246750Y12468D01*
X247476Y13025D01*
X248032Y13750D01*
X248381Y14594D01*
X248501Y15500D01*
X248381Y16406D01*
X248032Y17250D01*
X247476Y17976D01*
X246750Y18532D01*
X245906Y18881D01*
X245000Y19001D01*
D02*
G37*
G36*
X225000D02*
X224094Y18881D01*
X223250Y18532D01*
X222524Y17976D01*
X221968Y17250D01*
X221619Y16406D01*
X221499Y15500D01*
X221619Y14594D01*
X221968Y13750D01*
X222524Y13025D01*
X223250Y12468D01*
X224094Y12118D01*
X225000Y11999D01*
X225906Y12118D01*
X226750Y12468D01*
X227476Y13025D01*
X228032Y13750D01*
X228381Y14594D01*
X228501Y15500D01*
X228381Y16406D01*
X228032Y17250D01*
X227476Y17976D01*
X226750Y18532D01*
X225906Y18881D01*
X225000Y19001D01*
D02*
G37*
G36*
X385137Y12427D02*
X378195D01*
Y5486D01*
X385137D01*
Y12427D01*
D02*
G37*
G36*
X50000Y16730D02*
X48764Y16608D01*
X47575Y16247D01*
X46480Y15662D01*
X45520Y14874D01*
X44732Y13914D01*
X44146Y12818D01*
X43786Y11630D01*
X43664Y10394D01*
X43786Y9158D01*
X44146Y7969D01*
X44732Y6874D01*
X45520Y5914D01*
X46480Y5125D01*
X47575Y4540D01*
X48764Y4179D01*
X50000Y4058D01*
X51236Y4179D01*
X52425Y4540D01*
X53520Y5125D01*
X54480Y5914D01*
X55268Y6874D01*
X55854Y7969D01*
X56214Y9158D01*
X56336Y10394D01*
X56214Y11630D01*
X55854Y12818D01*
X55268Y13914D01*
X54480Y14874D01*
X53520Y15662D01*
X52425Y16247D01*
X51236Y16608D01*
X50000Y16730D01*
D02*
G37*
%LPD*%
G36*
X185171Y143879D02*
X184801Y143167D01*
X184785Y143151D01*
X156191D01*
X156034Y143939D01*
X156219Y144016D01*
X156944Y144572D01*
X157500Y145297D01*
X157850Y146141D01*
X157943Y146847D01*
X154469D01*
Y147247D01*
X157943D01*
X157850Y147953D01*
X157500Y148798D01*
X156944Y149523D01*
X156219Y150079D01*
X156183Y150094D01*
X156340Y150881D01*
X178169D01*
X185171Y143879D01*
D02*
G37*
G36*
X178999Y84742D02*
X179544Y84032D01*
X180254Y83487D01*
X181081Y83144D01*
X181968Y83027D01*
X182856Y83144D01*
X183398Y83369D01*
X188328Y78439D01*
Y72837D01*
X187540Y72543D01*
X185056Y75027D01*
X185281Y75569D01*
X185398Y76457D01*
X185281Y77344D01*
X184938Y78171D01*
X184393Y78882D01*
X183683Y79427D01*
X182856Y79769D01*
X181968Y79886D01*
X181081Y79769D01*
X180254Y79427D01*
X179544Y78882D01*
X178999Y78171D01*
X178656Y77344D01*
X178539Y76457D01*
X178656Y75569D01*
X178999Y74742D01*
X179544Y74032D01*
X180254Y73487D01*
X181081Y73144D01*
X181968Y73027D01*
X182856Y73144D01*
X183398Y73369D01*
X185746Y71021D01*
Y68280D01*
X184958Y68123D01*
X184938Y68171D01*
X184393Y68882D01*
X183683Y69427D01*
X182856Y69769D01*
X181968Y69886D01*
X181081Y69769D01*
X180254Y69427D01*
X179544Y68882D01*
X178999Y68171D01*
X178774Y67629D01*
X170531D01*
X170083Y67540D01*
X169702Y67286D01*
X150952Y48536D01*
X150375Y48775D01*
X149469Y48895D01*
X148562Y48775D01*
X147718Y48425D01*
X146993Y47869D01*
X146514Y47245D01*
X146150Y47273D01*
X145727Y47463D01*
Y49069D01*
X177653Y80994D01*
X177907Y81375D01*
X177996Y81824D01*
Y85105D01*
X178784Y85261D01*
X178999Y84742D01*
D02*
G37*
G36*
X304299D02*
X304844Y84032D01*
X305554Y83487D01*
X306381Y83144D01*
X307269Y83027D01*
X308156Y83144D01*
X308698Y83369D01*
X313827Y78240D01*
Y72600D01*
X313193Y72353D01*
X313040Y72343D01*
X310356Y75027D01*
X310581Y75569D01*
X310698Y76457D01*
X310581Y77344D01*
X310238Y78171D01*
X309693Y78882D01*
X308983Y79427D01*
X308156Y79769D01*
X307269Y79886D01*
X306381Y79769D01*
X305554Y79427D01*
X304844Y78882D01*
X304299Y78171D01*
X303956Y77344D01*
X303839Y76457D01*
X303956Y75569D01*
X304299Y74742D01*
X304844Y74032D01*
X305554Y73487D01*
X306381Y73144D01*
X307269Y73027D01*
X308156Y73144D01*
X308698Y73369D01*
X311074Y70993D01*
Y68211D01*
X310287Y68055D01*
X310238Y68171D01*
X309693Y68882D01*
X308983Y69427D01*
X308156Y69769D01*
X307269Y69886D01*
X306381Y69769D01*
X305554Y69427D01*
X304844Y68882D01*
X304299Y68171D01*
X304074Y67629D01*
X295957D01*
X295508Y67540D01*
X295128Y67286D01*
X276484Y48642D01*
X275906Y48882D01*
X275000Y49001D01*
X274094Y48882D01*
X273250Y48532D01*
X272524Y47976D01*
X271968Y47250D01*
X271960Y47230D01*
X271172Y47387D01*
Y49514D01*
X303103Y81445D01*
X303357Y81825D01*
X303446Y82274D01*
Y84742D01*
X304234Y84899D01*
X304299Y84742D01*
D02*
G37*
G36*
X178999Y94742D02*
X179544Y94032D01*
X180218Y93514D01*
X180225Y93434D01*
X179936Y92727D01*
X179443D01*
X178995Y92637D01*
X178614Y92383D01*
X175995Y89764D01*
X175740Y89383D01*
X175651Y88934D01*
Y82309D01*
X143725Y50383D01*
X143471Y50003D01*
X143382Y49554D01*
Y47074D01*
X142594Y46917D01*
X142500Y47144D01*
X141944Y47869D01*
X141219Y48425D01*
X140375Y48775D01*
X139469Y48895D01*
X138562Y48775D01*
X137718Y48425D01*
X136993Y47869D01*
X136437Y47144D01*
X136087Y46300D01*
X135968Y45394D01*
X136087Y44488D01*
X136437Y43643D01*
X136993Y42918D01*
X137718Y42362D01*
X138562Y42012D01*
X139469Y41893D01*
X140375Y42012D01*
X141219Y42362D01*
X141944Y42918D01*
X142500Y43643D01*
X142594Y43870D01*
X143382Y43714D01*
Y20965D01*
X140953Y18536D01*
X140375Y18775D01*
X139469Y18894D01*
X138562Y18775D01*
X137718Y18426D01*
X136993Y17869D01*
X136437Y17144D01*
X136087Y16300D01*
X135968Y15394D01*
X136087Y14488D01*
X136437Y13643D01*
X136993Y12918D01*
X137590Y12460D01*
X137521Y11961D01*
X137379Y11672D01*
X131558D01*
X131416Y11961D01*
X131347Y12460D01*
X131944Y12918D01*
X132500Y13643D01*
X132850Y14488D01*
X132969Y15394D01*
X132850Y16300D01*
X132500Y17144D01*
X131944Y17869D01*
X131219Y18426D01*
X130375Y18775D01*
X129469Y18894D01*
X128562Y18775D01*
X127718Y18426D01*
X126993Y17869D01*
X126437Y17144D01*
X126087Y16300D01*
X125968Y15394D01*
X126087Y14488D01*
X126437Y13643D01*
X126993Y12918D01*
X127590Y12460D01*
X127521Y11961D01*
X127379Y11672D01*
X121558D01*
X121416Y11961D01*
X121347Y12460D01*
X121944Y12918D01*
X122500Y13643D01*
X122850Y14488D01*
X122969Y15394D01*
X122850Y16300D01*
X122500Y17144D01*
X121944Y17869D01*
X121219Y18426D01*
X120375Y18775D01*
X119468Y18894D01*
X118562Y18775D01*
X117718Y18426D01*
X116993Y17869D01*
X116437Y17144D01*
X116087Y16300D01*
X115968Y15394D01*
X116087Y14488D01*
X116437Y13643D01*
X116993Y12918D01*
X117590Y12460D01*
X117520Y11961D01*
X117379Y11672D01*
X111558D01*
X111416Y11961D01*
X111347Y12460D01*
X111944Y12918D01*
X112500Y13643D01*
X112850Y14488D01*
X112943Y15194D01*
X109468D01*
X105994D01*
X106087Y14488D01*
X106437Y13643D01*
X106993Y12918D01*
X107590Y12460D01*
X107520Y11961D01*
X107379Y11672D01*
X101558D01*
X101417Y11961D01*
X101347Y12460D01*
X101944Y12918D01*
X102500Y13643D01*
X102850Y14488D01*
X102969Y15394D01*
X102850Y16300D01*
X102500Y17144D01*
X101944Y17869D01*
X101219Y18426D01*
X100375Y18775D01*
X99468Y18894D01*
X98562Y18775D01*
X97718Y18426D01*
X96993Y17869D01*
X96437Y17144D01*
X96087Y16300D01*
X95968Y15394D01*
X96087Y14488D01*
X96437Y13643D01*
X96993Y12918D01*
X97590Y12460D01*
X97521Y11961D01*
X97379Y11672D01*
X91558D01*
X91417Y11961D01*
X91347Y12460D01*
X91944Y12918D01*
X92500Y13643D01*
X92850Y14488D01*
X92969Y15394D01*
X92850Y16300D01*
X92611Y16878D01*
X95492Y19759D01*
X95746Y20140D01*
X95836Y20588D01*
Y43133D01*
X96623Y43400D01*
X96993Y42918D01*
X97718Y42362D01*
X98562Y42012D01*
X98882Y41970D01*
Y41455D01*
X98972Y41007D01*
X99226Y40626D01*
X103872Y35980D01*
X104252Y35726D01*
X104701Y35637D01*
X119519D01*
X119968Y35726D01*
X120348Y35980D01*
X125256Y40888D01*
X125510Y41268D01*
X125599Y41717D01*
Y43608D01*
X126387Y43764D01*
X126437Y43643D01*
X126993Y42918D01*
X127718Y42362D01*
X128562Y42012D01*
X129469Y41893D01*
X130375Y42012D01*
X131219Y42362D01*
X131944Y42918D01*
X132500Y43643D01*
X132850Y44488D01*
X132969Y45394D01*
X132850Y46300D01*
X132500Y47144D01*
X131944Y47869D01*
X131219Y48425D01*
X130375Y48775D01*
X129469Y48895D01*
X128562Y48775D01*
X127718Y48425D01*
X126993Y47869D01*
X126437Y47144D01*
X126387Y47023D01*
X125599Y47180D01*
Y47629D01*
X125510Y48077D01*
X125256Y48458D01*
X119071Y54643D01*
Y56064D01*
X119858Y56332D01*
X119964Y56194D01*
X120561Y55736D01*
X121257Y55447D01*
X122004Y55349D01*
X122750Y55447D01*
X123446Y55736D01*
X124044Y56194D01*
X124502Y56792D01*
X124791Y57488D01*
X124889Y58234D01*
X124791Y58981D01*
X124502Y59677D01*
X124044Y60275D01*
X123446Y60733D01*
X122750Y61021D01*
X122004Y61120D01*
X121257Y61021D01*
X120898Y60873D01*
X120452Y61540D01*
X154196Y95284D01*
X178774D01*
X178999Y94742D01*
D02*
G37*
G36*
X207169Y49173D02*
X206750Y48532D01*
X205906Y48882D01*
X205000Y49001D01*
X204094Y48882D01*
X203250Y48532D01*
X202524Y47976D01*
X201968Y47250D01*
X201619Y46406D01*
X201499Y45500D01*
X201619Y44594D01*
X201778Y44209D01*
X193821Y36252D01*
X193566Y35872D01*
X193477Y35423D01*
Y16843D01*
X192690Y16687D01*
X192500Y17144D01*
X191944Y17869D01*
X191219Y18426D01*
X190375Y18775D01*
X189469Y18894D01*
X188562Y18775D01*
X187718Y18426D01*
X186993Y17869D01*
X186437Y17144D01*
X186087Y16300D01*
X185968Y15394D01*
X186087Y14488D01*
X186437Y13643D01*
X186993Y12918D01*
X187590Y12460D01*
X187521Y11961D01*
X187379Y11672D01*
X181558D01*
X181416Y11961D01*
X181347Y12460D01*
X181944Y12918D01*
X182500Y13643D01*
X182850Y14488D01*
X182969Y15394D01*
X182850Y16300D01*
X182611Y16878D01*
X185276Y19543D01*
X185530Y19923D01*
X185619Y20372D01*
Y43559D01*
X186407Y43716D01*
X186437Y43643D01*
X186993Y42918D01*
X187718Y42362D01*
X188562Y42012D01*
X189469Y41893D01*
X190375Y42012D01*
X191219Y42362D01*
X191944Y42918D01*
X192500Y43643D01*
X192850Y44488D01*
X192969Y45394D01*
X192850Y46300D01*
X192500Y47144D01*
X191944Y47869D01*
X191219Y48425D01*
X190641Y48665D01*
Y55888D01*
X192829Y58076D01*
X193083Y58456D01*
X193173Y58905D01*
Y62122D01*
X193780Y62368D01*
X193960Y62382D01*
X207169Y49173D01*
D02*
G37*
G36*
X178999Y64742D02*
X179544Y64032D01*
X180254Y63487D01*
X181081Y63144D01*
X181968Y63027D01*
X182856Y63144D01*
X183683Y63487D01*
X184393Y64032D01*
X184938Y64742D01*
X184958Y64790D01*
X185746Y64634D01*
Y63329D01*
X170952Y48536D01*
X170375Y48775D01*
X169468Y48895D01*
X168562Y48775D01*
X167718Y48425D01*
X166993Y47869D01*
X166437Y47144D01*
X166087Y46300D01*
X165968Y45394D01*
X166087Y44488D01*
X166437Y43643D01*
X166993Y42918D01*
X167718Y42362D01*
X168562Y42012D01*
X169468Y41893D01*
X170375Y42012D01*
X171219Y42362D01*
X171944Y42918D01*
X172500Y43643D01*
X172850Y44488D01*
X172969Y45394D01*
X172850Y46300D01*
X172611Y46878D01*
X183057Y57324D01*
X183618Y56776D01*
X183363Y56396D01*
X183274Y55947D01*
Y47333D01*
X182544Y47155D01*
X182487Y47162D01*
X181944Y47869D01*
X181219Y48425D01*
X180375Y48775D01*
X179469Y48895D01*
X178562Y48775D01*
X177718Y48425D01*
X176993Y47869D01*
X176437Y47144D01*
X176087Y46300D01*
X175968Y45394D01*
X176087Y44488D01*
X176437Y43643D01*
X176993Y42918D01*
X177718Y42362D01*
X178562Y42012D01*
X179469Y41893D01*
X180375Y42012D01*
X181219Y42362D01*
X181944Y42918D01*
X182487Y43626D01*
X182544Y43633D01*
X183274Y43454D01*
Y20858D01*
X180952Y18536D01*
X180375Y18775D01*
X179469Y18894D01*
X178562Y18775D01*
X177718Y18426D01*
X176993Y17869D01*
X176437Y17144D01*
X176087Y16300D01*
X175968Y15394D01*
X176087Y14488D01*
X176437Y13643D01*
X176993Y12918D01*
X177590Y12460D01*
X177521Y11961D01*
X177379Y11672D01*
X171558D01*
X171416Y11961D01*
X171347Y12460D01*
X171944Y12918D01*
X172500Y13643D01*
X172850Y14488D01*
X172969Y15394D01*
X172850Y16300D01*
X172500Y17144D01*
X171944Y17869D01*
X171219Y18426D01*
X170375Y18775D01*
X169468Y18894D01*
X168562Y18775D01*
X167718Y18426D01*
X166993Y17869D01*
X166437Y17144D01*
X166087Y16300D01*
X165968Y15394D01*
X166087Y14488D01*
X166437Y13643D01*
X166993Y12918D01*
X167590Y12460D01*
X167520Y11961D01*
X167379Y11672D01*
X161558D01*
X161416Y11961D01*
X161347Y12460D01*
X161944Y12918D01*
X162500Y13643D01*
X162850Y14488D01*
X162943Y15194D01*
X159468D01*
Y15394D01*
D01*
Y15194D01*
X155994D01*
X156087Y14488D01*
X156437Y13643D01*
X156993Y12918D01*
X157590Y12460D01*
X157520Y11961D01*
X157379Y11672D01*
X151558D01*
X151417Y11961D01*
X151347Y12460D01*
X151944Y12918D01*
X152500Y13643D01*
X152850Y14488D01*
X152969Y15394D01*
X152850Y16300D01*
X152500Y17144D01*
X151944Y17869D01*
X151219Y18426D01*
X150375Y18775D01*
X149469Y18894D01*
X148562Y18775D01*
X147718Y18426D01*
X146993Y17869D01*
X146437Y17144D01*
X146087Y16300D01*
X145968Y15394D01*
X146087Y14488D01*
X146437Y13643D01*
X146993Y12918D01*
X147590Y12460D01*
X147520Y11961D01*
X147379Y11672D01*
X141558D01*
X141417Y11961D01*
X141347Y12460D01*
X141944Y12918D01*
X142500Y13643D01*
X142850Y14488D01*
X142969Y15394D01*
X142850Y16300D01*
X142611Y16878D01*
X145383Y19650D01*
X145638Y20031D01*
X145727Y20480D01*
Y43324D01*
X146150Y43514D01*
X146514Y43542D01*
X146993Y42918D01*
X147718Y42362D01*
X148562Y42012D01*
X149469Y41893D01*
X150375Y42012D01*
X151219Y42362D01*
X151944Y42918D01*
X152500Y43643D01*
X152850Y44488D01*
X152969Y45394D01*
X152850Y46300D01*
X152611Y46878D01*
X171017Y65284D01*
X178774D01*
X178999Y64742D01*
D02*
G37*
%LPC*%
G36*
X134169Y61127D02*
Y58468D01*
X136828D01*
X136756Y59014D01*
X136467Y59710D01*
X136009Y60308D01*
X135411Y60767D01*
X134715Y61055D01*
X134169Y61127D01*
D02*
G37*
G36*
X133768D02*
X133222Y61055D01*
X132526Y60767D01*
X131928Y60308D01*
X131470Y59710D01*
X131182Y59014D01*
X131109Y58468D01*
X133768D01*
Y61127D01*
D02*
G37*
G36*
X136828Y58068D02*
X134169D01*
Y55409D01*
X134715Y55481D01*
X135411Y55769D01*
X136009Y56227D01*
X136467Y56825D01*
X136756Y57521D01*
X136828Y58068D01*
D02*
G37*
G36*
X133768D02*
X131109D01*
X131182Y57521D01*
X131470Y56825D01*
X131928Y56227D01*
X132526Y55769D01*
X133222Y55481D01*
X133768Y55409D01*
Y58068D01*
D02*
G37*
G36*
X141969Y61153D02*
X141222Y61055D01*
X140526Y60767D01*
X139928Y60308D01*
X139470Y59710D01*
X139181Y59014D01*
X139083Y58268D01*
X139181Y57521D01*
X139470Y56825D01*
X139928Y56227D01*
X140526Y55769D01*
X141222Y55481D01*
X141969Y55382D01*
X142715Y55481D01*
X143411Y55769D01*
X144009Y56227D01*
X144467Y56825D01*
X144755Y57521D01*
X144854Y58268D01*
X144755Y59014D01*
X144467Y59710D01*
X144009Y60308D01*
X143411Y60767D01*
X142715Y61055D01*
X141969Y61153D01*
D02*
G37*
G36*
X109669Y18868D02*
Y15594D01*
X112943D01*
X112850Y16300D01*
X112500Y17144D01*
X111944Y17869D01*
X111219Y18426D01*
X110375Y18775D01*
X109669Y18868D01*
D02*
G37*
G36*
X109268D02*
X108562Y18775D01*
X107718Y18426D01*
X106993Y17869D01*
X106437Y17144D01*
X106087Y16300D01*
X105994Y15594D01*
X109268D01*
Y18868D01*
D02*
G37*
G36*
X159468Y48895D02*
X158562Y48775D01*
X157718Y48425D01*
X156993Y47869D01*
X156437Y47144D01*
X156087Y46300D01*
X155968Y45394D01*
X156087Y44488D01*
X156437Y43643D01*
X156993Y42918D01*
X157718Y42362D01*
X158562Y42012D01*
X159468Y41893D01*
X160375Y42012D01*
X161219Y42362D01*
X161944Y42918D01*
X162500Y43643D01*
X162850Y44488D01*
X162969Y45394D01*
X162850Y46300D01*
X162500Y47144D01*
X161944Y47869D01*
X161219Y48425D01*
X160375Y48775D01*
X159468Y48895D01*
D02*
G37*
G36*
X159669Y18868D02*
Y15594D01*
X162943D01*
X162850Y16300D01*
X162500Y17144D01*
X161944Y17869D01*
X161219Y18426D01*
X160375Y18775D01*
X159669Y18868D01*
D02*
G37*
G36*
X159268D02*
X158562Y18775D01*
X157718Y18426D01*
X156993Y17869D01*
X156437Y17144D01*
X156087Y16300D01*
X155994Y15594D01*
X159268D01*
Y18868D01*
D02*
G37*
%LPD*%
D21*
X122026Y152054D02*
X178655D01*
X119402Y141981D02*
Y149430D01*
X122026Y152054D01*
X114469Y137047D02*
X119402Y141981D01*
X124469Y137047D02*
X129400Y141979D01*
X134468Y125984D02*
Y137047D01*
X194747Y63253D02*
Y135962D01*
X178655Y152054D02*
X194747Y135962D01*
X215000Y45918D02*
X219162Y50080D01*
X212769Y116457D02*
X219162Y110063D01*
Y50080D02*
Y110063D01*
X87468Y116457D02*
X93851Y110074D01*
X89468Y45856D02*
X93851Y50238D01*
Y110074D01*
X215000Y45500D02*
Y45918D01*
X89468Y45394D02*
Y45856D01*
X234500Y63595D02*
X307269Y136364D01*
X234500Y56000D02*
Y63595D01*
X307269Y136364D02*
Y136457D01*
X117898Y54157D02*
Y60645D01*
X153710Y96457D02*
X181968D01*
X117898Y60645D02*
X153710Y96457D01*
X111988Y55769D02*
Y62715D01*
X150773Y101500D02*
X157012D01*
X111988Y62715D02*
X150773Y101500D01*
X115020Y50945D02*
Y61845D01*
X152175Y99000D02*
X164000D01*
X115020Y61845D02*
X152175Y99000D01*
X192000Y58905D02*
Y134772D01*
X189469Y45394D02*
Y56374D01*
X192000Y58905D01*
X194650Y13536D02*
Y35423D01*
X204727Y45500D02*
X205000D01*
X194650Y35423D02*
X204727Y45500D01*
X191614Y10500D02*
X194650Y13536D01*
X81656Y10500D02*
X191614D01*
X80357Y11799D02*
X81656Y10500D01*
X210099Y20599D02*
Y47901D01*
X194747Y63253D02*
X210099Y47901D01*
X310500Y21000D02*
Y58000D01*
X315000Y62500D02*
Y78725D01*
X310500Y58000D02*
X315000Y62500D01*
X305000Y15500D02*
X310500Y21000D01*
X307269Y86457D02*
X315000Y78725D01*
X184447Y20372D02*
Y55947D01*
X189500Y61000D02*
Y78925D01*
X184447Y55947D02*
X189500Y61000D01*
X184793Y141979D02*
X192000Y134772D01*
X181968Y86457D02*
X189500Y78925D01*
X169468Y45394D02*
X186918Y62843D01*
Y71507D01*
X181968Y76457D02*
X186918Y71507D01*
X295000Y46500D02*
X312247Y63747D01*
Y71478D01*
X307269Y76457D02*
X312247Y71478D01*
X295000Y45500D02*
Y46500D01*
X295957Y66457D02*
X307269D01*
X275000Y45500D02*
X295957Y66457D01*
X270000Y50000D02*
X302274Y82274D01*
Y88526D02*
X305248Y91500D01*
X302274Y82274D02*
Y88526D01*
X305248Y91500D02*
X310000D01*
X312203Y93703D01*
X307269Y106457D02*
X312203Y101522D01*
Y93703D02*
Y101522D01*
X265000Y15500D02*
X270000Y20500D01*
Y50000D01*
X157012Y101500D02*
X181968Y126457D01*
X164000Y99000D02*
X181457Y116457D01*
X237500Y62500D02*
X277500Y102500D01*
X283000D02*
X306957Y126457D01*
X277500Y102500D02*
X283000D01*
X240500Y61500D02*
X278500Y99500D01*
X290312D02*
X307269Y116457D01*
X278500Y99500D02*
X290312D01*
X220000Y47500D02*
X223500Y51000D01*
X220000Y20500D02*
Y47500D01*
X223500Y51000D02*
X229500D01*
X234500Y56000D01*
X250000Y41500D02*
Y50000D01*
X243500Y56500D02*
X250000Y50000D01*
X243500Y56500D02*
Y60500D01*
X279457Y96457D01*
X307269D01*
X246000Y37500D02*
X250000Y41500D01*
X225821Y40179D02*
X228500Y37500D01*
X246000D01*
X232673Y40535D02*
X240035D01*
X230099Y43110D02*
X232673Y40535D01*
X240035D02*
X245000Y45500D01*
X225000D02*
X225821Y44679D01*
Y40179D02*
Y44679D01*
X240500Y51000D02*
Y61500D01*
X235000Y45500D02*
X240500Y51000D01*
X237500Y55000D02*
Y62500D01*
X230099Y47599D02*
X237500Y55000D01*
X306957Y126457D02*
X307269D01*
X230099Y43110D02*
Y47599D01*
X109202Y57538D02*
Y63701D01*
X151655Y106155D02*
X151667D01*
X109202Y63701D02*
X151655Y106155D01*
X181968Y136457D02*
Y136457D01*
X151667Y106155D02*
X181968Y136457D01*
X215000Y15500D02*
X220000Y20500D01*
X206968Y15394D02*
Y16213D01*
X205000Y15500D02*
X210099Y20599D01*
X381666Y28957D02*
Y38957D01*
X371666Y18957D02*
X381666Y28957D01*
X21752Y19272D02*
Y39272D01*
X11752Y9272D02*
X21752Y19272D01*
X124427Y41717D02*
Y47629D01*
X119519Y36809D02*
X124427Y41717D01*
X117898Y54157D02*
X124427Y47629D01*
X80357Y11799D02*
Y14505D01*
X79469Y15394D02*
X80357Y14505D01*
X94663Y47295D02*
X97919Y50550D01*
X102213D01*
X109202Y57538D01*
X94663Y20588D02*
Y47295D01*
X104372Y48153D02*
X111988Y55769D01*
X109468Y45394D02*
X115020Y50945D01*
X129400Y141979D02*
X184793D01*
X179469Y15394D02*
X184447Y20372D01*
X144554Y49554D02*
X176824Y81824D01*
Y88934D02*
X179443Y91554D01*
X176824Y81824D02*
Y88934D01*
X144554Y20480D02*
Y49554D01*
X139469Y15394D02*
X144554Y20480D01*
X179443Y91554D02*
X183952D01*
X186958Y94560D01*
Y101467D01*
X181968Y106457D02*
X186958Y101467D01*
X89468Y15394D02*
X94663Y20588D01*
X119351Y45394D02*
X119468D01*
X113963Y40005D02*
X119351Y45394D01*
X106593Y40005D02*
X113963D01*
X104372Y42226D02*
Y48153D01*
Y42226D02*
X106593Y40005D01*
X104701Y36809D02*
X119519D01*
X100055Y41455D02*
X104701Y36809D01*
X99468Y45394D02*
X100055Y44807D01*
Y41455D02*
Y44807D01*
X170531Y66457D02*
X181968D01*
X149469Y45394D02*
X170531Y66457D01*
X181457Y116457D02*
X181968D01*
D22*
X19685Y118110D02*
D03*
X374016D02*
D03*
D23*
X382500Y185394D02*
D03*
X50000Y10394D02*
D03*
D24*
X181968Y66457D02*
D03*
Y76457D02*
D03*
Y86457D02*
D03*
Y96457D02*
D03*
Y106457D02*
D03*
Y116457D02*
D03*
Y126457D02*
D03*
Y136457D02*
D03*
X87468Y76457D02*
D03*
Y86457D02*
D03*
Y96457D02*
D03*
Y106457D02*
D03*
Y116457D02*
D03*
Y126457D02*
D03*
Y136457D02*
D03*
X307269Y66457D02*
D03*
Y76457D02*
D03*
Y86457D02*
D03*
Y96457D02*
D03*
Y106457D02*
D03*
Y116457D02*
D03*
Y126457D02*
D03*
Y136457D02*
D03*
X212769Y76457D02*
D03*
Y86457D02*
D03*
Y96457D02*
D03*
Y106457D02*
D03*
Y116457D02*
D03*
Y126457D02*
D03*
Y136457D02*
D03*
D25*
X87468Y66457D02*
D03*
X212769D02*
D03*
D26*
X134468Y125984D02*
D03*
X164469D02*
D03*
X267769Y58268D02*
D03*
X259769D02*
D03*
X141969D02*
D03*
X133968D02*
D03*
X247804Y58234D02*
D03*
X227768Y58268D02*
D03*
X122004Y58234D02*
D03*
X101969Y58268D02*
D03*
X381666Y38957D02*
D03*
Y68957D02*
D03*
X21752Y39272D02*
D03*
Y69272D02*
D03*
D27*
X179469Y15394D02*
D03*
X189469D02*
D03*
X159468D02*
D03*
X169468D02*
D03*
X149469D02*
D03*
X169468Y45394D02*
D03*
X129469Y15394D02*
D03*
X139469D02*
D03*
X109468D02*
D03*
X99468D02*
D03*
X89468D02*
D03*
X119468D02*
D03*
X79469D02*
D03*
X189469Y45394D02*
D03*
X159468D02*
D03*
X179469D02*
D03*
X139469D02*
D03*
X149469D02*
D03*
X119468D02*
D03*
X129469D02*
D03*
X109468D02*
D03*
X99468D02*
D03*
X89468D02*
D03*
X79469D02*
D03*
X305000Y15500D02*
D03*
X315000D02*
D03*
X285000D02*
D03*
X295000D02*
D03*
X275000D02*
D03*
X295000Y45500D02*
D03*
X255000Y15500D02*
D03*
X265000D02*
D03*
X235000D02*
D03*
X225000D02*
D03*
X215000D02*
D03*
X245000D02*
D03*
X205000D02*
D03*
X315000Y45500D02*
D03*
X285000D02*
D03*
X305000D02*
D03*
X265000D02*
D03*
X275000D02*
D03*
X245000D02*
D03*
X255000D02*
D03*
X235000D02*
D03*
X225000D02*
D03*
X215000D02*
D03*
X205000D02*
D03*
X21752Y19272D02*
D03*
X11752Y9272D02*
D03*
X371666Y18957D02*
D03*
X381666Y28957D02*
D03*
X114469Y137047D02*
D03*
X144468D02*
D03*
X134468D02*
D03*
X124469D02*
D03*
X144468Y147047D02*
D03*
X154469D02*
D03*
X134468D02*
D03*
X124469D02*
D03*
X114469D02*
D03*
X239469Y137047D02*
D03*
X269468D02*
D03*
X259469D02*
D03*
X249468D02*
D03*
X269468Y147047D02*
D03*
X279468D02*
D03*
X259469D02*
D03*
X249468D02*
D03*
X239469D02*
D03*
D28*
X11752Y29272D02*
D03*
X381666Y8957D02*
D03*
D29*
X154469Y137047D02*
D03*
X279468D02*
D03*
M02*
